<svg width="24" height="24" viewBox="0 0 24 24" fill="none" xmlns="http://www.w3.org/2000/svg">
<path d="M22 7V17C22 20 20.3333 22 16.4444 22H7.55556C3.66667 22 2 20 2 17V7C2 4 3.66667 2 7.55556 2H16.4444C20.3333 2 22 4 22 7Z" stroke="#0073FF" stroke-width="2" stroke-miterlimit="10" stroke-linecap="round" stroke-linejoin="round"/>
<path d="M14.5 4.5V6.5C14.5 7.6 15.4 8.5 16.5 8.5H18.5" stroke="#0073FF" stroke-width="2" stroke-miterlimit="10" stroke-linecap="round" stroke-linejoin="round"/>
<path d="M7.48014 15.49C7.15014 14.46 7.54011 13.19 8.61011 12.84C9.18011 12.66 9.88012 12.81 10.2701 13.36C10.6401 12.79 11.3701 12.66 11.9301 12.84C13.0101 13.19 13.3901 14.46 13.0701 15.49C12.5601 17.12 10.7701 17.9699 10.2701 17.9699C9.78012 17.9599 8.01014 17.13 7.48014 15.49Z" stroke="#0073FF" stroke-width="2" stroke-linecap="round" stroke-linejoin="round"/>
</svg>
