<svg width="14.000000" height="9.799805" viewBox="0 0 14 9.7998" fill="none" xmlns="http://www.w3.org/2000/svg" xmlns:xlink="http://www.w3.org/1999/xlink">
    <desc>
        Created with Pixso.
    </desc>
    <defs/>
    <path id="Vector" d="M2.09998 4.2002C2.87219 4.2002 3.5 3.57227 3.5 2.7998C3.5 2.02783 2.87219 1.3999 2.09998 1.3999C1.32782 1.3999 0.700012 2.02783 0.700012 2.7998C0.700012 3.57227 1.32782 4.2002 2.09998 4.2002ZM11.9 4.2002C12.6722 4.2002 13.3 3.57227 13.3 2.7998C13.3 2.02783 12.6722 1.3999 11.9 1.3999C11.1278 1.3999 10.5 2.02783 10.5 2.7998C10.5 3.57227 11.1278 4.2002 11.9 4.2002ZM12.6 4.8999L11.2 4.8999C10.815 4.8999 10.4672 5.05518 10.2134 5.30664C11.095 5.79053 11.7206 6.66309 11.8563 7.7002L13.3 7.7002C13.6872 7.7002 14 7.38721 14 7L14 6.2998C14 5.52783 13.3722 4.8999 12.6 4.8999ZM7 4.8999C8.35406 4.8999 9.45001 3.8042 9.45001 2.4502C9.45001 1.0957 8.35406 0 7 0C5.64594 0 4.54999 1.0957 4.54999 2.4502C4.54999 3.8042 5.64594 4.8999 7 4.8999ZM8.67999 5.6001L8.49841 5.6001C8.04346 5.81885 7.53815 5.9502 7 5.9502C6.46185 5.9502 5.95874 5.81885 5.50159 5.6001L5.32001 5.6001C3.92877 5.6001 2.79999 6.72852 2.79999 8.12012L2.79999 8.75C2.79999 9.32959 3.27032 9.7998 3.84998 9.7998L10.15 9.7998C10.7297 9.7998 11.2 9.32959 11.2 8.75L11.2 8.12012C11.2 6.72852 10.0712 5.6001 8.67999 5.6001ZM3.78656 5.30664C3.53284 5.05518 3.185 4.8999 2.79999 4.8999L1.40002 4.8999C0.627808 4.8999 0 5.52783 0 6.2998L0 7C0 7.38721 0.312805 7.7002 0.700012 7.7002L2.14154 7.7002C2.27936 6.66309 2.90503 5.79053 3.78656 5.30664Z" fill="#6A6A6A" fill-opacity="1.000000" fill-rule="evenodd"/>
</svg>
