<svg width="20" height="20" viewBox="0 0 20 20" fill="none" xmlns="http://www.w3.org/2000/svg">
<path d="M10.4848 19.1667H9.51555L7.23583 16.8187H3.86402L3.14052 16.1362V12.8326L0.833496 10.4847V9.51543L3.14052 7.16745V3.85025L3.86402 3.1677H7.23583L9.51555 0.833374H10.4848L12.8328 3.1677H16.1499L16.8325 3.8366V7.16745L19.1668 9.51543V10.4847L16.7915 12.8326V16.1362L16.109 16.8187H12.8328L10.4848 19.1667Z" fill="#0073FF"/>
<path fill-rule="evenodd" clip-rule="evenodd" d="M15.0821 6.82568C15.3914 7.15569 15.3747 7.67402 15.0447 7.9834L9.22028 13.4438C8.9131 13.7318 8.43761 13.74 8.12073 13.4627L5.20851 10.9145C4.86808 10.6166 4.83358 10.0992 5.13146 9.75873C5.42934 9.4183 5.94679 9.3838 6.28722 9.68168L8.64112 11.7413L13.9243 6.78833C14.2543 6.47895 14.7727 6.49567 15.0821 6.82568Z" fill="white"/>
</svg>
