<svg width="230" height="50" viewBox="0 0 230 50" fill="none" xmlns="http://www.w3.org/2000/svg">
<g clip-path="url(#clip0_1786_35970)">
<path d="M31.5098 14.5278C29.4407 15.8134 29.1995 16.0889 27.8448 17.301C27.7891 17.3561 27.7242 17.4204 27.6407 17.3653C27.5479 17.3102 27.5386 17.2092 27.5571 17.1174C28.0396 14.6564 29.0696 12.5903 30.3036 11.0935C31.7604 9.3304 33.8759 7.76933 33.5048 7.43875C33.412 7.35611 33.2914 7.38366 33.1893 7.42957C32.8553 7.58568 32.5119 7.74178 32.1779 7.91625C31.4171 8.32029 30.7676 8.87126 30.0995 9.40386C30.0438 9.44977 29.9882 9.5416 29.8954 9.4865C29.8211 9.44977 29.8397 9.35794 29.8397 9.29366C29.8211 7.92544 29.9418 6.60312 29.4314 6.96125C28.9768 7.27346 28.819 8.25602 28.7819 8.80698C28.7355 9.42222 28.6149 10.0283 28.7541 10.6435C28.8283 10.9833 28.7077 11.2863 28.5221 11.5618C28.2345 12.0118 27.9932 12.4893 27.7427 12.9576C26.3045 15.6848 25.5066 18.4397 25.2746 20.818C25.1076 22.4893 25.0705 24.2799 26.1746 25.5655C26.7685 26.2542 26.4344 26.4837 26.3138 26.796C26.1468 27.2092 25.4509 28.8162 25.4695 29.0549C25.4695 29.0549 25.4694 30.6068 25.5066 43.9218C25.5066 44.0319 25.4787 44.1513 25.5622 44.2615C25.6736 44.1789 25.7385 44.0779 25.8035 43.986C28.0396 40.8547 35.2399 34.7666 35.2213 34.6564C35.3326 34.6747 35.3976 34.5921 35.4626 34.5278C41.0205 29.3763 45.0659 24.7574 46.3278 17.4112C46.4949 16.4378 46.532 14.1605 46.3186 12.9943C44.8618 4.82167 36.6781 -0.118639 28.7263 2.39743C27.6407 2.74637 26.6107 3.26061 25.5622 3.71056C25.5251 3.70138 25.488 3.67383 25.4695 3.73811L25.4787 3.74729L25.488 3.73811C25.6921 3.68301 30.6098 -1.1471 37.1605 0.267036C47.6825 2.54435 52.8878 14.7849 44.9453 27.099C39.2854 35.8685 28.2809 41.8373 25.3674 47.8152C25.321 47.9071 25.1354 48.256 24.4674 49.8814C24.4395 49.9456 24.421 50.0099 24.3467 50.0099C24.1333 50.0007 24.0684 49.1835 23.4281 47.8887C23.391 47.8152 23.0292 47.1173 22.9735 47.0072C18.3898 39.2661 2.18933 32.076 0.175864 17.4663C0.110914 16.998 0.129471 16.5297 0.0645207 16.0705C-0.121052 14.6564 0.0645207 11.9475 0.881041 9.73444C2.00376 6.68577 3.85949 4.33499 5.88223 2.82902C8.70294 0.71699 11.9041 -0.118639 14.3536 0.0650161C17.4341 0.294584 19.4383 0.946559 22.4261 3.1045C22.5652 3.20551 22.7508 3.27897 22.8436 3.50854C21.7209 3.07695 20.292 2.3056 17.9537 1.91075C17.2578 1.79137 16.5434 1.76382 15.8289 1.773C6.61524 1.78219 -0.334461 10.6711 3.27493 20.6435C5.21417 26.0154 7.7194 29.0365 11.867 33.1229C13.1752 34.4176 14.5856 35.593 15.9774 36.796C23.2426 43.0678 22.5374 43.9493 23.0756 44.2432C23.2704 43.9677 23.1683 37.6408 23.2333 30.9466C23.2426 29.514 22.9364 28.1642 22.3889 26.8602C22.2034 26.4103 22.1848 26.0705 22.5281 25.6665C23.4467 24.5921 23.6137 23.2698 23.5673 21.9291C23.5395 21.0292 23.4281 20.1385 23.2333 19.2569C21.8044 12.627 19.8466 12.1954 20.0136 10.5333C20.1064 9.55996 20.0786 8.55905 19.7167 7.62241C19.6425 7.42039 19.5126 6.83269 19.1785 6.92452C19.0857 6.95207 19.095 7.02553 19.0857 7.09899C18.8723 8.21929 19.1136 8.49477 18.8538 9.67934C18.7424 9.55996 18.6589 9.45895 18.5569 9.37631C17.8702 8.81616 16.3857 7.57649 15.5135 7.37447C15.4021 7.34693 15.2722 7.32856 15.198 7.42957C14.7433 8.04481 17.6661 9.45895 19.661 12.8474C20.561 14.3809 21.7951 18.1275 20.8765 17.2643C20.7466 17.1449 20.6353 17.0163 20.5054 16.8878C19.661 16.043 18.6682 15.4094 17.6476 14.8125C14.3258 12.8749 13.5557 10.2303 13.2588 8.54068C12.9618 6.86942 12.8969 5.40019 12.7763 4.57374C12.7484 4.36254 12.8319 4.27071 13.0546 4.27989C15.365 4.35335 18.0001 4.41763 20.1992 5.98788C22.157 7.39284 23.4467 9.21102 24.189 12.1311C24.2261 12.2781 24.2076 12.526 24.4117 12.526C24.5694 12.526 24.5973 12.2872 24.6344 12.1403C24.8942 11.2404 25.1818 10.3497 25.5994 9.51405C26.3324 8.04481 27.3901 6.85106 28.717 5.88687C30.016 4.95023 34.7852 4.25234 35.6388 4.27989C35.945 4.28907 35.9636 4.30744 35.9729 4.60129C35.9822 5.73076 35.8708 6.85106 35.7131 7.97135C35.3883 10.1293 34.08 12.9392 31.5098 14.5278Z" fill="url(#paint0_linear_1786_35970)"/>
<path d="M22.0373 23.5707C22.0001 23.9747 21.9074 24.3788 21.6568 24.7185C21.4805 24.9481 21.4341 24.9481 21.2764 24.691C20.9053 24.0757 20.4877 23.488 20.0331 22.9279C19.4021 22.1749 18.6877 21.4954 17.9268 20.871C17.6763 20.6689 17.5093 20.4302 17.4443 20.1088C17.3237 19.5395 17.1753 18.9793 16.8876 18.4651C16.7299 18.1804 16.5443 17.9141 16.2752 17.7305C16.0247 17.5652 15.9134 17.6295 15.9041 17.9233C15.9041 18.0243 15.9134 18.1253 15.9134 18.2355C15.8948 18.5294 15.9876 18.814 16.0154 19.1079C16.0247 19.264 15.969 19.3374 15.802 19.2732C15.7463 19.2548 15.6907 19.2456 15.6443 19.2181C15.0968 19.0069 14.5587 18.7589 14.0112 18.5569C13.7978 18.4743 13.5751 18.4834 13.371 18.3824C12.9442 18.1896 12.5081 18.0886 12.0349 18.1988C11.9885 18.208 11.9143 18.1988 11.905 18.2722C11.8957 18.3365 11.9421 18.3641 11.9885 18.4008C12.1833 18.5477 12.406 18.6487 12.6102 18.7865C13.3803 19.3099 14.1783 19.8058 14.9669 20.3016C15.4865 20.6138 16.0618 20.8159 16.5814 21.1097C18.0011 21.9178 18.9939 23.1575 19.8661 24.4981C20.0424 24.7644 20.1073 25.0858 20.33 25.3338L20.3207 25.4072C19.7547 25.398 19.1887 25.398 18.6227 25.3613C17.5278 25.2787 16.4701 25.0767 15.4401 24.691C13.4267 23.938 11.8586 22.6524 10.7452 20.8342C10.2812 20.0721 9.9008 19.2732 9.56677 18.4467C9.3348 17.8866 9.04716 17.354 8.7688 16.8122C8.71313 16.702 8.62034 16.5918 8.82447 16.4816C9.58532 16.0776 10.374 15.7654 11.2091 15.5542C11.7844 15.4072 12.3782 15.3154 12.972 15.2419C14.1226 15.095 15.2453 15.2328 16.3309 15.6001C17.2959 15.9306 18.1402 16.4724 18.9382 17.0877C19.7826 17.7305 20.5527 18.4559 21.1372 19.3558C22.0094 20.8893 22.13 22.5514 22.0373 23.5707Z" fill="#F25822"/>
<path d="M28.6989 25.4263C28.5597 25.4263 28.4669 25.3712 28.5504 25.2059C29.3576 23.6724 30.4247 22.3409 31.8443 21.3124C32.2526 21.0186 32.7443 20.89 33.199 20.6696C34.0805 20.238 34.8599 19.6595 35.695 19.1453C36.029 18.9433 36.363 18.7504 36.697 18.5484C36.8177 18.4749 36.994 18.3923 36.9568 18.2454C36.9105 18.0617 36.7156 18.1352 36.5857 18.1352C35.8991 18.1719 35.2403 18.3739 34.6001 18.6219C34.0155 18.8423 33.4217 19.0535 32.865 19.3473C32.8186 19.3749 32.7536 19.43 32.6887 19.3749C32.6144 19.3198 32.6516 19.2463 32.6608 19.1728C32.7351 18.6862 32.8279 18.2086 32.8186 17.7128C32.8186 17.621 32.8464 17.5108 32.7258 17.4648C32.6144 17.4189 32.5217 17.4832 32.4474 17.5567C31.5845 18.3831 31.4361 19.2647 31.2598 20.2656C31.2041 20.5686 30.9536 20.7431 30.7402 20.9176C29.4133 21.9919 28.3555 23.2867 27.4555 24.7284C27.2978 24.9855 27.2143 24.9947 27.0287 24.7376C26.7225 24.306 26.6112 23.8009 26.5833 23.2867C26.472 21.2022 27.2885 19.4942 28.736 18.0434C30.6195 16.1517 32.8464 15.2977 34.5444 15.261C35.3238 15.2426 36.1125 15.2151 36.8826 15.3712C38.2002 15.6375 39.4064 16.1425 39.9724 16.5007C40.1023 16.5833 40.1394 16.6568 40.0652 16.8037C38.9518 19.0259 37.9589 23.149 32.8835 24.857C31.3989 25.3712 30.1927 25.463 28.6989 25.4263Z" fill="#F25822"/>
</g>
<path d="M214.611 13.2795H218.896V15.4253C219.298 14.7299 219.921 14.1338 220.766 13.6371C221.631 13.1404 222.778 12.8921 224.206 12.8921C226.117 12.8921 227.556 13.4087 228.521 14.4418C229.507 15.4551 230 16.9055 230 18.7929V29.0747H225.353V19.836C225.353 18.8029 225.121 18.028 224.659 17.5114C224.216 16.975 223.482 16.7068 222.456 16.7068C221.893 16.7068 221.41 16.7962 221.008 16.975C220.605 17.1339 220.274 17.3525 220.012 17.6306C219.75 17.9088 219.559 18.2466 219.439 18.6439C219.318 19.0214 219.258 19.4188 219.258 19.836V29.0747H214.611V13.2795Z" fill="white"/>
<path d="M203.364 29.4614C201.534 29.4614 200.136 28.9448 199.17 27.9117C198.204 26.8785 197.722 25.309 197.722 23.2029V13.2788H202.368V22.4877C202.368 23.5208 202.58 24.3056 203.002 24.8421C203.445 25.3785 204.149 25.6467 205.114 25.6467C206.16 25.6467 206.925 25.3487 207.408 24.7527C207.91 24.1367 208.162 23.3818 208.162 22.4877V13.2788H212.809V29.074H208.524V26.9282C208.122 27.6236 207.488 28.2196 206.623 28.7163C205.758 29.2131 204.672 29.4614 203.364 29.4614Z" fill="white"/>
<path d="M180.81 8.21436H185.456V15.2775C185.617 15.0192 185.839 14.751 186.12 14.4728C186.402 14.1947 186.744 13.9364 187.146 13.698C187.569 13.4595 188.051 13.2708 188.594 13.1317C189.138 12.9728 189.741 12.8933 190.405 12.8933C192.316 12.8933 193.754 13.4099 194.72 14.443C195.706 15.4563 196.198 16.8967 196.198 18.7643V29.0759H191.552V19.8372C191.552 18.8041 191.32 18.0292 190.858 17.5126C190.415 16.9762 189.681 16.708 188.655 16.708C187.528 16.708 186.714 17.006 186.211 17.602C185.708 18.1981 185.456 18.9431 185.456 19.8372V29.0759H180.81V8.21436Z" fill="white"/>
<path d="M172.205 29.4621C171.018 29.4621 169.922 29.2932 168.916 28.9555C167.93 28.6177 167.076 28.1111 166.351 27.4356C165.627 26.76 165.064 25.9156 164.662 24.9024C164.259 23.8891 164.058 22.697 164.058 21.3261V20.7301C164.058 19.4784 164.269 18.3658 164.692 17.3922C165.134 16.4187 165.718 15.6041 166.442 14.9484C167.186 14.2729 168.051 13.7663 169.037 13.4285C170.023 13.0709 171.079 12.8921 172.205 12.8921C173.412 12.8921 174.468 13.051 175.373 13.3689C176.299 13.6868 177.073 14.1239 177.697 14.6802C178.32 15.2167 178.803 15.8524 179.145 16.5876C179.487 17.3227 179.688 18.1075 179.749 18.9419H174.981C174.82 18.2267 174.518 17.6803 174.076 17.3028C173.653 16.9055 173.03 16.7068 172.205 16.7068C171.219 16.7068 170.405 17.0445 169.761 17.72C169.137 18.3757 168.826 19.379 168.826 20.7301V21.3261C168.826 22.7964 169.127 23.8792 169.731 24.5745C170.354 25.2699 171.179 25.6176 172.205 25.6176C172.909 25.6176 173.503 25.4388 173.985 25.0812C174.488 24.7037 174.82 24.1474 174.981 23.4123H179.749C179.688 24.3461 179.467 25.1905 179.085 25.9455C178.703 26.6806 178.18 27.3064 177.516 27.823C176.872 28.3396 176.098 28.7469 175.192 29.0449C174.307 29.323 173.311 29.4621 172.205 29.4621Z" fill="white"/>
<path d="M153.332 29.4633C151.924 29.4633 150.647 29.2845 149.5 28.9269C148.373 28.5494 147.408 28.003 146.603 27.2878C145.819 26.5526 145.205 25.6387 144.763 24.546C144.34 23.4532 144.129 22.1817 144.129 20.7313V8.21436H149.56V20.1054C149.56 21.7148 149.842 22.9366 150.405 23.7711C150.968 24.5857 151.944 24.993 153.332 24.993C154.76 24.993 155.746 24.5857 156.289 23.7711C156.832 22.9366 157.104 21.7247 157.104 20.1352V8.21436H162.535V20.7313C162.535 22.1817 162.324 23.4532 161.901 24.546C161.479 25.6387 160.865 26.5526 160.061 27.2878C159.276 28.003 158.311 28.5494 157.164 28.9269C156.038 29.2845 154.76 29.4633 153.332 29.4633Z" fill="white"/>
<path d="M120.427 13.2795H124.712V15.4253C125.114 14.7299 125.738 14.1338 126.583 13.6371C127.448 13.1404 128.594 12.8921 130.023 12.8921C131.934 12.8921 133.372 13.4087 134.338 14.4418C135.323 15.4551 135.816 16.9055 135.816 18.7929V29.0747H131.169V19.836C131.169 18.8029 130.938 18.028 130.475 17.5114C130.033 16.975 129.298 16.7068 128.273 16.7068C127.709 16.7068 127.226 16.7962 126.824 16.975C126.422 17.1339 126.09 17.3525 125.828 17.6306C125.567 17.9088 125.376 18.2466 125.255 18.6439C125.134 19.0214 125.074 19.4188 125.074 19.836V29.0747H120.427V13.2795Z" fill="white"/>
<path d="M111.086 29.4621C109.959 29.4621 108.903 29.3032 107.918 28.9853C106.932 28.6475 106.067 28.1409 105.323 27.4654C104.578 26.7898 103.995 25.9455 103.573 24.9322C103.15 23.899 102.939 22.697 102.939 21.3261V20.7301C102.939 19.4386 103.15 18.3062 103.573 17.3326C103.995 16.3591 104.578 15.5445 105.323 14.8888C106.067 14.2332 106.932 13.7365 107.918 13.3987C108.903 13.061 109.959 12.8921 111.086 12.8921C112.212 12.8921 113.269 13.061 114.254 13.3987C115.24 13.7365 116.105 14.2332 116.849 14.8888C117.594 15.5445 118.177 16.3591 118.599 17.3326C119.022 18.3062 119.233 19.4386 119.233 20.7301V21.3261C119.233 22.6771 119.022 23.8692 118.599 24.9024C118.177 25.9156 117.594 26.76 116.849 27.4356C116.105 28.1111 115.24 28.6177 114.254 28.9555C113.269 29.2932 112.212 29.4621 111.086 29.4621ZM111.086 25.6474C112.172 25.6474 113.007 25.26 113.59 24.4851C114.174 23.7103 114.465 22.6573 114.465 21.3261V20.7301C114.465 19.538 114.174 18.5744 113.59 17.8393C113.007 17.0843 112.172 16.7068 111.086 16.7068C110 16.7068 109.165 17.0843 108.582 17.8393C107.998 18.5744 107.706 19.538 107.706 20.7301V21.3261C107.706 22.697 107.998 23.76 108.582 24.5149C109.165 25.2699 110 25.6474 111.086 25.6474Z" fill="white"/>
<path d="M94.8043 29.4621C93.4967 29.4621 92.3702 29.333 91.4248 29.0747C90.4994 28.7965 89.735 28.429 89.1315 27.972C88.5281 27.4952 88.0754 26.9488 87.7737 26.3329C87.472 25.6971 87.301 25.0216 87.2607 24.3063H91.9076C92.0283 24.7633 92.2898 25.1507 92.6921 25.4686C93.0944 25.7865 93.7985 25.9455 94.8043 25.9455C95.8302 25.9455 96.5644 25.8064 97.007 25.5282C97.4697 25.2501 97.701 24.8825 97.701 24.4255C97.701 24.2467 97.6507 24.0878 97.5501 23.9487C97.4495 23.7898 97.2584 23.6507 96.9768 23.5315C96.7153 23.3924 96.3532 23.2633 95.8905 23.144C95.4279 23.0248 94.8344 22.9056 94.1103 22.7864C93.2252 22.6473 92.3903 22.4685 91.6058 22.25C90.8213 22.0314 90.1373 21.7433 89.554 21.3857C88.9907 21.0082 88.5381 20.5314 88.1961 19.9552C87.8743 19.379 87.7134 18.6538 87.7134 17.7797C87.7134 17.0843 87.8743 16.4386 88.1961 15.8425C88.518 15.2465 88.9807 14.7299 89.5841 14.2928C90.2077 13.8557 90.952 13.5179 91.817 13.2795C92.7021 13.0212 93.6979 12.8921 94.8043 12.8921C96.0515 12.8921 97.0975 13.0411 97.9424 13.3391C98.8074 13.6371 99.5114 14.0345 100.055 14.5312C100.598 15.008 101 15.5544 101.262 16.1703C101.523 16.7862 101.684 17.4121 101.744 18.0479H97.0975C96.9768 17.5313 96.7153 17.1339 96.313 16.8558C95.9107 16.5578 95.4078 16.4087 94.8043 16.4087C93.8789 16.4087 93.2352 16.5478 92.8731 16.826C92.5312 17.1041 92.3602 17.432 92.3602 17.8095C92.3602 18.2267 92.6418 18.5545 93.205 18.7929C93.7683 19.0115 94.6635 19.2002 95.8905 19.3592C96.7555 19.4784 97.5803 19.6473 98.3648 19.8658C99.1493 20.0844 99.8333 20.3923 100.417 20.7897C101.02 21.1672 101.493 21.6539 101.835 22.25C102.177 22.8262 102.348 23.5315 102.348 24.3659C102.348 25.8759 101.704 27.1077 100.417 28.0614C99.1493 28.9952 97.2785 29.4621 94.8043 29.4621Z" fill="white"/>
<path d="M70.8027 13.2795H75.0875V15.4253C75.4898 14.7299 76.1134 14.1338 76.9583 13.6371C77.8232 13.1404 78.9699 12.8921 80.3981 12.8921C82.3091 12.8921 83.7474 13.4087 84.713 14.4418C85.6987 15.4551 86.1915 16.9055 86.1915 18.7929V29.0747H81.5447V19.836C81.5447 18.8029 81.3134 18.028 80.8507 17.5114C80.4082 16.975 79.6739 16.7068 78.648 16.7068C78.0848 16.7068 77.602 16.7962 77.1996 16.975C76.7973 17.1339 76.4654 17.3525 76.2039 17.6306C75.9424 17.9088 75.7513 18.2466 75.6306 18.6439C75.5099 19.0214 75.4495 19.4188 75.4495 19.836V29.0747H70.8027V13.2795Z" fill="white"/>
<path d="M62.6592 8.21387H68.0905V29.0754H62.6592V8.21387Z" fill="white"/>
<path d="M181.407 35.3768H182.26V39.2075L184.917 35.3768H185.77V40.4525H184.917V36.6217L182.26 40.4525H181.407V35.3768ZM183.588 34.7543C183.084 34.7543 182.716 34.6489 182.483 34.4382C182.25 34.2212 182.134 33.9115 182.134 33.5093H182.968C182.968 33.9434 183.175 34.1605 183.588 34.1605C184.015 34.1605 184.228 33.9434 184.228 33.5093H185.043C185.043 33.9115 184.926 34.2212 184.694 34.4382C184.461 34.6489 184.093 34.7543 183.588 34.7543Z" fill="#B3B7CE"/>
<path d="M177.726 40.5485C177.396 40.5485 177.082 40.4974 176.785 40.3953C176.488 40.2867 176.226 40.1271 176 39.9164C175.773 39.6994 175.592 39.428 175.457 39.1024C175.321 38.7768 175.253 38.3969 175.253 37.9628V37.7712C175.253 37.3626 175.321 37.0019 175.457 36.689C175.592 36.3762 175.773 36.1176 176 35.9133C176.226 35.7026 176.488 35.5462 176.785 35.4441C177.082 35.3355 177.396 35.2812 177.726 35.2812C178.055 35.2812 178.369 35.3355 178.666 35.4441C178.963 35.5462 179.225 35.7026 179.451 35.9133C179.678 36.1176 179.859 36.3762 179.994 36.689C180.13 37.0019 180.198 37.3626 180.198 37.7712V37.9628C180.198 38.3969 180.13 38.7768 179.994 39.1024C179.859 39.428 179.678 39.6994 179.451 39.9164C179.225 40.1271 178.963 40.2867 178.666 40.3953C178.369 40.4974 178.055 40.5485 177.726 40.5485ZM177.726 39.7824C177.919 39.7824 178.113 39.7504 178.307 39.6866C178.501 39.6164 178.673 39.511 178.821 39.3705C178.97 39.2237 179.089 39.0354 179.18 38.8055C179.277 38.5757 179.325 38.2948 179.325 37.9628V37.7712C179.325 37.4648 179.277 37.203 179.18 36.9859C179.089 36.7688 178.97 36.5901 178.821 36.4496C178.673 36.3092 178.501 36.207 178.307 36.1432C178.113 36.0793 177.919 36.0474 177.726 36.0474C177.532 36.0474 177.338 36.0793 177.144 36.1432C176.95 36.207 176.778 36.3092 176.63 36.4496C176.481 36.5901 176.358 36.7688 176.261 36.9859C176.171 37.203 176.126 37.4648 176.126 37.7712V37.9628C176.126 38.2948 176.171 38.5757 176.261 38.8055C176.358 39.0354 176.481 39.2237 176.63 39.3705C176.778 39.511 176.95 39.6164 177.144 39.6866C177.338 39.7504 177.532 39.7824 177.726 39.7824Z" fill="#B3B7CE"/>
<path d="M172.107 36.1244H170.352V35.3774H174.715V36.1244H172.96V40.4532H172.107V36.1244Z" fill="#B3B7CE"/>
<path d="M167.347 40.5485C167.017 40.5485 166.703 40.4974 166.406 40.3953C166.109 40.2867 165.847 40.1271 165.621 39.9164C165.394 39.6994 165.213 39.428 165.078 39.1024C164.942 38.7768 164.874 38.3969 164.874 37.9628V37.7712C164.874 37.3626 164.942 37.0019 165.078 36.689C165.213 36.3762 165.394 36.1176 165.621 35.9133C165.847 35.7026 166.109 35.5462 166.406 35.4441C166.703 35.3355 167.017 35.2812 167.347 35.2812C167.676 35.2812 167.99 35.3355 168.287 35.4441C168.584 35.5462 168.846 35.7026 169.073 35.9133C169.299 36.1176 169.48 36.3762 169.616 36.689C169.751 37.0019 169.819 37.3626 169.819 37.7712V37.9628C169.819 38.3969 169.751 38.7768 169.616 39.1024C169.48 39.428 169.299 39.6994 169.073 39.9164C168.846 40.1271 168.584 40.2867 168.287 40.3953C167.99 40.4974 167.676 40.5485 167.347 40.5485ZM167.347 39.7824C167.541 39.7824 167.734 39.7504 167.928 39.6866C168.122 39.6164 168.294 39.511 168.442 39.3705C168.591 39.2237 168.711 39.0354 168.801 38.8055C168.898 38.5757 168.946 38.2948 168.946 37.9628V37.7712C168.946 37.4648 168.898 37.203 168.801 36.9859C168.711 36.7688 168.591 36.5901 168.442 36.4496C168.294 36.3092 168.122 36.207 167.928 36.1432C167.734 36.0793 167.541 36.0474 167.347 36.0474C167.153 36.0474 166.959 36.0793 166.765 36.1432C166.571 36.207 166.4 36.3092 166.251 36.4496C166.102 36.5901 165.979 36.7688 165.882 36.9859C165.792 37.203 165.747 37.4648 165.747 37.7712V37.9628C165.747 38.2948 165.792 38.5757 165.882 38.8055C165.979 39.0354 166.102 39.2237 166.251 39.3705C166.4 39.511 166.571 39.6164 166.765 39.6866C166.959 39.7504 167.153 39.7824 167.347 39.7824Z" fill="#B3B7CE"/>
<path d="M159.249 35.377H160.044V36.3347C160.219 35.9963 160.461 35.7377 160.771 35.559C161.088 35.3738 161.453 35.2812 161.867 35.2812C162.513 35.2812 163.031 35.4919 163.418 35.9133C163.806 36.3283 164 36.9476 164 37.7712V37.9628C164 38.3969 163.949 38.7768 163.845 39.1024C163.742 39.4216 163.596 39.6898 163.409 39.9069C163.221 40.1175 162.995 40.2772 162.73 40.3857C162.471 40.4942 162.184 40.5485 161.867 40.5485C161.427 40.5485 161.059 40.4527 160.762 40.2612C160.471 40.0697 160.251 39.8302 160.102 39.5429V42.3681H159.249V35.377ZM161.673 39.8015C161.88 39.8015 162.074 39.7632 162.255 39.6866C162.436 39.6036 162.591 39.4855 162.72 39.3322C162.856 39.179 162.959 38.9875 163.031 38.7576C163.108 38.5278 163.147 38.2628 163.147 37.9628V37.7712C163.147 37.4967 163.108 37.2509 163.031 37.0338C162.959 36.8167 162.856 36.6348 162.72 36.4879C162.591 36.3347 162.436 36.2198 162.255 36.1432C162.074 36.0665 161.88 36.0282 161.673 36.0282C161.44 36.0282 161.227 36.0665 161.033 36.1432C160.839 36.2134 160.674 36.3155 160.539 36.4496C160.403 36.5773 160.296 36.7305 160.219 36.9093C160.141 37.0881 160.102 37.2796 160.102 37.4839V38.2501C160.102 38.4799 160.141 38.6906 160.219 38.8821C160.296 39.0737 160.403 39.2365 160.539 39.3705C160.674 39.5046 160.839 39.61 161.033 39.6866C161.227 39.7632 161.44 39.8015 161.673 39.8015Z" fill="#B3B7CE"/>
<path d="M155.615 40.5482C155.272 40.5482 154.952 40.4844 154.655 40.3567C154.364 40.229 154.108 40.0439 153.889 39.8012C153.675 39.5522 153.504 39.249 153.375 38.8914C153.252 38.5339 153.19 38.1285 153.19 37.6752V37.4837C153.19 36.909 153.232 36.3983 153.316 35.9514C153.401 35.4981 153.543 35.115 153.743 34.8021C153.95 34.4829 154.218 34.2339 154.548 34.0552C154.884 33.8764 155.304 33.7742 155.808 33.7487C156.216 33.7295 156.571 33.7136 156.875 33.7008C157.179 33.6817 157.437 33.6178 157.651 33.5093V34.3233C157.547 34.3808 157.357 34.4255 157.079 34.4574C156.807 34.4893 156.432 34.5117 155.954 34.5244C155.644 34.5308 155.369 34.5691 155.13 34.6393C154.897 34.7096 154.697 34.8213 154.529 34.9745C154.367 35.1278 154.238 35.3289 154.141 35.5779C154.05 35.8205 153.992 36.1206 153.966 36.4781C154.121 36.1397 154.36 35.8716 154.684 35.6736C155.007 35.4757 155.382 35.3768 155.808 35.3768C156.138 35.3768 156.439 35.4342 156.71 35.5491C156.982 35.6577 157.214 35.8141 157.408 36.0184C157.609 36.2227 157.764 36.4749 157.874 36.775C157.984 37.0687 158.039 37.4007 158.039 37.771V37.9625C158.039 38.3583 157.977 38.7159 157.854 39.0351C157.732 39.3479 157.563 39.6193 157.35 39.8491C157.137 40.0726 156.881 40.245 156.584 40.3663C156.287 40.4876 155.964 40.5482 155.615 40.5482ZM155.615 39.7821C156.067 39.7821 156.439 39.6289 156.73 39.3224C157.02 39.0096 157.166 38.5563 157.166 37.9625V37.771C157.166 37.522 157.127 37.2985 157.05 37.1006C156.972 36.9027 156.865 36.7335 156.73 36.593C156.594 36.4462 156.429 36.3344 156.235 36.2578C156.048 36.1812 155.841 36.1429 155.615 36.1429C155.388 36.1429 155.178 36.1812 154.984 36.2578C154.797 36.3344 154.635 36.4462 154.499 36.593C154.364 36.7335 154.257 36.9027 154.179 37.1006C154.102 37.2985 154.063 37.522 154.063 37.771V37.9625C154.063 38.2434 154.102 38.4988 154.179 38.7286C154.263 38.9521 154.377 39.1436 154.519 39.3033C154.661 39.4565 154.826 39.5746 155.013 39.6576C155.201 39.7406 155.401 39.7821 155.615 39.7821Z" fill="#B3B7CE"/>
<path d="M149.8 40.5485C149.471 40.5485 149.157 40.4974 148.86 40.3953C148.562 40.2867 148.301 40.1271 148.074 39.9164C147.848 39.6994 147.667 39.428 147.531 39.1024C147.396 38.7768 147.328 38.3969 147.328 37.9628V37.7712C147.328 37.3626 147.396 37.0019 147.531 36.689C147.667 36.3762 147.848 36.1176 148.074 35.9133C148.301 35.7026 148.562 35.5462 148.86 35.4441C149.157 35.3355 149.471 35.2812 149.8 35.2812C150.13 35.2812 150.443 35.3355 150.741 35.4441C151.038 35.5462 151.3 35.7026 151.526 35.9133C151.752 36.1176 151.933 36.3762 152.069 36.689C152.205 37.0019 152.273 37.3626 152.273 37.7712V37.9628C152.273 38.3969 152.205 38.7768 152.069 39.1024C151.933 39.428 151.752 39.6994 151.526 39.9164C151.3 40.1271 151.038 40.2867 150.741 40.3953C150.443 40.4974 150.13 40.5485 149.8 40.5485ZM149.8 39.7824C149.994 39.7824 150.188 39.7504 150.382 39.6866C150.576 39.6164 150.747 39.511 150.896 39.3705C151.045 39.2237 151.164 39.0354 151.255 38.8055C151.352 38.5757 151.4 38.2948 151.4 37.9628V37.7712C151.4 37.4648 151.352 37.203 151.255 36.9859C151.164 36.7688 151.045 36.5901 150.896 36.4496C150.747 36.3092 150.576 36.207 150.382 36.1432C150.188 36.0793 149.994 36.0474 149.8 36.0474C149.606 36.0474 149.412 36.0793 149.218 36.1432C149.024 36.207 148.853 36.3092 148.705 36.4496C148.556 36.5901 148.433 36.7688 148.336 36.9859C148.246 37.203 148.2 37.4648 148.2 37.7712V37.9628C148.2 38.2948 148.246 38.5757 148.336 38.8055C148.433 39.0354 148.556 39.2237 148.705 39.3705C148.853 39.511 149.024 39.6164 149.218 39.6866C149.412 39.7504 149.606 39.7824 149.8 39.7824Z" fill="#B3B7CE"/>
<path d="M141.216 39.7062H141.847C141.918 39.6104 141.982 39.4635 142.04 39.2656C142.099 39.0677 142.15 38.8347 142.196 38.5665C142.241 38.2984 142.273 38.0079 142.293 37.695C142.318 37.3758 142.331 37.0502 142.331 36.7182V35.3774H145.919V39.7062H146.646V41.6503H145.832V40.4532H142.031V41.6503H141.216V39.7062ZM145.066 39.7062V36.1244H143.165V36.9097C143.165 37.1779 143.156 37.446 143.136 37.7142C143.117 37.976 143.088 38.2281 143.049 38.4708C143.01 38.707 142.962 38.9336 142.903 39.1507C142.852 39.3614 142.79 39.5465 142.719 39.7062H145.066Z" fill="#B3B7CE"/>
<path d="M133.455 35.3768H134.308V39.2075L136.965 35.3768H137.818V40.4525H136.965V36.6217L134.308 40.4525H133.455V35.3768ZM135.637 34.7543C135.133 34.7543 134.764 34.6489 134.531 34.4382C134.299 34.2212 134.182 33.9115 134.182 33.5093H135.016C135.016 33.9434 135.223 34.1605 135.637 34.1605C136.063 34.1605 136.277 33.9434 136.277 33.5093H137.091C137.091 33.9115 136.975 34.2212 136.742 34.4382C136.509 34.6489 136.141 34.7543 135.637 34.7543Z" fill="#B3B7CE"/>
<path d="M129.964 40.5485C129.634 40.5485 129.321 40.4974 129.023 40.3953C128.726 40.2931 128.464 40.1367 128.238 39.926C128.012 39.7089 127.831 39.4376 127.695 39.112C127.559 38.7864 127.491 38.4033 127.491 37.9628V37.7712C127.491 37.3498 127.556 36.9859 127.685 36.6795C127.814 36.3666 127.986 36.108 128.199 35.9037C128.419 35.6931 128.671 35.5366 128.955 35.4345C129.246 35.3323 129.55 35.2812 129.867 35.2812C130.623 35.2812 131.208 35.4856 131.622 35.8942C132.036 36.3028 132.242 36.8806 132.242 37.6276V38.1639H128.344C128.344 38.4639 128.393 38.7161 128.49 38.9204C128.587 39.1247 128.713 39.2907 128.868 39.4184C129.023 39.5461 129.195 39.6387 129.382 39.6962C129.576 39.7536 129.77 39.7824 129.964 39.7824C130.352 39.7824 130.649 39.7185 130.856 39.5908C131.069 39.4631 131.221 39.2875 131.312 39.0641H132.145C132.094 39.3067 132 39.5206 131.864 39.7057C131.735 39.8909 131.573 40.0473 131.379 40.175C131.192 40.2963 130.975 40.3889 130.73 40.4527C130.491 40.5166 130.235 40.5485 129.964 40.5485ZM129.915 36.0474C129.715 36.0474 129.521 36.0761 129.334 36.1336C129.146 36.1847 128.978 36.2709 128.829 36.3922C128.687 36.5071 128.571 36.6539 128.48 36.8327C128.39 37.0115 128.344 37.2253 128.344 37.4743H131.438C131.431 37.2126 131.386 36.9923 131.302 36.8135C131.224 36.6284 131.118 36.4815 130.982 36.373C130.846 36.2581 130.685 36.1751 130.497 36.124C130.316 36.0729 130.122 36.0474 129.915 36.0474Z" fill="#B3B7CE"/>
<path d="M124.15 40.5485C123.821 40.5485 123.507 40.4974 123.21 40.3953C122.912 40.2867 122.651 40.1271 122.424 39.9164C122.198 39.6994 122.017 39.428 121.881 39.1024C121.746 38.7768 121.678 38.3969 121.678 37.9628V37.7712C121.678 37.3626 121.746 37.0019 121.881 36.689C122.017 36.3762 122.198 36.1176 122.424 35.9133C122.651 35.7026 122.912 35.5462 123.21 35.4441C123.507 35.3355 123.821 35.2812 124.15 35.2812C124.48 35.2812 124.793 35.3355 125.091 35.4441C125.388 35.5462 125.65 35.7026 125.876 35.9133C126.102 36.1176 126.283 36.3762 126.419 36.689C126.555 37.0019 126.623 37.3626 126.623 37.7712V37.9628C126.623 38.3969 126.555 38.7768 126.419 39.1024C126.283 39.428 126.102 39.6994 125.876 39.9164C125.65 40.1271 125.388 40.2867 125.091 40.3953C124.793 40.4974 124.48 40.5485 124.15 40.5485ZM124.15 39.7824C124.344 39.7824 124.538 39.7504 124.732 39.6866C124.926 39.6164 125.097 39.511 125.246 39.3705C125.395 39.2237 125.514 39.0354 125.605 38.8055C125.702 38.5757 125.75 38.2948 125.75 37.9628V37.7712C125.75 37.4648 125.702 37.203 125.605 36.9859C125.514 36.7688 125.395 36.5901 125.246 36.4496C125.097 36.3092 124.926 36.207 124.732 36.1432C124.538 36.0793 124.344 36.0474 124.15 36.0474C123.956 36.0474 123.762 36.0793 123.569 36.1432C123.375 36.207 123.203 36.3092 123.055 36.4496C122.906 36.5901 122.783 36.7688 122.686 36.9859C122.596 37.203 122.55 37.4648 122.55 37.7712V37.9628C122.55 38.2948 122.596 38.5757 122.686 38.8055C122.783 39.0354 122.906 39.2237 123.055 39.3705C123.203 39.511 123.375 39.6164 123.569 39.6866C123.762 39.7504 123.956 39.7824 124.15 39.7824Z" fill="#B3B7CE"/>
<path d="M116.534 35.3774H118.764C119.397 35.3774 119.863 35.5083 120.16 35.7701C120.457 36.0255 120.606 36.3575 120.606 36.7661C120.606 36.8746 120.587 36.9863 120.548 37.1013C120.509 37.2098 120.454 37.312 120.383 37.4077C120.318 37.5035 120.238 37.5865 120.141 37.6567C120.05 37.727 119.947 37.7812 119.83 37.8195C120.147 37.8961 120.386 38.043 120.548 38.2601C120.716 38.4708 120.8 38.7197 120.8 39.0071C120.8 39.4476 120.651 39.7987 120.354 40.0605C120.057 40.3223 119.591 40.4532 118.958 40.4532H116.534V35.3774ZM118.958 39.7062C119.32 39.7062 119.575 39.6423 119.724 39.5146C119.872 39.3869 119.947 39.205 119.947 38.9687C119.947 38.7261 119.872 38.541 119.724 38.4133C119.575 38.2792 119.32 38.2122 118.958 38.2122H117.387V39.7062H118.958ZM118.764 37.5226C119.132 37.5226 119.388 37.4588 119.53 37.3311C119.679 37.2034 119.753 37.0278 119.753 36.8044C119.753 36.5937 119.679 36.4277 119.53 36.3064C119.388 36.1851 119.132 36.1244 118.764 36.1244H117.387V37.5226H118.764Z" fill="#B3B7CE"/>
<path d="M113.237 40.5485C112.907 40.5485 112.6 40.4974 112.316 40.3953C112.031 40.2867 111.786 40.1271 111.579 39.9164C111.372 39.6994 111.207 39.428 111.084 39.1024C110.968 38.7768 110.91 38.3969 110.91 37.9628V37.7712C110.91 37.3626 110.974 37.0019 111.104 36.689C111.233 36.3762 111.404 36.1176 111.618 35.9133C111.831 35.7026 112.076 35.5462 112.354 35.4441C112.639 35.3355 112.933 35.2812 113.237 35.2812C113.541 35.2812 113.812 35.3227 114.051 35.4057C114.297 35.4887 114.507 35.6037 114.682 35.7505C114.863 35.8974 115.008 36.0697 115.118 36.2677C115.234 36.4656 115.318 36.6795 115.37 36.9093H114.497C114.446 36.788 114.384 36.6763 114.313 36.5741C114.248 36.4656 114.164 36.373 114.061 36.2964C113.964 36.2198 113.848 36.1591 113.712 36.1144C113.576 36.0697 113.418 36.0474 113.237 36.0474C113.049 36.0474 112.868 36.0825 112.694 36.1527C112.519 36.2166 112.364 36.3187 112.228 36.4592C112.093 36.5933 111.983 36.7688 111.899 36.9859C111.821 37.203 111.782 37.4648 111.782 37.7712V37.9628C111.782 38.2884 111.821 38.5693 111.899 38.8055C111.983 39.0354 112.093 39.2237 112.228 39.3705C112.364 39.511 112.519 39.6164 112.694 39.6866C112.868 39.7504 113.049 39.7824 113.237 39.7824C113.554 39.7824 113.819 39.7057 114.032 39.5525C114.252 39.3993 114.407 39.1886 114.497 38.9204H115.37C115.247 39.4248 114.995 39.8239 114.614 40.1175C114.232 40.4048 113.773 40.5485 113.237 40.5485Z" fill="#B3B7CE"/>
<path d="M103.732 35.3774H104.585V37.2928H105.817C106.463 37.2928 106.938 37.4333 107.242 37.7142C107.552 37.9951 107.707 38.3846 107.707 38.8826C107.707 39.3678 107.552 39.7509 107.242 40.0318C106.938 40.3127 106.463 40.4532 105.817 40.4532H103.732V35.3774ZM105.768 39.7062C106.169 39.7062 106.45 39.6359 106.612 39.4955C106.773 39.355 106.854 39.1475 106.854 38.873C106.854 38.5984 106.773 38.3909 106.612 38.2505C106.45 38.11 106.169 38.0398 105.768 38.0398H104.585V39.7062H105.768Z" fill="#B3B7CE"/>
<path d="M100.436 40.5485C100.106 40.5485 99.7988 40.4974 99.5144 40.3953C99.2299 40.2867 98.9843 40.1271 98.7774 39.9164C98.5706 39.6994 98.4058 39.428 98.2829 39.1024C98.1666 38.7768 98.1084 38.3969 98.1084 37.9628V37.7712C98.1084 37.3626 98.173 37.0019 98.3023 36.689C98.4316 36.3762 98.6029 36.1176 98.8162 35.9133C99.0296 35.7026 99.2752 35.5462 99.5532 35.4441C99.8376 35.3355 100.132 35.2812 100.436 35.2812C100.739 35.2812 101.011 35.3227 101.25 35.4057C101.496 35.4887 101.706 35.6037 101.88 35.7505C102.061 35.8974 102.207 36.0697 102.317 36.2677C102.433 36.4656 102.517 36.6795 102.569 36.9093H101.696C101.644 36.788 101.583 36.6763 101.512 36.5741C101.447 36.4656 101.363 36.373 101.26 36.2964C101.163 36.2198 101.046 36.1591 100.911 36.1144C100.775 36.0697 100.617 36.0474 100.436 36.0474C100.248 36.0474 100.067 36.0825 99.8925 36.1527C99.718 36.2166 99.5628 36.3187 99.4271 36.4592C99.2914 36.5933 99.1815 36.7688 99.0974 36.9859C99.0199 37.203 98.9811 37.4648 98.9811 37.7712V37.9628C98.9811 38.2884 99.0199 38.5693 99.0974 38.8055C99.1815 39.0354 99.2914 39.2237 99.4271 39.3705C99.5628 39.511 99.718 39.6164 99.8925 39.6866C100.067 39.7504 100.248 39.7824 100.436 39.7824C100.752 39.7824 101.017 39.7057 101.231 39.5525C101.45 39.3993 101.606 39.1886 101.696 38.9204H102.569C102.446 39.4248 102.194 39.8239 101.812 40.1175C101.431 40.4048 100.972 40.5485 100.436 40.5485Z" fill="#B3B7CE"/>
<path d="M92.5298 35.3774H93.3831V39.2082L96.0399 35.3774H96.8931V40.4532H96.0399V36.6224L93.3831 40.4532H92.5298V35.3774Z" fill="#B3B7CE"/>
<path d="M86.6161 40.5489C86.5191 40.5489 86.4222 40.5393 86.3252 40.5202V39.6774C86.3575 39.6838 86.406 39.687 86.4706 39.687C86.6129 39.687 86.7357 39.6423 86.8391 39.5529C86.949 39.4635 87.0363 39.3071 87.1009 39.0837C87.1655 38.8602 87.214 38.5569 87.2463 38.1739C87.2787 37.7908 87.2948 37.3056 87.2948 36.7182V35.3774H90.9794V40.4532H90.1262V36.1244H88.1481V36.9097C88.1481 37.6184 88.1158 38.2058 88.0511 38.6719C87.9865 39.1379 87.8895 39.5114 87.7603 39.7924C87.6374 40.0669 87.4791 40.2616 87.2851 40.3765C87.0912 40.4915 86.8682 40.5489 86.6161 40.5489Z" fill="#B3B7CE"/>
<path d="M83.4613 40.5485C83.1317 40.5485 82.8181 40.4974 82.5208 40.3953C82.2234 40.2931 81.9616 40.1367 81.7354 39.926C81.5091 39.7089 81.3281 39.4376 81.1924 39.112C81.0566 38.7864 80.9888 38.4033 80.9888 37.9628V37.7712C80.9888 37.3498 81.0534 36.9859 81.1827 36.6795C81.312 36.3666 81.4833 36.108 81.6966 35.9037C81.9164 35.6931 82.1685 35.5366 82.4529 35.4345C82.7438 35.3323 83.0476 35.2812 83.3644 35.2812C84.1207 35.2812 84.7057 35.4856 85.1194 35.8942C85.5331 36.3028 85.74 36.8806 85.74 37.6276V38.1639H81.842C81.842 38.4639 81.8905 38.7161 81.9875 38.9204C82.0845 39.1247 82.2105 39.2907 82.3656 39.4184C82.5208 39.5461 82.6921 39.6387 82.8796 39.6962C83.0735 39.7536 83.2674 39.7824 83.4613 39.7824C83.8492 39.7824 84.1465 39.7185 84.3534 39.5908C84.5667 39.4631 84.7186 39.2875 84.8091 39.0641H85.643C85.5913 39.3067 85.4976 39.5206 85.3618 39.7057C85.2325 39.8909 85.0709 40.0473 84.877 40.175C84.6895 40.2963 84.473 40.3889 84.2273 40.4527C83.9882 40.5166 83.7328 40.5485 83.4613 40.5485ZM83.4129 36.0474C83.2125 36.0474 83.0185 36.0761 82.8311 36.1336C82.6436 36.1847 82.4755 36.2709 82.3269 36.3922C82.1846 36.5071 82.0683 36.6539 81.9778 36.8327C81.8873 37.0115 81.842 37.2253 81.842 37.4743H84.9352C84.9287 37.2126 84.8835 36.9923 84.7994 36.8135C84.7219 36.6284 84.6152 36.4815 84.4794 36.373C84.3437 36.2581 84.1821 36.1751 83.9946 36.124C83.8136 36.0729 83.6197 36.0474 83.4129 36.0474Z" fill="#B3B7CE"/>
<path d="M74.876 39.7062H75.5062C75.5773 39.6104 75.642 39.4635 75.7002 39.2656C75.7583 39.0677 75.8101 38.8347 75.8553 38.5665C75.9006 38.2984 75.9329 38.0079 75.9523 37.695C75.9781 37.3758 75.9911 37.0502 75.9911 36.7182V35.3774H79.5787V39.7062H80.3059V41.6503H79.4914V40.4532H75.6905V41.6503H74.876V39.7062ZM78.7254 39.7062V36.1244H76.8249V36.9097C76.8249 37.1779 76.8152 37.446 76.7958 37.7142C76.7765 37.976 76.7474 38.2281 76.7086 38.4708C76.6698 38.707 76.6213 38.9336 76.5631 39.1507C76.5114 39.3614 76.45 39.5465 76.3789 39.7062H78.7254Z" fill="#B3B7CE"/>
<path d="M71.8705 40.5485C71.5408 40.5485 71.2273 40.4974 70.93 40.3953C70.6326 40.2867 70.3708 40.1271 70.1446 39.9164C69.9183 39.6994 69.7373 39.428 69.6016 39.1024C69.4658 38.7768 69.3979 38.3969 69.3979 37.9628V37.7712C69.3979 37.3626 69.4658 37.0019 69.6016 36.689C69.7373 36.3762 69.9183 36.1176 70.1446 35.9133C70.3708 35.7026 70.6326 35.5462 70.93 35.4441C71.2273 35.3355 71.5408 35.2812 71.8705 35.2812C72.2002 35.2812 72.5137 35.3355 72.8111 35.4441C73.1084 35.5462 73.3702 35.7026 73.5965 35.9133C73.8227 36.1176 74.0037 36.3762 74.1395 36.689C74.2752 37.0019 74.3431 37.3626 74.3431 37.7712V37.9628C74.3431 38.3969 74.2752 38.7768 74.1395 39.1024C74.0037 39.428 73.8227 39.6994 73.5965 39.9164C73.3702 40.1271 73.1084 40.2867 72.8111 40.3953C72.5137 40.4974 72.2002 40.5485 71.8705 40.5485ZM71.8705 39.7824C72.0644 39.7824 72.2584 39.7504 72.4523 39.6866C72.6462 39.6164 72.8175 39.511 72.9662 39.3705C73.1149 39.2237 73.2345 39.0354 73.325 38.8055C73.4219 38.5757 73.4704 38.2948 73.4704 37.9628V37.7712C73.4704 37.4648 73.4219 37.203 73.325 36.9859C73.2345 36.7688 73.1149 36.5901 72.9662 36.4496C72.8175 36.3092 72.6462 36.207 72.4523 36.1432C72.2584 36.0793 72.0644 36.0474 71.8705 36.0474C71.6766 36.0474 71.4827 36.0793 71.2887 36.1432C71.0948 36.207 70.9235 36.3092 70.7748 36.4496C70.6262 36.5901 70.5033 36.7688 70.4064 36.9859C70.3159 37.203 70.2706 37.4648 70.2706 37.7712V37.9628C70.2706 38.2948 70.3159 38.5757 70.4064 38.8055C70.5033 39.0354 70.6262 39.2237 70.7748 39.3705C70.9235 39.511 71.0948 39.6164 71.2887 39.6866C71.4827 39.7504 71.6766 39.7824 71.8705 39.7824Z" fill="#B3B7CE"/>
<path d="M62.6592 33.7495H67.9922V40.4533H67.0807V34.5348H63.5706V40.4533H62.6592V33.7495Z" fill="#B3B7CE"/>
<defs>
<linearGradient id="paint0_linear_1786_35970" x1="-0.00146484" y1="25.0089" x2="48.7954" y2="25.0089" gradientUnits="userSpaceOnUse">
<stop stop-color="#FF512F"/>
<stop offset="1" stop-color="#F09819"/>
</linearGradient>
<clipPath id="clip0_1786_35970">
<rect width="48.7964" height="50" fill="white"/>
</clipPath>
</defs>
</svg>
