<svg width="143" height="32" viewBox="0 0 143 32" fill="none" xmlns="http://www.w3.org/2000/svg">
<g clip-path="url(#clip0_2163_11234)">
<path d="M19.9799 9.29671C18.6679 10.1195 18.5149 10.2958 17.656 11.0716C17.6207 11.1068 17.5795 11.148 17.5265 11.1127C17.4677 11.0774 17.4618 11.0128 17.4736 10.954C17.7795 9.37899 18.4326 8.05668 19.2151 7.09873C20.1388 5.97036 21.4802 4.97128 21.2448 4.75971C21.186 4.70682 21.1095 4.72445 21.0448 4.75383C20.833 4.85374 20.6153 4.95365 20.4035 5.06531C19.9211 5.3239 19.5092 5.67651 19.0856 6.01738C19.0503 6.04676 19.015 6.10553 18.9562 6.07027C18.9091 6.04676 18.9209 5.98799 18.9209 5.94685C18.9091 5.07119 18.9856 4.22491 18.662 4.45411C18.3737 4.65392 18.2737 5.28276 18.2502 5.63537C18.2208 6.02913 18.1443 6.41701 18.2325 6.81076C18.2796 7.02821 18.2031 7.22215 18.0855 7.39846C17.9031 7.68643 17.7501 7.99203 17.5913 8.29176C16.6793 10.0372 16.1734 11.8003 16.0263 13.3224C15.9204 14.392 15.8968 15.538 16.597 16.3608C16.9735 16.8016 16.7617 16.9485 16.6852 17.1483C16.5793 17.4128 16.1381 18.4412 16.1498 18.5941C16.1498 18.5941 16.1498 19.5873 16.1734 28.1088C16.1734 28.1794 16.1557 28.2558 16.2087 28.3263C16.2793 28.2734 16.3204 28.2087 16.3616 28.15C17.7795 26.1459 22.345 22.2495 22.3332 22.179C22.4038 22.1907 22.445 22.1379 22.4862 22.0967C26.0104 18.7997 28.5755 15.8436 29.3756 11.1421C29.4815 10.5191 29.5051 9.06164 29.3698 8.31526C28.4461 3.08478 23.2569 -0.0770224 18.2149 1.53326C17.5265 1.75659 16.8735 2.0857 16.2087 2.37367C16.1851 2.36779 16.1616 2.35016 16.1498 2.3913L16.1557 2.39717L16.1616 2.3913C16.291 2.35604 19.4092 -0.735241 23.5629 0.169809C30.2346 1.62729 33.5352 9.46127 28.499 17.3423C24.9102 22.9547 17.9325 26.7748 16.0851 30.6007C16.0557 30.6594 15.938 30.8828 15.5144 31.923C15.4968 31.9641 15.485 32.0053 15.4379 32.0053C15.3026 31.9994 15.2614 31.4763 14.8555 30.6477C14.832 30.6007 14.6025 30.154 14.5672 30.0835C11.6608 25.1292 1.38846 20.5276 0.111769 11.1773C0.0705853 10.8776 0.0823521 10.5779 0.0411685 10.284C-0.0764989 9.37899 0.0411685 7.64529 0.558905 6.22895C1.27079 4.2778 2.44747 2.7733 3.73004 1.80948C5.51858 0.45778 7.54834 -0.0770225 9.10155 0.0405165C11.0548 0.18744 12.3256 0.604704 14.2201 1.98579C14.3083 2.05043 14.426 2.09745 14.4848 2.24437C13.7729 1.96816 12.8669 1.47449 11.3843 1.22178C10.943 1.14538 10.49 1.12775 10.037 1.13363C4.19483 1.13951 -0.211816 6.82839 2.07681 13.2108C3.30644 16.6488 4.89495 18.5823 7.52481 21.1975C8.35437 22.0262 9.24864 22.7784 10.1311 23.5483C14.7378 27.5623 14.2907 28.1265 14.6319 28.3145C14.7555 28.1382 14.6908 24.089 14.7319 19.8047C14.7378 18.8879 14.5437 18.024 14.1965 17.1895C14.0789 16.9015 14.0671 16.684 14.2848 16.4255C14.8673 15.7379 14.9732 14.8916 14.9437 14.0335C14.9261 13.4576 14.8555 12.8875 14.7319 12.3233C13.8259 8.08019 12.5845 7.80397 12.6904 6.74024C12.7492 6.11728 12.7316 5.4767 12.5021 4.87725C12.4551 4.74795 12.3727 4.37183 12.1609 4.4306C12.1021 4.44823 12.108 4.49525 12.1021 4.54226C11.9668 5.25925 12.1197 5.43556 11.955 6.19368C11.8844 6.11728 11.8314 6.05264 11.7667 5.99974C11.3313 5.64125 10.39 4.84786 9.83697 4.71857C9.76637 4.70094 9.68401 4.68919 9.63694 4.75383C9.34866 5.14759 11.2019 6.05264 12.4668 8.22123C13.0375 9.20268 13.82 11.6005 13.2376 11.048C13.1552 10.9716 13.0846 10.8894 13.0022 10.8071C12.4668 10.2664 11.8373 9.8609 11.1901 9.4789C9.0839 8.23886 8.59558 6.5463 8.40732 5.46494C8.21905 4.39534 8.17786 3.45502 8.10138 2.9261C8.08373 2.79093 8.13668 2.73216 8.27788 2.73804C9.74284 2.78505 11.4137 2.82619 12.8081 3.83115C14.0495 4.73032 14.8673 5.89396 15.3379 7.76283C15.3615 7.85686 15.3497 8.01554 15.4791 8.01554C15.5791 8.01554 15.5968 7.86274 15.6203 7.76871C15.7851 7.19277 15.9674 6.6227 16.2322 6.0879C16.697 5.14759 17.3677 4.38358 18.209 3.7665C19.0327 3.16705 22.0567 2.72041 22.598 2.73804C22.7921 2.74391 22.8039 2.75567 22.8098 2.94373C22.8157 3.6666 22.7451 4.38358 22.6451 5.10057C22.4391 6.48166 21.6096 8.28 19.9799 9.29671Z" fill="#F25822"/>
<path d="M13.973 15.0852C13.9494 15.3438 13.8906 15.6024 13.7317 15.8198C13.62 15.9667 13.5905 15.9667 13.4905 15.8022C13.2552 15.4084 12.9904 15.0323 12.7022 14.6738C12.3021 14.1919 11.8491 13.757 11.3666 13.3574C11.2078 13.2281 11.1019 13.0753 11.0607 12.8696C10.9842 12.5052 10.8901 12.1467 10.7077 11.8176C10.6077 11.6354 10.49 11.465 10.3194 11.3475C10.1605 11.2417 10.0899 11.2828 10.0841 11.4709C10.0841 11.5355 10.0899 11.6002 10.0899 11.6707C10.0782 11.8588 10.137 12.0409 10.1547 12.229C10.1605 12.3289 10.1252 12.3759 10.0193 12.3348C9.98404 12.323 9.94874 12.3172 9.91933 12.2995C9.57221 12.1644 9.23097 12.0057 8.88385 11.8764C8.74854 11.8235 8.60734 11.8294 8.4779 11.7647C8.20727 11.6413 7.93075 11.5767 7.6307 11.6472C7.60128 11.6531 7.55421 11.6472 7.54833 11.6942C7.54245 11.7353 7.57186 11.753 7.60128 11.7765C7.72483 11.8705 7.86603 11.9352 7.99546 12.0233C8.48378 12.3583 8.98975 12.6756 9.48984 12.993C9.81931 13.1928 10.1841 13.3221 10.5135 13.5102C11.4137 14.0273 12.0432 14.8207 12.5963 15.6788C12.708 15.8492 12.7492 16.0549 12.8904 16.2136L12.8845 16.2606C12.5257 16.2547 12.1668 16.2547 11.8079 16.2312C11.1136 16.1783 10.4429 16.049 9.78989 15.8022C8.5132 15.3203 7.51891 14.4975 6.81291 13.3339C6.51874 12.8461 6.27752 12.3348 6.06572 11.8059C5.91864 11.4474 5.73625 11.1065 5.55975 10.7598C5.52445 10.6892 5.46562 10.6187 5.59505 10.5482C6.07749 10.2896 6.57757 10.0898 7.10708 9.95462C7.47185 9.86059 7.84838 9.80182 8.22492 9.7548C8.95445 9.66077 9.66634 9.74893 10.3547 9.984C10.9666 10.1956 11.502 10.5423 12.0079 10.9361C12.5433 11.3475 13.0316 11.8117 13.4023 12.3877C13.9553 13.3691 14.0318 14.4329 13.973 15.0852Z" fill="#F25822"/>
<path d="M18.1972 16.2728C18.109 16.2728 18.0501 16.2376 18.1031 16.1318C18.6149 15.1503 19.2915 14.2982 20.1917 13.6399C20.4506 13.4519 20.7624 13.3696 21.0507 13.2286C21.6096 12.9523 22.1038 12.5821 22.6333 12.253C22.8451 12.1237 23.0569 12.0003 23.2687 11.871C23.3452 11.824 23.457 11.7711 23.4334 11.677C23.404 11.5595 23.2805 11.6065 23.1981 11.6065C22.7627 11.63 22.345 11.7593 21.939 11.918C21.5684 12.059 21.1919 12.1942 20.8389 12.3823C20.8094 12.3999 20.7683 12.4352 20.7271 12.3999C20.68 12.3646 20.7035 12.3176 20.7094 12.2706C20.7565 11.9591 20.8153 11.6535 20.8094 11.3362C20.8094 11.2774 20.8271 11.2069 20.7506 11.1775C20.68 11.1481 20.6212 11.1893 20.5741 11.2363C20.027 11.7652 19.9328 12.3294 19.821 12.97C19.7857 13.1639 19.6269 13.2756 19.4916 13.3872C18.6502 14.0748 17.9795 14.9035 17.4089 15.8262C17.3088 15.9907 17.2559 15.9966 17.1382 15.832C16.9441 15.5558 16.8735 15.2326 16.8558 14.9035C16.7852 13.5694 17.303 12.4763 18.2208 11.5478C19.4151 10.3371 20.8271 9.79054 21.9037 9.76703C22.398 9.75528 22.898 9.73765 23.3864 9.83756C24.2218 10.008 24.9866 10.3312 25.3455 10.5604C25.4279 10.6133 25.4514 10.6603 25.4044 10.7544C24.6983 12.1766 24.0688 14.8153 20.8506 15.9084C19.9093 16.2376 19.1445 16.2963 18.1972 16.2728Z" fill="#F25822"/>
</g>
<path d="M133.252 7.24307H135.966V8.61636C136.221 8.17131 136.616 7.78984 137.151 7.47195C137.699 7.15406 138.425 6.99512 139.33 6.99512C140.541 6.99512 141.452 7.32572 142.063 7.98693C142.688 8.63543 143 9.56367 143 10.7717V17.352H140.056V11.4392C140.056 10.778 139.91 10.2821 139.617 9.9515C139.337 9.60817 138.871 9.43651 138.222 9.43651C137.865 9.43651 137.559 9.49373 137.304 9.60817C137.049 9.7099 136.839 9.84977 136.673 10.0278C136.508 10.2058 136.387 10.422 136.31 10.6763C136.234 10.9179 136.196 11.1722 136.196 11.4392V17.352H133.252V7.24307Z" fill="#09093F"/>
<path d="M126.128 17.6C124.968 17.6 124.083 17.2694 123.471 16.6082C122.86 15.947 122.554 14.9425 122.554 13.5946V7.24316H125.497V13.1368C125.497 13.7981 125.631 14.3003 125.899 14.6436C126.179 14.987 126.625 15.1586 127.237 15.1586C127.899 15.1586 128.383 14.9679 128.689 14.5864C129.008 14.1922 129.167 13.709 129.167 13.1368V7.24316H132.111V17.3521H129.396V15.9788C129.142 16.4238 128.74 16.8053 128.192 17.1232C127.644 17.4411 126.956 17.6 126.128 17.6Z" fill="#09093F"/>
<path d="M111.841 4H114.785V8.5204C114.887 8.35509 115.027 8.18343 115.205 8.00542C115.384 7.8274 115.6 7.66209 115.855 7.50951C116.123 7.35692 116.428 7.23612 116.772 7.14711C117.117 7.04539 117.499 6.99452 117.919 6.99452C119.13 6.99452 120.041 7.32513 120.653 7.98634C121.277 8.63484 121.589 9.55672 121.589 10.752V17.3514H118.646V11.4386C118.646 10.7774 118.499 10.2815 118.206 9.9509C117.926 9.60758 117.461 9.43592 116.811 9.43592C116.097 9.43592 115.581 9.62666 115.263 10.0081C114.944 10.3896 114.785 10.8664 114.785 11.4386V17.3514H111.841V4Z" fill="#09093F"/>
<path d="M106.39 17.5999C105.638 17.5999 104.944 17.4919 104.307 17.2757C103.682 17.0595 103.141 16.7353 102.682 16.3029C102.223 15.8706 101.867 15.3302 101.612 14.6817C101.357 14.0332 101.229 13.2703 101.229 12.3929V12.0114C101.229 11.2103 101.363 10.4983 101.631 9.8752C101.911 9.25214 102.281 8.7308 102.739 8.31118C103.211 7.87885 103.759 7.5546 104.383 7.33844C105.008 7.10956 105.677 6.99512 106.39 6.99512C107.155 6.99512 107.824 7.09684 108.397 7.30029C108.983 7.50374 109.474 7.78349 109.869 8.13952C110.264 8.48284 110.57 8.88974 110.786 9.36022C111.003 9.8307 111.13 10.333 111.169 10.867H108.149C108.047 10.4093 107.855 10.0596 107.575 9.81798C107.308 9.56367 106.913 9.43651 106.39 9.43651C105.766 9.43651 105.25 9.65268 104.842 10.085C104.447 10.5046 104.249 11.1468 104.249 12.0114V12.3929C104.249 13.3338 104.441 14.0268 104.823 14.4719C105.218 14.9169 105.74 15.1395 106.39 15.1395C106.836 15.1395 107.212 15.025 107.518 14.7961C107.836 14.5545 108.047 14.1985 108.149 13.728H111.169C111.13 14.3257 110.99 14.8661 110.748 15.3493C110.506 15.8197 110.175 16.2203 109.754 16.5509C109.346 16.8815 108.856 17.1422 108.282 17.3329C107.722 17.5109 107.091 17.5999 106.39 17.5999Z" fill="#09093F"/>
<path d="M94.4353 17.5993C93.5434 17.5993 92.7342 17.4849 92.0079 17.256C91.2943 17.0144 90.6827 16.6647 90.173 16.207C89.6761 15.7365 89.2874 15.1516 89.0071 14.4522C88.7395 13.7529 88.6057 12.9391 88.6057 12.0108V4H92.0461V11.6103C92.0461 12.6403 92.2245 13.4223 92.5813 13.9563C92.9381 14.4777 93.5561 14.7383 94.4353 14.7383C95.34 14.7383 95.9644 14.4777 96.3085 13.9563C96.6525 13.4223 96.8245 12.6466 96.8245 11.6294V4H100.265V12.0108C100.265 12.9391 100.131 13.7529 99.8636 14.4522C99.596 15.1516 99.2073 15.7365 98.6976 16.207C98.2007 16.6647 97.5891 17.0144 96.8627 17.256C96.1492 17.4849 95.34 17.5993 94.4353 17.5993Z" fill="#09093F"/>
<path d="M73.5926 7.24307H76.3067V8.61636C76.5616 8.17131 76.9566 7.78984 77.4917 7.47195C78.0397 7.15406 78.766 6.99512 79.6707 6.99512C80.8812 6.99512 81.7923 7.32572 82.4039 7.98693C83.0283 8.63543 83.3405 9.56367 83.3405 10.7717V17.352H80.397V11.4392C80.397 10.778 80.2505 10.2821 79.9574 9.9515C79.677 9.60817 79.212 9.43651 78.5621 9.43651C78.2053 9.43651 77.8995 9.49373 77.6446 9.60817C77.3898 9.7099 77.1796 9.84977 77.0139 10.0278C76.8483 10.2058 76.7272 10.422 76.6507 10.6763C76.5743 10.9179 76.5361 11.1722 76.5361 11.4392V17.352H73.5926V7.24307Z" fill="#09093F"/>
<path d="M67.6749 17.5999C66.9614 17.5999 66.2924 17.4982 65.668 17.2948C65.0436 17.0786 64.4957 16.7543 64.0242 16.322C63.5528 15.8897 63.1833 15.3493 62.9157 14.7008C62.6481 14.0396 62.5143 13.2703 62.5143 12.3929V12.0114C62.5143 11.1849 62.6481 10.4601 62.9157 9.83706C63.1833 9.21399 63.5528 8.69265 64.0242 8.27304C64.4957 7.85342 65.0436 7.53553 65.668 7.31937C66.2924 7.1032 66.9614 6.99512 67.6749 6.99512C68.3885 6.99512 69.0575 7.1032 69.6818 7.31937C70.3062 7.53553 70.8541 7.85342 71.3256 8.27304C71.7971 8.69265 72.1666 9.21399 72.4342 9.83706C72.7018 10.4601 72.8356 11.1849 72.8356 12.0114V12.3929C72.8356 13.2576 72.7018 14.0205 72.4342 14.6817C72.1666 15.3302 71.7971 15.8706 71.3256 16.3029C70.8541 16.7353 70.3062 17.0595 69.6818 17.2757C69.0575 17.4919 68.3885 17.5999 67.6749 17.5999ZM67.6749 15.1585C68.363 15.1585 68.8918 14.9106 69.2613 14.4147C69.6309 13.9188 69.8156 13.2448 69.8156 12.3929V12.0114C69.8156 11.2485 69.6309 10.6318 69.2613 10.1613C68.8918 9.67811 68.363 9.43651 67.6749 9.43651C66.9868 9.43651 66.458 9.67811 66.0885 10.1613C65.719 10.6318 65.5342 11.2485 65.5342 12.0114V12.3929C65.5342 13.2703 65.719 13.9506 66.0885 14.4337C66.458 14.9169 66.9868 15.1585 67.6749 15.1585Z" fill="#09093F"/>
<path d="M57.3618 17.5999C56.5336 17.5999 55.82 17.5173 55.2211 17.352C54.6349 17.174 54.1507 16.9387 53.7685 16.6463C53.3862 16.3411 53.0995 15.9914 52.9084 15.5972C52.7172 15.1903 52.6089 14.758 52.5834 14.3002H55.5269C55.6034 14.5927 55.769 14.8406 56.0239 15.0441C56.2787 15.2475 56.7247 15.3493 57.3618 15.3493C58.0117 15.3493 58.4768 15.2603 58.7571 15.0822C59.0502 14.9042 59.1967 14.669 59.1967 14.3765C59.1967 14.2621 59.1648 14.1604 59.1011 14.0714C59.0374 13.9696 58.9164 13.8806 58.738 13.8043C58.5723 13.7153 58.343 13.6327 58.0499 13.5564C57.7568 13.4801 57.3809 13.4038 56.9222 13.3275C56.3615 13.2385 55.8327 13.124 55.3358 12.9842C54.8388 12.8443 54.4056 12.6599 54.0361 12.431C53.6793 12.1894 53.3926 11.8843 53.176 11.5155C52.9721 11.1468 52.8701 10.6826 52.8701 10.1232C52.8701 9.67811 52.9721 9.26485 53.176 8.88338C53.3798 8.50192 53.6729 8.17131 54.0552 7.89157C54.4502 7.61182 54.9217 7.39566 55.4696 7.24307C56.0302 7.07777 56.661 6.99512 57.3618 6.99512C58.1518 6.99512 58.8144 7.09048 59.3496 7.28122C59.8975 7.47195 60.3435 7.72627 60.6876 8.04416C61.0316 8.34933 61.2864 8.69901 61.4521 9.09319C61.6177 9.48738 61.7197 9.88792 61.7579 10.2948H58.8144C58.738 9.96421 58.5723 9.7099 58.3175 9.53188C58.0626 9.34115 57.7441 9.24578 57.3618 9.24578C56.7757 9.24578 56.3679 9.33479 56.1385 9.51281C55.9219 9.69083 55.8136 9.90063 55.8136 10.1422C55.8136 10.4093 55.992 10.6191 56.3488 10.7717C56.7056 10.9115 57.2726 11.0323 58.0499 11.134C58.5978 11.2103 59.1202 11.3184 59.6172 11.4583C60.1141 11.5982 60.5474 11.7953 60.9169 12.0496C61.2992 12.2912 61.5986 12.6027 61.8152 12.9842C62.0319 13.3529 62.1402 13.8043 62.1402 14.3384C62.1402 15.3048 61.7324 16.0931 60.9169 16.7035C60.1141 17.3011 58.9291 17.5999 57.3618 17.5999Z" fill="#09093F"/>
<path d="M42.1577 7.24307H44.8718V8.61636C45.1267 8.17131 45.5217 7.78984 46.0569 7.47195C46.6048 7.15406 47.3311 6.99512 48.2358 6.99512C49.4463 6.99512 50.3574 7.32572 50.969 7.98693C51.5934 8.63543 51.9056 9.56367 51.9056 10.7717V17.352H48.9621V11.4392C48.9621 10.778 48.8156 10.2821 48.5225 9.9515C48.2422 9.60817 47.7771 9.43651 47.1272 9.43651C46.7704 9.43651 46.4646 9.49373 46.2098 9.60817C45.9549 9.7099 45.7447 9.84977 45.579 10.0278C45.4134 10.2058 45.2923 10.422 45.2159 10.6763C45.1394 10.9179 45.1012 11.1722 45.1012 11.4392V17.352H42.1577V7.24307Z" fill="#09093F"/>
<path d="M37 4H40.4404V17.3514H37V4Z" fill="#09093F"/>
<path d="M107.74 20.5889H108.555V24.415L110.814 22.16H111.815L109.777 24.184L112 27.0582H110.963L109.194 24.7477L108.555 25.3484V27.0582H107.74V20.5889Z" fill="#09093F"/>
<path d="M104.592 27.1514C104.277 27.1514 103.983 27.1021 103.712 27.0035C103.44 26.8988 103.205 26.7447 103.008 26.5414C102.81 26.3319 102.653 26.0701 102.536 25.7559C102.424 25.4416 102.369 25.075 102.369 24.6561V24.4712C102.369 24.0769 102.431 23.7288 102.554 23.4269C102.678 23.125 102.841 22.8755 103.045 22.6783C103.249 22.475 103.483 22.3241 103.749 22.2255C104.02 22.1207 104.301 22.0684 104.592 22.0684C104.882 22.0684 105.141 22.1084 105.37 22.1885C105.604 22.2686 105.805 22.3795 105.971 22.5212C106.144 22.6629 106.283 22.8293 106.388 23.0203C106.499 23.2113 106.58 23.4177 106.629 23.6395H105.796C105.746 23.5224 105.687 23.4146 105.62 23.316C105.558 23.2113 105.478 23.1219 105.379 23.048C105.286 22.9741 105.175 22.9155 105.045 22.8724C104.916 22.8293 104.764 22.8077 104.592 22.8077C104.412 22.8077 104.24 22.8416 104.073 22.9094C103.906 22.971 103.758 23.0696 103.628 23.2051C103.499 23.3345 103.394 23.5039 103.313 23.7134C103.239 23.9229 103.202 24.1755 103.202 24.4712V24.6561C103.202 24.9703 103.239 25.2414 103.313 25.4694C103.394 25.6912 103.499 25.8729 103.628 26.0146C103.758 26.1502 103.906 26.2518 104.073 26.3196C104.24 26.3812 104.412 26.412 104.592 26.412C104.894 26.412 105.147 26.3381 105.351 26.1902C105.561 26.0424 105.709 25.839 105.796 25.5803H106.629C106.512 26.067 106.271 26.4521 105.907 26.7355C105.542 27.0128 105.104 27.1514 104.592 27.1514Z" fill="#09093F"/>
<path d="M100.308 22.1603H101.123V27.0584H100.308V22.1603ZM100.715 21.5133C100.555 21.5133 100.422 21.461 100.317 21.3562C100.212 21.2515 100.159 21.119 100.159 20.9588C100.159 20.7986 100.212 20.6661 100.317 20.5614C100.422 20.4567 100.555 20.4043 100.715 20.4043C100.876 20.4043 101.008 20.4567 101.113 20.5614C101.218 20.6661 101.271 20.7986 101.271 20.9588C101.271 21.119 101.218 21.2515 101.113 21.3562C101.008 21.461 100.876 21.5133 100.715 21.5133Z" fill="#09093F"/>
<path d="M98.7302 27.1044C98.2177 27.1044 97.8504 26.9812 97.6281 26.7347C97.4058 26.4883 97.2947 26.0878 97.2947 25.5333V20.5889H98.1097V25.5333C98.1097 25.8537 98.1622 26.0724 98.2671 26.1894C98.3721 26.3065 98.5573 26.365 98.8228 26.365C98.8907 26.365 98.9494 26.365 98.9988 26.365C99.0482 26.3589 99.0975 26.3527 99.1469 26.3466V27.0674C99.0975 27.0797 99.0265 27.089 98.9339 27.0951C98.8475 27.1013 98.7796 27.1044 98.7302 27.1044Z" fill="#09093F"/>
<path d="M93.5005 27.1512C93.1362 27.1512 92.7904 27.0896 92.4632 26.9664C92.136 26.837 91.8458 26.6398 91.5926 26.3749C91.3395 26.1038 91.1388 25.7619 90.9906 25.3491C90.8425 24.9363 90.7684 24.4434 90.7684 23.8704V23.6855C90.7684 23.131 90.8425 22.6535 90.9906 22.253C91.1388 21.8525 91.3395 21.5229 91.5926 21.2641C91.8458 21.0054 92.136 20.8144 92.4632 20.6911C92.7904 20.5618 93.1362 20.4971 93.5005 20.4971C93.8524 20.4971 94.1734 20.5433 94.4636 20.6357C94.76 20.7281 95.0193 20.8606 95.2416 21.0331C95.4639 21.2056 95.6429 21.4182 95.7787 21.6708C95.9207 21.9234 96.0103 22.2099 96.0473 22.5303H95.1212C95.0347 22.1113 94.8526 21.7971 94.5748 21.5876C94.2969 21.3781 93.9388 21.2734 93.5005 21.2734C93.272 21.2734 93.0497 21.3165 92.8336 21.4028C92.6175 21.489 92.4231 21.6277 92.2502 21.8187C92.0835 22.0035 91.9476 22.2499 91.8427 22.558C91.7439 22.8661 91.6945 23.2419 91.6945 23.6855V23.8704C91.6945 24.3386 91.7501 24.7329 91.8612 25.0533C91.9723 25.3675 92.1143 25.6232 92.2872 25.8204C92.4601 26.0176 92.6546 26.1593 92.8707 26.2455C93.0868 26.3318 93.2967 26.3749 93.5005 26.3749C93.982 26.3749 94.3587 26.2578 94.6303 26.0237C94.902 25.7896 95.0656 25.4877 95.1212 25.118H96.0473C95.9979 25.4754 95.8991 25.7834 95.751 26.0422C95.6028 26.2948 95.4145 26.5043 95.186 26.6706C94.9637 26.837 94.7075 26.9602 94.4173 27.0403C94.1333 27.1143 93.8277 27.1512 93.5005 27.1512Z" fill="#09093F"/>
<path d="M84.1042 28.9991C84.0116 28.9991 83.919 28.9899 83.8263 28.9714V28.2321C83.919 28.2506 84.0116 28.2598 84.1042 28.2598C84.1968 28.2598 84.2771 28.2444 84.345 28.2136C84.4129 28.1828 84.4777 28.1242 84.5395 28.038C84.6012 27.9517 84.666 27.8285 84.7339 27.6683C84.808 27.5143 84.8914 27.311 84.984 27.0584L82.9002 22.1602H83.8078L85.4008 26.1342L86.8455 22.1602H87.7161L85.8638 27.0584C85.7342 27.4034 85.6107 27.6991 85.4934 27.9456C85.3761 28.192 85.2495 28.3923 85.1137 28.5463C84.984 28.7065 84.8389 28.8205 84.6784 28.8882C84.5178 28.9622 84.3264 28.9991 84.1042 28.9991Z" fill="#09093F"/>
<path d="M80.4396 27.1506C80.0197 27.1506 79.6555 27.0582 79.3467 26.8733C79.038 26.6823 78.8219 26.4359 78.6985 26.134V27.0582H77.939V20.5889H78.754V23.038C78.896 22.7361 79.1121 22.4989 79.4023 22.3263C79.6987 22.1538 80.0444 22.0676 80.4396 22.0676C81.0508 22.0676 81.5417 22.2709 81.9121 22.6775C82.2887 23.078 82.4771 23.6757 82.4771 24.4705V24.6553C82.4771 25.0743 82.4277 25.4409 82.3289 25.7551C82.2301 26.0631 82.0912 26.3219 81.9121 26.5314C81.7331 26.7347 81.517 26.8887 81.2638 26.9935C81.0169 27.0982 80.7421 27.1506 80.4396 27.1506ZM80.2543 26.4297C80.4519 26.4297 80.6372 26.3928 80.81 26.3188C80.9829 26.2387 81.1311 26.1248 81.2546 25.9769C81.3842 25.829 81.483 25.6442 81.5509 25.4224C81.625 25.2006 81.6621 24.9449 81.6621 24.6553V24.4705C81.6621 24.2055 81.625 23.9683 81.5509 23.7588C81.483 23.5493 81.3842 23.3738 81.2546 23.232C81.1311 23.0842 80.9829 22.9733 80.81 22.8993C80.6372 22.8254 80.4519 22.7884 80.2543 22.7884C80.0321 22.7884 79.8283 22.8254 79.6431 22.8993C79.4579 22.9671 79.3004 23.0657 79.1708 23.1951C79.0411 23.3183 78.9392 23.4662 78.8652 23.6387C78.7911 23.8112 78.754 23.996 78.754 24.1932V24.9325C78.754 25.1544 78.7911 25.3577 78.8652 25.5425C78.9392 25.7274 79.0411 25.8845 79.1708 26.0138C79.3004 26.1432 79.4579 26.2449 79.6431 26.3188C79.8283 26.3928 80.0321 26.4297 80.2543 26.4297Z" fill="#09093F"/>
<path d="M71.639 27.1506C71.3365 27.1506 71.0586 27.0982 70.8055 26.9935C70.5585 26.8887 70.3455 26.7347 70.1664 26.5314C69.9874 26.3219 69.8485 26.0631 69.7497 25.7551C69.6509 25.4409 69.6015 25.0743 69.6015 24.6553V24.4705C69.6015 24.0823 69.6509 23.7403 69.7497 23.4446C69.8546 23.1427 69.9966 22.8901 70.1757 22.6868C70.3548 22.4835 70.5678 22.3294 70.8147 22.2247C71.0679 22.1199 71.3426 22.0676 71.639 22.0676C72.0341 22.0676 72.3768 22.1538 72.667 22.3263C72.9633 22.4989 73.1825 22.7361 73.3245 23.038V20.5889H74.1395V27.0582H73.3801V26.134C73.2566 26.4359 73.0405 26.6823 72.7318 26.8733C72.4231 27.0582 72.0588 27.1506 71.639 27.1506ZM71.8242 26.4297C72.0465 26.4297 72.2502 26.3928 72.4355 26.3188C72.6207 26.2449 72.7781 26.1432 72.9078 26.0138C73.0374 25.8845 73.1393 25.7274 73.2134 25.5425C73.2875 25.3577 73.3245 25.1544 73.3245 24.9325V24.1932C73.3245 23.996 73.2875 23.8112 73.2134 23.6387C73.1393 23.4662 73.0374 23.3183 72.9078 23.1951C72.7781 23.0657 72.6207 22.9671 72.4355 22.8993C72.2502 22.8254 72.0465 22.7884 71.8242 22.7884C71.6266 22.7884 71.4414 22.8254 71.2685 22.8993C71.0957 22.9733 70.9444 23.0842 70.8147 23.232C70.6912 23.3738 70.5925 23.5493 70.5184 23.7588C70.4505 23.9683 70.4165 24.2055 70.4165 24.4705V24.6553C70.4165 24.9449 70.4505 25.2006 70.5184 25.4224C70.5925 25.6442 70.6912 25.829 70.8147 25.9769C70.9444 26.1248 71.0957 26.2387 71.2685 26.3188C71.4414 26.3928 71.6266 26.4297 71.8242 26.4297Z" fill="#09093F"/>
<path d="M66.5909 27.1514C66.2761 27.1514 65.9766 27.1021 65.6926 27.0035C65.4086 26.9049 65.1585 26.754 64.9424 26.5507C64.7263 26.3412 64.5535 26.0793 64.4238 25.7651C64.2941 25.4509 64.2293 25.0812 64.2293 24.6561V24.4712C64.2293 24.0646 64.291 23.7134 64.4145 23.4177C64.538 23.1158 64.7016 22.8662 64.9054 22.6691C65.1153 22.4658 65.3561 22.3148 65.6278 22.2162C65.9056 22.1176 66.1958 22.0684 66.4983 22.0684C67.2207 22.0684 67.7795 22.2655 68.1746 22.6598C68.5698 23.0542 68.7673 23.6118 68.7673 24.3326V24.8502H65.0443C65.0443 25.1397 65.0906 25.3831 65.1832 25.5803C65.2758 25.7774 65.3962 25.9376 65.5444 26.0609C65.6926 26.1841 65.8562 26.2734 66.0353 26.3289C66.2205 26.3843 66.4057 26.412 66.5909 26.412C66.9614 26.412 67.2454 26.3504 67.443 26.2272C67.6467 26.104 67.7918 25.9345 67.8783 25.7189H68.6747C68.6253 25.953 68.5358 26.1594 68.4062 26.3381C68.2827 26.5168 68.1283 26.6677 67.9431 26.791C67.764 26.908 67.5572 26.9974 67.3226 27.059C67.0941 27.1206 66.8503 27.1514 66.5909 27.1514ZM66.5446 22.8077C66.3532 22.8077 66.168 22.8354 65.989 22.8909C65.8099 22.9402 65.6494 23.0234 65.5074 23.1404C65.3715 23.2513 65.2604 23.393 65.174 23.5655C65.0875 23.7381 65.0443 23.9445 65.0443 24.1847H67.9987C67.9925 23.9321 67.9493 23.7196 67.869 23.5471C67.7949 23.3684 67.693 23.2267 67.5634 23.1219C67.4337 23.011 67.2794 22.9309 67.1003 22.8816C66.9274 22.8324 66.7422 22.8077 66.5446 22.8077Z" fill="#09093F"/>
<path d="M61.0353 22.1608H61.7947V23.085C61.8997 22.7954 62.0725 22.5551 62.3133 22.3641C62.5603 22.1669 62.8598 22.0684 63.2117 22.0684C63.3352 22.0684 63.434 22.0745 63.508 22.0868C63.5883 22.0992 63.6593 22.1146 63.7211 22.1331V22.8909C63.6408 22.8601 63.5605 22.8385 63.4803 22.8262C63.4062 22.8139 63.3012 22.8077 63.1654 22.8077C62.9802 22.8077 62.8073 22.8416 62.6467 22.9094C62.4862 22.9771 62.3473 23.0726 62.23 23.1959C62.1127 23.3129 62.0201 23.4577 61.9521 23.6302C61.8842 23.8028 61.8503 23.9907 61.8503 24.194V27.059H61.0353V22.1608Z" fill="#09093F"/>
<path d="M57.7004 27.1514C57.3855 27.1514 57.086 27.1021 56.802 27.0035C56.518 26.9049 56.268 26.754 56.0519 26.5507C55.8358 26.3412 55.6629 26.0793 55.5332 25.7651C55.4036 25.4509 55.3387 25.0812 55.3387 24.6561V24.4712C55.3387 24.0646 55.4005 23.7134 55.524 23.4177C55.6475 23.1158 55.8111 22.8662 56.0148 22.6691C56.2247 22.4658 56.4655 22.3148 56.7372 22.2162C57.015 22.1176 57.3052 22.0684 57.6078 22.0684C58.3301 22.0684 58.8889 22.2655 59.2841 22.6598C59.6792 23.0542 59.8768 23.6118 59.8768 24.3326V24.8502H56.1537C56.1537 25.1397 56.2 25.3831 56.2927 25.5803C56.3853 25.7774 56.5057 25.9376 56.6538 26.0609C56.802 26.1841 56.9656 26.2734 57.1447 26.3289C57.3299 26.3843 57.5151 26.412 57.7004 26.412C58.0708 26.412 58.3548 26.3504 58.5524 26.2272C58.7562 26.104 58.9013 25.9345 58.9877 25.7189H59.7842C59.7348 25.953 59.6452 26.1594 59.5156 26.3381C59.3921 26.5168 59.2378 26.6677 59.0525 26.791C58.8735 26.908 58.6666 26.9974 58.432 27.059C58.2036 27.1206 57.9597 27.1514 57.7004 27.1514ZM57.6541 22.8077C57.4627 22.8077 57.2774 22.8354 57.0984 22.8909C56.9193 22.9402 56.7588 23.0234 56.6168 23.1404C56.481 23.2513 56.3698 23.393 56.2834 23.5655C56.197 23.7381 56.1537 23.9445 56.1537 24.1847H59.1081C59.1019 23.9321 59.0587 23.7196 58.9784 23.5471C58.9043 23.3684 58.8025 23.2267 58.6728 23.1219C58.5432 23.011 58.3888 22.9309 58.2097 22.8816C58.0369 22.8324 57.8516 22.8077 57.6541 22.8077Z" fill="#09093F"/>
<path d="M47.7927 22.1602H48.6818L49.6265 25.9493L50.9045 22.1602H51.6269L52.9513 25.9493L53.8867 22.1602H54.7387L53.3958 27.0584H52.5808L51.2472 23.2692L49.9506 27.0584H49.1356L47.7927 22.1602Z" fill="#09093F"/>
<path d="M44.8304 27.1514C44.5156 27.1514 44.2161 27.1021 43.9321 27.0035C43.6481 26.8988 43.398 26.7447 43.1819 26.5414C42.9658 26.3319 42.793 26.0701 42.6633 25.7559C42.5336 25.4416 42.4688 25.075 42.4688 24.6561V24.4712C42.4688 24.0769 42.5336 23.7288 42.6633 23.4269C42.793 23.125 42.9658 22.8755 43.1819 22.6783C43.398 22.475 43.6481 22.3241 43.9321 22.2255C44.2161 22.1207 44.5156 22.0684 44.8304 22.0684C45.1453 22.0684 45.4448 22.1207 45.7288 22.2255C46.0128 22.3241 46.2629 22.475 46.479 22.6783C46.695 22.8755 46.8679 23.125 46.9976 23.4269C47.1272 23.7288 47.1921 24.0769 47.1921 24.4712V24.6561C47.1921 25.075 47.1272 25.4416 46.9976 25.7559C46.8679 26.0701 46.695 26.3319 46.479 26.5414C46.2629 26.7447 46.0128 26.8988 45.7288 27.0035C45.4448 27.1021 45.1453 27.1514 44.8304 27.1514ZM44.8304 26.412C45.0157 26.412 45.2009 26.3812 45.3861 26.3196C45.5713 26.2518 45.735 26.1502 45.877 26.0146C46.019 25.8729 46.1332 25.6912 46.2196 25.4694C46.3122 25.2476 46.3586 24.9765 46.3586 24.6561V24.4712C46.3586 24.1755 46.3122 23.9229 46.2196 23.7134C46.1332 23.5039 46.019 23.3314 45.877 23.1959C45.735 23.0603 45.5713 22.9617 45.3861 22.9001C45.2009 22.8385 45.0157 22.8077 44.8304 22.8077C44.6452 22.8077 44.46 22.8385 44.2748 22.9001C44.0895 22.9617 43.9259 23.0603 43.7839 23.1959C43.6419 23.3314 43.5246 23.5039 43.432 23.7134C43.3455 23.9229 43.3023 24.1755 43.3023 24.4712V24.6561C43.3023 24.9765 43.3455 25.2476 43.432 25.4694C43.5246 25.6912 43.6419 25.8729 43.7839 26.0146C43.9259 26.1502 44.0895 26.2518 44.2748 26.3196C44.46 26.3812 44.6452 26.412 44.8304 26.412Z" fill="#09093F"/>
<path d="M37 20.5889H39.2227C39.6487 20.5889 40.0192 20.6382 40.3341 20.7367C40.649 20.8353 40.9083 20.9739 41.112 21.1526C41.3219 21.3251 41.4763 21.5346 41.5751 21.7811C41.6739 22.0214 41.7233 22.2863 41.7233 22.5759C41.7233 22.8654 41.6739 23.1335 41.5751 23.3799C41.4763 23.6202 41.3219 23.8297 41.112 24.0084C40.9083 24.1809 40.649 24.3164 40.3341 24.415C40.0192 24.5136 39.6487 24.5629 39.2227 24.5629H37.8706V27.0582H37V20.5889ZM39.1764 23.805C39.4851 23.805 39.7444 23.7773 39.9544 23.7219C40.1705 23.6603 40.3433 23.5771 40.473 23.4723C40.6088 23.3676 40.7045 23.2382 40.7601 23.0842C40.8218 22.9301 40.8527 22.7607 40.8527 22.5759C40.8527 22.391 40.8218 22.2216 40.7601 22.0676C40.7045 21.9135 40.6088 21.7842 40.473 21.6794C40.3433 21.5747 40.1705 21.4946 39.9544 21.4391C39.7444 21.3775 39.4851 21.3467 39.1764 21.3467H37.8706V23.805H39.1764Z" fill="#09093F"/>
<defs>
<clipPath id="clip0_2163_11234">
<rect width="30.9406" height="32" fill="white"/>
</clipPath>
</defs>
</svg>
