<svg width="144" height="32" viewBox="0 0 144 32" fill="none" xmlns="http://www.w3.org/2000/svg">
    <g clip-path="url(#clip0_2254_4032)">
        <path fill-rule="evenodd" clip-rule="evenodd" d="M19.9804 9.29559C19.136 9.78974 18.3557 10.3855 17.6571 11.0695C17.6224 11.1042 17.5801 11.1463 17.5279 11.1116C17.5032 11.0944 17.4847 11.0697 17.4753 11.041C17.4658 11.0124 17.466 10.9816 17.4758 10.9531C17.7325 9.54539 18.3295 8.22132 19.2151 7.09553C20.1395 5.96824 21.4813 4.96732 21.2452 4.75673C21.2159 4.73681 21.1813 4.72615 21.1458 4.72615C21.1104 4.72615 21.0757 4.73681 21.0464 4.75673C20.8352 4.85583 20.6166 4.95493 20.4054 5.06642C19.9371 5.34336 19.4955 5.66266 19.0859 6.02027C19.0511 6.05 19.0163 6.10698 18.9567 6.0723C18.8971 6.03761 18.9219 5.99054 18.9219 5.94842C18.9219 5.07385 18.9865 4.22653 18.6734 4.4619C18.3603 4.69726 18.2858 5.2894 18.261 5.64121C18.1956 6.03036 18.1897 6.42714 18.2436 6.81804C18.2618 6.92069 18.2582 7.02602 18.2329 7.12718C18.2076 7.22834 18.1613 7.32307 18.097 7.40522C17.9131 7.69262 17.7615 7.99984 17.6 8.29962C16.7639 9.86317 16.2327 11.5706 16.0346 13.3315C15.9302 14.3993 15.9054 15.5464 16.6061 16.369C16.9813 16.81 16.7701 16.9586 16.693 17.1569C16.5887 17.4219 16.1464 18.4501 16.1588 18.6037C16.1588 18.6037 16.1588 19.5948 16.1812 28.12C16.1671 28.1945 16.1794 28.2716 16.216 28.338C16.2768 28.2884 16.3288 28.2289 16.37 28.1621C17.7888 26.1578 22.3534 22.2606 22.3336 22.1887C22.4056 22.2011 22.4454 22.1466 22.4876 22.107C26.0111 18.8118 28.5804 15.8388 29.378 11.1315C29.4985 10.1922 29.4985 9.24138 29.378 8.30209C29.1778 7.08119 28.7154 5.91782 28.0225 4.89163C27.3295 3.86544 26.4224 3.00066 25.3631 2.35647C24.3039 1.71228 23.1175 1.3039 21.8853 1.15928C20.653 1.01467 19.404 1.13722 18.2237 1.51857C17.5354 1.74403 16.8819 2.07106 16.216 2.36094C16.1936 2.36094 16.1712 2.33616 16.1588 2.37828C16.288 2.34359 19.4065 -0.748386 23.5586 0.148486C30.2303 1.60528 33.5326 9.44177 28.4959 17.3253C24.9054 22.937 17.928 26.7573 16.0718 30.5852C16.042 30.6446 15.9252 30.8676 15.5003 31.9082C15.4935 31.9389 15.4759 31.9661 15.4506 31.985H15.4109C15.2916 31.9255 15.232 31.4151 14.8493 30.6322C14.8245 30.5852 14.6008 30.1367 14.5611 30.0673C11.6538 25.1123 1.39155 20.509 0.104412 11.1587C0.0646551 10.8589 0.0770795 10.5591 0.0348376 10.2643C0.0139081 10.0585 0.00395605 9.85177 0.00502107 9.64493V9.43681C0.0202801 8.34542 0.208984 7.26334 0.564104 6.23087C1.17238 4.48331 2.27219 2.94722 3.73224 1.80597C5.51883 0.453225 7.54892 -0.0819249 9.10193 0.0369973C11.055 0.183173 12.3322 0.60188 14.2206 1.98187C14.3101 2.04629 14.4269 2.09336 14.4865 2.24201C13.7734 1.96453 12.8689 1.46902 11.3855 1.22126C10.9402 1.15056 10.4894 1.12071 10.0387 1.13207C4.1969 1.13207 -0.211157 6.83043 2.0873 13.2126C3.31728 16.6514 4.90508 18.5839 7.53649 21.2002C8.36642 22.0277 9.25847 22.7809 10.1431 23.5514C14.7499 27.565 14.3026 28.1299 14.6431 28.3182C14.7673 28.1423 14.7027 24.0915 14.7425 19.8078C14.7439 18.9087 14.5621 18.0186 14.2082 17.1915C14.1392 17.0713 14.1104 16.9322 14.1261 16.7946C14.1417 16.6569 14.2009 16.5278 14.2952 16.426C14.8791 15.7397 14.9835 14.8924 14.9537 14.0351C14.9368 13.4592 14.8661 12.886 14.7425 12.3232C13.838 8.07911 12.5956 7.80411 12.7024 6.74124C12.783 6.11315 12.7184 5.47502 12.5136 4.87565C12.4664 4.74681 12.3844 4.38014 12.1732 4.42969C12.1135 4.44703 12.1185 4.4941 12.1135 4.54118C11.9769 5.25967 12.1309 5.43557 11.9669 6.1937C11.9084 6.12517 11.8453 6.06061 11.7781 6.00046C11.3432 5.64121 10.4015 4.84839 9.84737 4.71708C9.7778 4.69974 9.6958 4.68735 9.64859 4.75425C9.36035 5.14818 11.214 6.05248 12.4788 8.22282C13.0478 9.21383 13.8305 11.6047 13.2491 11.0522C13.1671 10.9754 13.095 10.8911 13.013 10.8044C12.4694 10.2855 11.8605 9.83909 11.2016 9.47645C10.4576 9.06813 9.81891 8.49302 9.33594 7.79649C8.85298 7.09996 8.53894 6.30106 8.4186 5.46282C8.22976 4.39252 8.19 3.45106 8.11297 2.92334C8.09558 2.78707 8.14776 2.72761 8.28939 2.73505C9.75295 2.78212 11.4252 2.82176 12.8192 3.82765C14.0616 4.72699 14.8791 5.89145 15.3488 7.75952C15.3736 7.85366 15.3488 8.00727 15.4904 8.00727C15.632 8.00727 15.6072 7.85614 15.632 7.75952C15.7835 7.18124 15.9882 6.61811 16.2433 6.07726C16.7062 5.15346 17.3887 4.3565 18.2311 3.75579C19.0536 3.15623 22.0776 2.71027 22.6193 2.72761C22.8131 2.72761 22.8256 2.74496 22.8305 2.93325C22.828 3.65556 22.7732 4.37675 22.6665 5.09119C22.4404 6.47862 21.6229 8.27732 19.9804 9.29559Z" fill="#F25822"/>
        <path fill-rule="evenodd" clip-rule="evenodd" d="M13.9746 15.0956C13.9618 15.3615 13.8758 15.6186 13.7261 15.8389C13.6143 15.9851 13.5845 15.9851 13.4776 15.8216C12.9246 14.8843 12.2046 14.0556 11.3531 13.3762C11.1929 13.2548 11.0839 13.0781 11.0475 12.8807C10.9827 12.5143 10.8638 12.1594 10.6946 11.8278C10.6028 11.6436 10.4692 11.4833 10.3045 11.3595C10.1455 11.253 10.0759 11.2951 10.0709 11.4809C10.0709 11.5478 10.0709 11.6122 10.0709 11.6816C10.0776 11.8688 10.0992 12.0552 10.1355 12.239C10.1355 12.3406 10.1057 12.3877 10.0014 12.3456C9.96634 12.3374 9.93222 12.3258 9.89949 12.3109C9.5541 12.1746 9.2112 12.0161 8.86581 11.8872C8.72914 11.8352 8.58751 11.8402 8.4583 11.7757C8.19799 11.64 7.89841 11.5988 7.61098 11.6593C7.58364 11.6593 7.53643 11.6593 7.52898 11.7064C7.52152 11.7534 7.55383 11.7633 7.58364 11.7881C7.7054 11.8823 7.84703 11.9467 7.97624 12.0359C8.47321 12.3728 8.97017 12.69 9.46713 13.0071C9.79513 13.2078 10.1604 13.3366 10.4909 13.5249C11.3904 14.0402 12.019 14.8355 12.5732 15.6927C12.6566 15.8785 12.7547 16.0575 12.8664 16.2279V16.275C12.5061 16.275 12.1482 16.275 11.7879 16.2452C11.0981 16.2008 10.4184 16.0564 9.77028 15.8166C8.52036 15.3569 7.46738 14.482 6.7885 13.3391C6.49944 12.8502 6.25016 12.339 6.04306 11.8104C5.89397 11.4512 5.71258 11.1093 5.5461 10.7624C5.51131 10.6931 5.45167 10.6212 5.58088 10.5518C6.05954 10.2938 6.56761 10.0941 7.09413 9.95722C7.46137 9.86734 7.83404 9.80113 8.20982 9.75901C8.92858 9.66887 9.65853 9.74691 10.3418 9.98695C11.5654 10.4848 12.6219 11.3191 13.3882 12.3926C13.8442 13.2172 14.048 14.1569 13.9746 15.0956Z" fill="#F25822"/>
        <path fill-rule="evenodd" clip-rule="evenodd" d="M18.1988 16.2722C18.1093 16.2722 18.0522 16.235 18.1044 16.131C18.5964 15.1497 19.3111 14.2964 20.1916 13.6386C20.4659 13.4773 20.7535 13.3397 21.0514 13.2273C21.6104 12.9498 22.1049 12.5807 22.6342 12.2512L23.2703 11.8696C23.3473 11.8225 23.4591 11.768 23.4343 11.6739C23.4094 11.5797 23.2827 11.6045 23.1982 11.6045C22.765 11.6402 22.3404 11.7457 21.9409 11.9167C21.5646 12.0479 21.1969 12.2026 20.8401 12.38C20.8103 12.3973 20.7706 12.432 20.7283 12.3973C20.6861 12.3626 20.7035 12.3156 20.7109 12.2685C20.7701 11.9605 20.8033 11.648 20.8103 11.3345C20.8103 11.275 20.8277 11.2056 20.7507 11.1759C20.719 11.1658 20.6849 11.1659 20.6533 11.1761C20.6216 11.1863 20.594 11.2062 20.5743 11.2329C20.0276 11.7631 19.9332 12.328 19.8288 12.9672C19.775 13.1423 19.6582 13.2914 19.5008 13.3859C18.6742 14.076 17.9702 14.9002 17.4186 15.8238C17.3167 15.9898 17.2645 15.9947 17.1477 15.8238C16.9665 15.5473 16.8682 15.225 16.8644 14.8947C16.7949 13.5593 17.3117 12.4667 18.2286 11.5376C19.4238 10.3261 20.8352 9.78104 21.9136 9.75627C22.4117 9.72365 22.9119 9.74775 23.4045 9.82811C24.0929 9.96209 24.755 10.2064 25.365 10.5516C25.447 10.6036 25.4694 10.6507 25.4221 10.7448C24.7165 12.1669 24.0878 14.8055 20.87 15.9006C20.0125 16.1974 19.105 16.3236 18.1988 16.2722Z" fill="#F25822"/>
        <path fill-rule="evenodd" clip-rule="evenodd" d="M39.5135 29.9435V27.1736C39.6912 27.3854 39.9148 27.5541 40.1675 27.667C40.4202 27.7798 40.6953 27.834 40.9721 27.8252C42.3785 27.8252 43.4569 26.5419 43.4569 25.033C43.4569 23.5242 42.3735 22.2433 40.9721 22.2433C40.6953 22.2346 40.4202 22.2887 40.1675 22.4016C39.9148 22.5145 39.6912 22.6832 39.5135 22.8949V22.3598H37.8959V29.9435H39.5135ZM40.6093 26.361C39.8788 26.361 39.3868 25.8035 39.3868 25.033C39.3868 24.2625 39.8837 23.7075 40.6093 23.7075C41.3349 23.7075 41.8318 24.265 41.8318 25.033C41.8318 25.8011 41.3349 26.361 40.6093 26.361ZM46.5977 27.8252C47.1506 27.8208 47.6898 27.6533 48.1474 27.3439C48.6049 27.0344 48.9604 26.5968 49.1689 26.0862C49.3774 25.5756 49.4297 25.0149 49.3192 24.4748C49.2086 23.9346 48.9401 23.4392 48.5476 23.0509C48.1551 22.6626 47.6561 22.3989 47.1135 22.293C46.5709 22.187 46.009 22.2436 45.4986 22.4556C44.9882 22.6676 44.5521 23.0254 44.2454 23.4841C43.9387 23.9428 43.775 24.4817 43.7749 25.033C43.7749 25.4016 43.8481 25.7665 43.9902 26.1067C44.1324 26.447 44.3406 26.7558 44.6031 27.0153C44.8655 27.2749 45.1768 27.4801 45.5192 27.6191C45.8615 27.7581 46.2281 27.8282 46.5977 27.8252ZM46.5977 26.3189C45.9094 26.3189 45.405 25.8035 45.405 25.033C45.405 24.2625 45.902 23.7497 46.5977 23.7497C47.2934 23.7497 47.7879 24.265 47.7879 25.033C47.7879 25.8011 47.291 26.3189 46.5977 26.3189ZM54.5491 27.7088L53.6272 24.8844L52.7153 27.7088H51.0853L49.3136 22.3598H51.053L51.9848 25.645L53.0036 22.3598H54.246L55.2647 25.645L56.199 22.3598H57.9384L56.1791 27.7088H54.5491ZM60.699 27.8252C62.0508 27.8252 63.164 27.0448 63.5094 25.9324H61.8147C61.6855 26.2223 61.2556 26.4279 60.7835 26.4279C59.9039 26.4279 59.4864 25.9472 59.4318 25.4022H63.5615C63.6162 23.2938 62.2545 22.2359 60.699 22.2359C59.0665 22.2359 57.8564 23.4127 57.8564 25.0157C57.8564 26.6187 59.0342 27.8178 60.699 27.8178V27.8252ZM60.6642 23.5193C60.9205 23.5119 61.1714 23.5929 61.3747 23.7486C61.578 23.9043 61.7211 24.1252 61.7799 24.374H59.4839C59.5529 24.1184 59.7078 23.8941 59.9225 23.7386C60.1373 23.583 60.3991 23.5056 60.6642 23.5193ZM64.2175 27.7014H65.8376V25.1743C65.8376 24.4037 66.2252 23.8686 66.921 23.8686C67.1662 23.8681 67.4095 23.9117 67.6391 23.9974V22.3598C67.468 22.3151 67.2917 22.2935 67.1148 22.2953C66.8393 22.2959 66.5704 22.3788 66.3427 22.5334C66.115 22.688 65.9391 22.9071 65.8376 23.1625V22.3598H64.2175V27.7088V27.7014ZM70.5066 27.8178C71.8583 27.8178 72.974 27.0374 73.3169 25.9249H71.6223C71.4931 26.2148 71.0657 26.4205 70.5936 26.4205C69.7139 26.4205 69.294 25.9398 69.2418 25.3948H73.3716C73.4238 23.2864 72.0621 22.2285 70.5066 22.2285C68.8766 22.2285 67.664 23.4053 67.664 25.0083C67.664 26.6112 68.8442 27.8104 70.5066 27.8104V27.8178ZM70.4643 23.5193C70.7205 23.5123 70.9712 23.5935 71.1744 23.7492C71.3775 23.9048 71.5208 24.1255 71.58 24.374H69.2841C69.3526 24.1182 69.5073 23.8936 69.7222 23.738C69.9371 23.5824 70.1991 23.5052 70.4643 23.5193ZM76.1794 27.8178C76.4556 27.8226 76.7295 27.7668 76.9816 27.6541C77.2337 27.5415 77.4578 27.3749 77.638 27.1662V27.7014H79.2705V19.6865H77.6504V22.9073C77.4702 22.6986 77.2461 22.532 76.994 22.4193C76.7419 22.3067 76.468 22.2509 76.1918 22.2557C74.7854 22.2557 73.707 23.5391 73.707 25.0454C73.707 26.5518 74.7904 27.8376 76.1918 27.8376L76.1794 27.8178ZM76.5447 26.3536C75.8142 26.3536 75.3197 25.7961 75.3197 25.0256C75.3197 24.2551 75.8166 23.7001 76.5447 23.7001C77.2727 23.7001 77.7796 24.2625 77.7796 25.033C77.7796 25.8035 77.2827 26.361 76.5571 26.361L76.5447 26.3536ZM86.0789 27.8178C87.4853 27.8178 88.5637 26.5344 88.5637 25.0256C88.5637 23.5168 87.4804 22.2359 86.0789 22.2359C85.8021 22.2268 85.5269 22.2807 85.2741 22.3936C85.0214 22.5065 84.7978 22.6754 84.6203 22.8875V19.6667H82.9978V27.689H84.6179V27.1538C84.7953 27.3658 85.0189 27.5347 85.2716 27.6477C85.5244 27.7606 85.7996 27.8145 86.0764 27.8054L86.0789 27.8178ZM85.731 26.361C85.0005 26.361 84.506 25.8035 84.506 25.033C84.506 24.2625 85.003 23.7075 85.731 23.7075C86.4591 23.7075 86.9536 24.265 86.9536 25.033C86.9536 25.8011 86.4566 26.361 85.731 26.361ZM91.2473 29.9435H89.508L90.6236 27.3991L88.3873 22.3598H90.1565L91.4884 25.6648L92.8053 22.3598H94.5869L91.2523 29.9435H91.2473ZM99.8945 27.8252C100.544 27.8495 101.181 27.6405 101.689 27.2363C102.197 26.8321 102.542 26.2595 102.663 25.6227H100.988C100.904 25.8439 100.754 26.034 100.558 26.167C100.362 26.3 100.129 26.3695 99.892 26.3659C99.2062 26.3659 98.7018 25.8704 98.7018 25.0281C98.7018 24.1857 99.1987 23.6927 99.892 23.6927C100.129 23.6892 100.362 23.7586 100.558 23.8916C100.754 24.0246 100.904 24.2147 100.988 24.4359H102.66C102.538 23.8014 102.192 23.2315 101.684 22.8293C101.177 22.4271 100.542 22.2193 99.8945 22.2433C99.5199 22.2322 99.1468 22.2961 98.7975 22.4314C98.4481 22.5666 98.1296 22.7704 97.8606 23.0307C97.5917 23.291 97.3779 23.6024 97.2319 23.9466C97.0859 24.2907 97.0107 24.6606 97.0107 25.0343C97.0107 25.4079 97.0859 25.7778 97.2319 26.122C97.3779 26.4661 97.5917 26.7776 97.8606 27.0378C98.1296 27.2981 98.4481 27.5019 98.7975 27.6372C99.1468 27.7724 99.5199 27.8364 99.8945 27.8252ZM103.234 27.7088H104.864V19.6865H103.244V27.7088H103.234ZM106.626 21.6338C106.825 21.6338 107.02 21.5748 107.186 21.4643C107.352 21.3538 107.482 21.1967 107.558 21.0129C107.634 20.8291 107.654 20.6268 107.615 20.4317C107.576 20.2366 107.48 20.0574 107.339 19.9167C107.198 19.776 107.018 19.6802 106.823 19.6414C106.627 19.6026 106.424 19.6225 106.24 19.6986C106.055 19.7748 105.898 19.9037 105.787 20.0691C105.676 20.2345 105.617 20.429 105.617 20.628C105.618 20.8945 105.724 21.15 105.913 21.3385C106.102 21.527 106.359 21.6332 106.626 21.6338ZM105.821 27.7088H107.441V22.3598H105.821V27.7088ZM110.91 27.8252C111.559 27.8494 112.195 27.6403 112.703 27.2361C113.21 26.8318 113.555 26.2593 113.675 25.6227H112.003C111.92 25.8439 111.77 26.0341 111.575 26.1672C111.379 26.3003 111.147 26.3697 110.91 26.3659C110.221 26.3659 109.719 25.8704 109.719 25.0281C109.719 24.1857 110.216 23.6927 110.91 23.6927C111.147 23.6889 111.379 23.7584 111.575 23.8914C111.77 24.0245 111.92 24.2147 112.003 24.4359H113.675C113.555 23.7993 113.21 23.2268 112.703 22.8225C112.195 22.4183 111.559 22.2092 110.91 22.2334C110.535 22.2223 110.162 22.2862 109.813 22.4215C109.463 22.5567 109.145 22.7605 108.876 23.0208C108.607 23.2811 108.393 23.5925 108.247 23.9366C108.101 24.2808 108.026 24.6507 108.026 25.0244C108.026 25.398 108.101 25.7679 108.247 26.1121C108.393 26.4562 108.607 26.7677 108.876 27.0279C109.145 27.2882 109.463 27.492 109.813 27.6272C110.162 27.7625 110.535 27.8264 110.91 27.8153V27.8252ZM117.867 27.7088H119.83L117.385 24.7778L119.358 22.3598H117.44L115.872 24.2749V19.6865H114.252V27.7088H115.872V25.3229L117.867 27.7088Z" fill="#F25822"/>
        <path fill-rule="evenodd" clip-rule="evenodd" d="M37.8934 16.4853H40.9622V2.82663H37.8934V16.4853ZM42.7214 16.4853H45.6361V11.8102C45.6361 10.0586 46.4834 9.29055 47.5842 9.29055C48.6452 9.29055 49.1472 10.0982 49.1472 11.4262V16.4853H52.0594V10.9257C52.0594 8.40607 50.6902 6.65444 48.3172 6.65444C47.0624 6.65444 46.0983 7.17473 45.6361 7.84862V6.8576H42.7214V16.4754V16.4853ZM57.5831 16.6959C59.9934 16.6959 61.7303 15.5216 61.7303 13.7229C61.7303 12.1843 60.9575 11.223 58.997 10.7028L57.2427 10.2419C56.778 10.1453 56.2488 9.99418 56.2488 9.49867C56.2488 9.11465 56.6339 8.88423 57.2427 8.88423C57.762 8.88423 58.2366 9.05766 58.3609 9.76872H61.2929C61.1389 7.7297 59.4219 6.65197 57.2998 6.65197C54.7529 6.65197 53.267 7.89074 53.267 9.55813C53.267 11.0001 54.0124 12.1348 55.6996 12.5758L57.6477 13.0713C58.3932 13.2844 58.746 13.438 58.746 13.879C58.746 14.2456 58.418 14.4959 57.6651 14.4959C56.8377 14.4959 56.1991 14.1119 56.1419 13.3413H53.0881C53.1825 15.2268 54.9591 16.6885 57.5831 16.6885V16.6959ZM67.3484 16.6959C68.3431 16.6886 69.3133 16.3878 70.1367 15.8314C70.9601 15.275 71.5999 14.488 71.9753 13.5696C72.3508 12.6512 72.445 11.6425 72.2463 10.6707C72.0476 9.69894 71.5647 8.8076 70.8586 8.10907C70.1525 7.41054 69.2548 6.93612 68.2786 6.74562C67.3025 6.55512 66.2916 6.65707 65.3735 7.03862C64.4553 7.42017 63.6711 8.06423 63.1196 8.88959C62.568 9.71496 62.274 10.6847 62.2744 11.6764C62.2744 12.3385 62.4058 12.9941 62.6609 13.6054C62.9161 14.2166 63.29 14.7715 63.7612 15.2381C64.2324 15.7046 64.7914 16.0736 65.4063 16.3239C66.0211 16.5741 66.6794 16.7005 67.3435 16.6959H67.3484ZM67.3484 13.983C66.106 13.983 65.2065 13.0614 65.2065 11.6764C65.2065 10.2915 66.1135 9.36736 67.3484 9.36736C68.5834 9.36736 69.4903 10.2915 69.4903 11.6764C69.4903 13.0614 68.5834 13.983 67.3484 13.983ZM73.5605 16.4853H76.4727V11.8102C76.4727 10.0586 77.3225 9.29055 78.4232 9.29055C79.4843 9.29055 79.9837 10.0982 79.9837 11.4262V16.4853H82.8984V10.9257C82.8984 8.40607 81.5293 6.65444 79.1563 6.65444C77.9014 6.65444 76.9373 7.17473 76.4727 7.84862V6.8576H73.5555V16.4754L73.5605 16.4853ZM95.2454 16.7158C98.5428 16.7158 100.879 14.486 100.879 11.0793V2.82663H97.8147V11.1165C97.8147 12.7517 96.7935 13.7526 95.2504 13.7526C93.7073 13.7526 92.6836 12.7616 92.6836 11.1165V2.82663H89.6173V11.0793C89.6173 14.4835 91.9506 16.7158 95.2504 16.7158H95.2454ZM106.941 16.6959C109.675 16.6959 111.397 14.984 111.911 12.7319H108.914C108.547 13.4999 107.968 14.0772 106.946 14.0772C105.704 14.0772 104.805 13.1927 104.805 11.674C104.805 10.1552 105.711 9.26826 106.946 9.26826C107.968 9.26826 108.547 9.84553 108.914 10.616H111.924C111.402 8.36395 109.687 6.65197 106.954 6.65197C106.283 6.63711 105.616 6.75599 104.992 7.00163C104.368 7.24727 103.8 7.61473 103.32 8.08242C102.841 8.55011 102.46 9.10861 102.199 9.72515C101.939 10.3417 101.805 11.0038 101.805 11.6727C101.805 12.3416 101.939 13.0037 102.199 13.6203C102.46 14.2368 102.841 14.7953 103.32 15.263C103.8 15.7307 104.368 16.0982 104.992 16.3438C105.616 16.5894 106.283 16.7083 106.954 16.6935L106.941 16.6959ZM115.857 16.4853V11.8102C115.857 10.0586 116.707 9.29055 117.808 9.29055C118.869 9.29055 119.371 10.0982 119.371 11.4262V16.4853H122.283V10.9257C122.283 8.40607 120.914 6.65444 118.541 6.65444C117.298 6.65444 116.322 7.17473 115.857 7.84862V2.05859H112.95V16.4853H115.857ZM127.439 16.6959C128.681 16.6959 129.541 16.1757 130.003 15.5042V16.4953H132.918V6.86751H130.008V11.5402C130.008 13.3116 129.295 14.0598 128.197 14.0598C127.098 14.0598 126.706 13.2522 126.706 11.8474V6.86751H123.796V12.3478C123.796 14.9641 125.038 16.6959 127.444 16.6959H127.439ZM134.645 16.4853H137.559V11.8102C137.559 10.0586 138.407 9.29055 139.507 9.29055C140.568 9.29055 141.07 10.0982 141.07 11.4262V16.4853H144V10.9257C144 8.40607 142.631 6.65444 140.258 6.65444C139.003 6.65444 138.039 7.17473 137.577 7.84862V6.8576H134.662L134.645 16.4853Z" fill="white"/>
    </g>
    <defs>
        <clipPath id="clip0_2254_4032">
            <rect width="144" height="32" fill="white"/>
        </clipPath>
    </defs>
</svg>
