<svg width="1243" height="278" viewBox="0 0 1243 278" fill="none" xmlns="http://www.w3.org/2000/svg">
<path d="M172.415 80.4409C161.093 87.563 159.773 89.0892 152.361 95.8043C152.056 96.1095 151.701 96.4657 151.244 96.1604C150.736 95.8552 150.685 95.2956 150.787 94.7869C153.427 81.1531 159.063 69.7068 165.815 61.4146C173.786 51.6471 185.361 42.9988 183.331 41.1674C182.823 40.7096 182.163 40.8622 181.605 41.1165C179.777 41.9814 177.898 42.8462 176.071 43.8128C171.907 46.0512 168.353 49.1035 164.698 52.0541C164.393 52.3085 164.089 52.8172 163.581 52.5119C163.175 52.3085 163.276 51.7997 163.276 51.4436C163.175 43.8636 163.835 36.538 161.043 38.5221C158.555 40.2517 157.692 45.6951 157.489 48.7474C157.235 52.1558 156.575 55.5134 157.336 58.9219C157.743 60.8041 157.083 62.4829 156.067 64.0091C154.493 66.5018 153.173 69.1472 151.802 71.7417C143.933 86.8508 139.567 102.112 138.298 115.288C137.384 124.547 137.181 134.467 143.222 141.589C146.472 145.405 144.644 146.677 143.984 148.406C143.07 150.696 139.262 159.598 139.364 160.921C139.364 160.921 139.364 169.518 139.567 243.283C139.567 243.894 139.415 244.555 139.871 245.166C140.481 244.708 140.836 244.148 141.191 243.639C153.427 226.292 192.825 192.564 192.723 191.953C193.332 192.055 193.688 191.597 194.043 191.241C224.454 162.701 246.59 137.113 253.495 96.4148C254.409 91.0223 254.612 78.406 253.444 71.9452C245.473 26.6688 200.694 -0.700539 157.184 13.2385C151.244 15.1716 145.608 18.0205 139.871 20.5132C139.668 20.4624 139.465 20.3097 139.364 20.6659L139.415 20.7167L139.465 20.6659C140.582 20.3606 167.49 -6.39824 203.334 1.4361C260.907 14.0524 289.389 81.8653 245.93 150.085C214.96 198.668 154.747 231.735 138.805 264.853C138.551 265.362 137.536 267.295 133.881 276.299C133.728 276.656 133.627 277.012 133.221 277.012C132.053 276.961 131.697 272.433 128.194 265.26C127.991 264.853 126.011 260.987 125.707 260.376C100.626 217.491 11.9816 177.658 0.964436 96.72C0.609045 94.1255 0.710586 91.531 0.355195 88.9874C-0.660207 81.1531 0.355195 66.1457 4.82296 53.8855C10.9661 36.9959 21.1202 23.9726 32.1881 15.6295C47.6222 3.92884 65.1379 -0.700539 78.5412 0.316908C95.3968 1.58872 106.363 5.20065 122.711 17.1557C123.473 17.7153 124.488 18.1222 124.996 19.394C118.853 17.003 111.034 12.7298 98.24 10.5423C94.4322 9.88091 90.5229 9.72829 86.6136 9.77917C36.1989 9.83004 -1.82792 59.0745 17.9217 114.322C28.5326 144.082 42.2405 160.819 64.9348 183.457C72.0934 190.63 79.8104 197.142 87.4259 203.806C127.179 238.552 123.32 243.436 126.265 245.064C127.331 243.538 126.773 208.487 127.128 171.401C127.179 163.465 125.504 155.986 122.508 148.762C121.493 146.27 121.391 144.387 123.27 142.149C128.296 136.197 129.21 128.871 128.956 121.444C128.804 116.458 128.194 111.524 127.128 106.64C119.31 69.9103 108.597 67.5193 109.511 58.3114C110.019 52.9189 109.866 47.3738 107.886 42.1849C107.48 41.0657 106.769 37.8098 104.942 38.3186C104.434 38.4712 104.485 38.8782 104.434 39.2851C103.266 45.4916 104.586 47.0177 103.165 53.5803C102.555 52.9189 102.098 52.3593 101.54 51.9015C97.783 48.7983 89.6598 41.9305 84.8874 40.8113C84.2782 40.6587 83.5674 40.5569 83.1612 41.1165C80.6735 44.525 96.6661 52.3593 107.582 71.1312C112.506 79.6269 119.259 100.383 114.233 95.6008C113.522 94.9395 112.913 94.2273 112.202 93.5151C107.582 88.8348 102.149 85.3246 96.5646 82.0179C78.3889 71.2838 74.1749 56.6326 72.5503 47.2721C70.9256 38.0133 70.5703 29.8737 69.9102 25.2952C69.7579 24.1252 70.2149 23.6164 71.4333 23.6673C84.0751 24.0743 98.4938 24.4304 110.526 33.1296C121.239 40.913 128.296 50.9858 132.357 67.1632C132.561 67.9771 132.459 69.3507 133.576 69.3507C134.439 69.3507 134.591 68.028 134.794 67.2141C136.216 62.2286 137.79 57.2939 140.075 52.6646C144.085 44.525 149.873 37.9116 157.133 32.57C164.241 27.381 190.337 23.5147 195.008 23.6673C196.683 23.7182 196.785 23.8199 196.836 25.4479C196.886 31.7052 196.277 37.9116 195.414 44.118C193.637 56.073 186.478 71.6399 172.415 80.4409Z" fill="#F25822"/>
<path d="M120.579 130.552C120.376 132.79 119.868 135.028 118.497 136.911C117.533 138.182 117.279 138.182 116.416 136.758C114.385 133.35 112.1 130.094 109.613 126.991C106.16 122.819 102.251 119.054 98.0877 115.595C96.717 114.476 95.8031 113.153 95.4477 111.373C94.7877 108.219 93.9754 105.115 92.4015 102.267C91.5384 100.69 90.523 99.2142 89.0507 98.1968C87.6799 97.2811 87.0706 97.6372 87.0199 99.2651C87.0199 99.8247 87.0706 100.384 87.0706 100.995C86.9691 102.623 87.4768 104.2 87.6291 105.828C87.6799 106.692 87.3753 107.099 86.4614 106.743C86.1568 106.642 85.8522 106.591 85.5983 106.438C82.6029 105.268 79.6582 103.894 76.6628 102.775C75.4951 102.317 74.2766 102.368 73.1596 101.809C70.8242 100.74 68.438 100.181 65.8487 100.791C65.5949 100.842 65.1887 100.791 65.138 101.198C65.0872 101.554 65.341 101.707 65.5949 101.91C66.6611 102.724 67.8795 103.284 68.9965 104.047C73.2104 106.947 77.5766 109.694 81.8921 112.441C84.7352 114.171 87.883 115.29 90.7261 116.918C98.4939 121.395 103.926 128.262 108.699 135.69C109.663 137.165 110.019 138.946 111.237 140.319L111.186 140.726C108.089 140.675 104.992 140.675 101.896 140.472C95.9046 140.014 90.1168 138.895 84.4814 136.758C73.4642 132.587 64.8841 125.464 58.7917 115.392C56.2532 111.169 54.1716 106.743 52.3439 102.165C51.0746 99.0616 49.5008 96.111 47.9777 93.1096C47.673 92.4991 47.1653 91.8886 48.2823 91.2781C52.4454 89.0398 56.7609 87.3101 61.3302 86.14C64.4779 85.3261 67.7272 84.8174 70.9765 84.4104C77.272 83.5964 83.4152 84.3595 89.3553 86.3944C94.6354 88.2258 99.2555 91.2273 103.622 94.6357C108.242 98.1968 112.456 102.216 115.654 107.201C120.427 115.697 121.087 124.905 120.579 130.552Z" fill="#F25822"/>
<path d="M157.032 140.825C156.27 140.825 155.762 140.52 156.219 139.604C160.636 131.109 166.475 123.732 174.243 118.034C176.477 116.406 179.167 115.694 181.655 114.473C186.478 112.082 190.743 108.877 195.312 106.029C197.14 104.909 198.968 103.841 200.795 102.722C201.455 102.315 202.42 101.857 202.217 101.043C201.963 100.026 200.897 100.433 200.186 100.433C196.429 100.636 192.825 101.755 189.321 103.129C186.123 104.35 182.874 105.52 179.827 107.148C179.574 107.3 179.218 107.606 178.863 107.3C178.457 106.995 178.66 106.588 178.71 106.181C179.117 103.485 179.624 100.84 179.574 98.0924C179.574 97.5837 179.726 96.9732 179.066 96.7189C178.457 96.4645 177.949 96.8206 177.543 97.2276C172.821 101.806 172.009 106.69 171.044 112.235C170.74 113.914 169.369 114.88 168.201 115.847C160.941 121.799 155.153 128.972 150.228 136.959C149.365 138.383 148.908 138.434 147.893 137.01C146.218 134.619 145.608 131.821 145.456 128.972C144.847 117.424 149.315 107.962 157.235 99.9238C167.541 89.4441 179.726 84.713 189.017 84.5095C193.281 84.4078 197.597 84.2551 201.811 85.12C209.02 86.5953 215.62 89.3933 218.717 91.3773C219.428 91.8351 219.631 92.2421 219.225 93.0561C213.133 105.367 207.7 128.209 179.929 137.671C171.806 140.52 165.206 141.029 157.032 140.825Z" fill="#F25822"/>
<path d="M1158.64 74.4549H1182.09V86.3425C1184.29 82.49 1187.7 79.1879 1192.32 76.4362C1197.06 73.6845 1203.33 72.3086 1211.15 72.3086C1221.6 72.3086 1229.47 75.1704 1234.76 80.894C1240.15 86.5076 1242.85 94.5426 1242.85 104.999V161.96H1217.42V110.778C1217.42 105.054 1216.15 100.762 1213.62 97.8997C1211.2 94.9279 1207.18 93.4419 1201.57 93.4419C1198.49 93.4419 1195.85 93.9372 1193.65 94.9279C1191.44 95.8084 1189.63 97.0192 1188.2 98.5602C1186.77 100.101 1185.72 101.972 1185.06 104.174C1184.4 106.265 1184.07 108.466 1184.07 110.778V161.96H1158.64V74.4549Z" fill="#09093F"/>
<path d="M1097.1 164.105C1087.09 164.105 1079.44 161.243 1074.16 155.519C1068.87 149.796 1066.23 141.1 1066.23 129.433V74.4531H1091.66V125.47C1091.66 131.194 1092.81 135.542 1095.12 138.514C1097.55 141.485 1101.4 142.971 1106.68 142.971C1112.4 142.971 1116.59 141.32 1119.23 138.018C1121.98 134.606 1123.36 130.423 1123.36 125.47V74.4531H1148.78V161.958H1125.34V150.071C1123.14 153.923 1119.67 157.225 1114.94 159.977C1110.2 162.729 1104.26 164.105 1097.1 164.105Z" fill="#09093F"/>
<path d="M973.694 46.3867H999.12V85.5164C1000 84.0855 1001.21 82.5996 1002.75 81.0586C1004.29 79.5176 1006.16 78.0867 1008.37 76.7659C1010.68 75.4451 1013.32 74.3994 1016.29 73.6289C1019.26 72.7484 1022.57 72.3081 1026.2 72.3081C1036.65 72.3081 1044.52 75.1699 1049.81 80.8935C1055.2 86.507 1057.9 94.4871 1057.9 104.834V161.96H1032.47V110.777C1032.47 105.054 1031.21 100.761 1028.67 97.8992C1026.25 94.9274 1022.24 93.4414 1016.62 93.4414C1010.46 93.4414 1006 95.0925 1003.25 98.3945C1000.5 101.697 999.12 105.824 999.12 110.777V161.96H973.694V46.3867Z" fill="#09093F"/>
<path d="M926.607 164.107C920.113 164.107 914.115 163.171 908.611 161.3C903.218 159.429 898.54 156.622 894.577 152.879C890.615 149.137 887.533 144.459 885.331 138.846C883.13 133.232 882.029 126.628 882.029 119.033V115.731C882.029 108.797 883.185 102.633 885.496 97.2393C887.918 91.8459 891.11 87.3331 895.073 83.7008C899.145 79.9584 903.878 77.1517 909.271 75.2805C914.665 73.2992 920.444 72.3086 926.607 72.3086C933.212 72.3086 938.99 73.1891 943.943 74.9503C949.007 76.7114 953.244 79.1329 956.656 82.2149C960.069 85.1867 962.71 88.7089 964.581 92.7815C966.453 96.8541 967.553 101.202 967.883 105.825H941.797C940.916 101.862 939.265 98.8353 936.844 96.744C934.532 94.5426 931.12 93.4419 926.607 93.4419C921.214 93.4419 916.756 95.3131 913.234 99.0555C909.822 102.688 908.116 108.246 908.116 115.731V119.033C908.116 127.178 909.767 133.177 913.069 137.029C916.481 140.882 920.994 142.808 926.607 142.808C930.46 142.808 933.707 141.817 936.349 139.836C939.1 137.745 940.916 134.663 941.797 130.59H967.883C967.553 135.764 966.342 140.442 964.251 144.624C962.16 148.697 959.298 152.164 955.666 155.026C952.144 157.888 947.906 160.144 942.953 161.795C938.11 163.336 932.661 164.107 926.607 164.107Z" fill="#09093F"/>
<path d="M823.34 164.106C815.635 164.106 808.646 163.115 802.372 161.134C796.208 159.043 790.925 156.016 786.522 152.053C782.229 147.981 778.872 142.918 776.451 136.864C774.139 130.81 772.983 123.766 772.983 115.73V46.3867H802.702V112.263C802.702 121.179 804.243 127.948 807.325 132.571C810.407 137.084 815.745 139.34 823.34 139.34C831.155 139.34 836.549 137.084 839.52 132.571C842.492 127.948 843.978 121.234 843.978 112.428V46.3867H873.697V115.73C873.697 123.766 872.541 130.81 870.23 136.864C867.918 142.918 864.561 147.981 860.158 152.053C855.866 156.016 850.582 159.043 844.308 161.134C838.145 163.115 831.155 164.106 823.34 164.106Z" fill="#09093F"/>
<path d="M643.299 74.4549H666.744V86.3425C668.946 82.49 672.358 79.1879 676.981 76.4362C681.714 73.6845 687.987 72.3086 695.802 72.3086C706.259 72.3086 714.129 75.1704 719.412 80.894C724.806 86.5076 727.502 94.5426 727.502 104.999V161.96H702.076V110.778C702.076 105.054 700.811 100.762 698.279 97.8997C695.857 94.9279 691.84 93.4419 686.226 93.4419C683.144 93.4419 680.503 93.9372 678.301 94.9279C676.1 95.8084 674.284 97.0192 672.853 98.5602C671.422 100.101 670.376 101.972 669.716 104.174C669.056 106.265 668.725 108.466 668.725 110.778V161.96H643.299V74.4549Z" fill="#09093F"/>
<path d="M592.181 164.107C586.017 164.107 580.239 163.226 574.845 161.465C569.452 159.594 564.719 156.787 560.646 153.045C556.574 149.302 553.382 144.624 551.07 139.011C548.759 133.287 547.603 126.628 547.603 119.033V115.731C547.603 108.576 548.759 102.303 551.07 96.9091C553.382 91.5157 556.574 87.0029 560.646 83.3706C564.719 79.7383 569.452 76.9866 574.845 75.1154C580.239 73.2442 586.017 72.3086 592.181 72.3086C598.345 72.3086 604.124 73.2442 609.517 75.1154C614.911 76.9866 619.643 79.7383 623.716 83.3706C627.789 87.0029 630.981 91.5157 633.292 96.9091C635.604 102.303 636.759 108.576 636.759 115.731V119.033C636.759 126.518 635.604 133.122 633.292 138.846C630.981 144.459 627.789 149.137 623.716 152.879C619.643 156.622 614.911 159.429 609.517 161.3C604.124 163.171 598.345 164.107 592.181 164.107ZM592.181 142.973C598.125 142.973 602.693 140.827 605.885 136.534C609.077 132.241 610.673 126.408 610.673 119.033V115.731C610.673 109.127 609.077 103.788 605.885 99.7159C602.693 95.5333 598.125 93.4419 592.181 93.4419C586.237 93.4419 581.67 95.5333 578.478 99.7159C575.286 103.788 573.689 109.127 573.689 115.731V119.033C573.689 126.628 575.286 132.517 578.478 136.699C581.67 140.882 586.237 142.973 592.181 142.973Z" fill="#09093F"/>
<path d="M503.096 164.107C495.941 164.107 489.777 163.391 484.604 161.96C479.541 160.419 475.358 158.383 472.056 155.851C468.754 153.21 466.278 150.183 464.627 146.771C462.976 143.248 462.04 139.506 461.82 135.544H487.246C487.906 138.075 489.337 140.221 491.539 141.983C493.74 143.744 497.592 144.624 503.096 144.624C508.709 144.624 512.727 143.854 515.148 142.313C517.68 140.772 518.946 138.736 518.946 136.204C518.946 135.213 518.671 134.333 518.12 133.562C517.57 132.682 516.524 131.911 514.983 131.251C513.552 130.48 511.571 129.765 509.04 129.104C506.508 128.444 503.261 127.784 499.298 127.123C494.455 126.353 489.888 125.362 485.595 124.151C481.302 122.941 477.56 121.345 474.368 119.363C471.286 117.272 468.809 114.63 466.938 111.438C465.177 108.246 464.296 104.229 464.296 99.3857C464.296 95.5333 465.177 91.956 466.938 88.6539C468.699 85.3518 471.231 82.49 474.533 80.0685C477.945 77.647 482.018 75.7758 486.751 74.4549C491.594 73.024 497.042 72.3086 503.096 72.3086C509.92 72.3086 515.644 73.1341 520.267 74.7852C525 76.4362 528.852 78.6376 531.824 81.3893C534.796 84.031 536.997 87.0579 538.428 90.4701C539.859 93.8822 540.74 97.3494 541.07 100.872H515.644C514.983 98.0098 513.552 95.8084 511.351 94.2675C509.15 92.6164 506.398 91.7909 503.096 91.7909C498.033 91.7909 494.51 92.5614 492.529 94.1023C490.658 95.6433 489.722 97.4595 489.722 99.5508C489.722 101.862 491.263 103.678 494.345 104.999C497.427 106.21 502.325 107.256 509.04 108.136C513.773 108.797 518.285 109.732 522.578 110.943C526.871 112.154 530.613 113.86 533.805 116.061C537.107 118.153 539.694 120.849 541.565 124.151C543.436 127.343 544.372 131.251 544.372 135.874C544.372 144.239 540.85 151.063 533.805 156.347C526.871 161.52 516.634 164.107 503.096 164.107Z" fill="#09093F"/>
<path d="M371.761 74.4549H395.206V86.3425C397.407 82.49 400.819 79.1879 405.442 76.4362C410.175 73.6845 416.449 72.3086 424.264 72.3086C434.72 72.3086 442.59 75.1704 447.874 80.894C453.267 86.5076 455.964 94.5426 455.964 104.999V161.96H430.538V110.778C430.538 105.054 429.272 100.762 426.74 97.8997C424.319 94.9279 420.301 93.4419 414.688 93.4419C411.606 93.4419 408.964 93.9372 406.763 94.9279C404.561 95.8084 402.745 97.0192 401.314 98.5602C399.883 100.101 398.838 101.972 398.177 104.174C397.517 106.265 397.187 108.466 397.187 110.778V161.96H371.761V74.4549Z" fill="#09093F"/>
<path d="M327.208 46.3867H356.927V161.96H327.208V46.3867Z" fill="#09093F"/>
<path d="M759.044 193.285H762.916V211.501L773.652 200.765H778.404L768.724 210.401L779.284 224.085H774.356L765.952 213.085L762.916 215.945V224.085H759.044V193.285Z" fill="#09093F"/>
<path d="M744.087 224.528C742.591 224.528 741.198 224.293 739.907 223.824C738.617 223.325 737.502 222.592 736.563 221.624C735.625 220.627 734.877 219.38 734.319 217.884C733.791 216.388 733.527 214.643 733.527 212.648V211.768C733.527 209.891 733.821 208.233 734.407 206.796C734.994 205.359 735.771 204.171 736.739 203.232C737.707 202.264 738.822 201.545 740.083 201.076C741.374 200.577 742.709 200.328 744.087 200.328C745.466 200.328 746.698 200.519 747.783 200.9C748.898 201.281 749.851 201.809 750.643 202.484C751.465 203.159 752.125 203.951 752.623 204.86C753.151 205.769 753.533 206.752 753.767 207.808H749.807C749.573 207.251 749.294 206.737 748.971 206.268C748.678 205.769 748.297 205.344 747.827 204.992C747.387 204.64 746.859 204.361 746.243 204.156C745.627 203.951 744.909 203.848 744.087 203.848C743.237 203.848 742.415 204.009 741.623 204.332C740.831 204.625 740.127 205.095 739.511 205.74C738.895 206.356 738.397 207.163 738.015 208.16C737.663 209.157 737.487 210.36 737.487 211.768V212.648C737.487 214.144 737.663 215.435 738.015 216.52C738.397 217.576 738.895 218.441 739.511 219.116C740.127 219.761 740.831 220.245 741.623 220.568C742.415 220.861 743.237 221.008 744.087 221.008C745.525 221.008 746.727 220.656 747.695 219.952C748.693 219.248 749.397 218.28 749.807 217.048H753.767C753.21 219.365 752.066 221.199 750.335 222.548C748.605 223.868 746.522 224.528 744.087 224.528Z" fill="#09093F"/>
<path d="M723.734 200.766H727.606V224.086H723.734V200.766ZM725.67 197.686C724.907 197.686 724.276 197.437 723.778 196.938C723.279 196.44 723.03 195.809 723.03 195.046C723.03 194.284 723.279 193.653 723.778 193.154C724.276 192.656 724.907 192.406 725.67 192.406C726.432 192.406 727.063 192.656 727.562 193.154C728.06 193.653 728.31 194.284 728.31 195.046C728.31 195.809 728.06 196.44 727.562 196.938C727.063 197.437 726.432 197.686 725.67 197.686Z" fill="#09093F"/>
<path d="M716.24 224.305C713.805 224.305 712.06 223.718 711.004 222.545C709.948 221.372 709.42 219.465 709.42 216.825V193.285H713.292V216.825C713.292 218.35 713.541 219.392 714.04 219.949C714.539 220.506 715.419 220.785 716.68 220.785C717.003 220.785 717.281 220.785 717.516 220.785C717.751 220.756 717.985 220.726 718.22 220.697V224.129C717.985 224.188 717.648 224.232 717.208 224.261C716.797 224.29 716.475 224.305 716.24 224.305Z" fill="#09093F"/>
<path d="M691.394 224.528C689.663 224.528 688.021 224.234 686.466 223.648C684.911 223.032 683.533 222.093 682.33 220.832C681.127 219.541 680.174 217.913 679.47 215.948C678.766 213.982 678.414 211.636 678.414 208.908V208.028C678.414 205.388 678.766 203.114 679.47 201.208C680.174 199.301 681.127 197.732 682.33 196.5C683.533 195.268 684.911 194.358 686.466 193.772C688.021 193.156 689.663 192.848 691.394 192.848C693.066 192.848 694.591 193.068 695.97 193.508C697.378 193.948 698.61 194.578 699.666 195.4C700.722 196.221 701.573 197.233 702.218 198.436C702.893 199.638 703.318 201.002 703.494 202.528H699.094C698.683 200.533 697.818 199.037 696.498 198.04C695.178 197.042 693.477 196.544 691.394 196.544C690.309 196.544 689.253 196.749 688.226 197.16C687.199 197.57 686.275 198.23 685.454 199.14C684.662 200.02 684.017 201.193 683.518 202.66C683.049 204.126 682.814 205.916 682.814 208.028V208.908C682.814 211.137 683.078 213.014 683.606 214.54C684.134 216.036 684.809 217.253 685.63 218.192C686.451 219.13 687.375 219.805 688.402 220.216C689.429 220.626 690.426 220.832 691.394 220.832C693.682 220.832 695.471 220.274 696.762 219.16C698.053 218.045 698.83 216.608 699.094 214.848H703.494C703.259 216.549 702.79 218.016 702.086 219.248C701.382 220.45 700.487 221.448 699.402 222.24C698.346 223.032 697.129 223.618 695.75 224C694.401 224.352 692.949 224.528 691.394 224.528Z" fill="#09093F"/>
<path d="M652.45 224.528C650.954 224.528 649.532 224.293 648.182 223.824C646.833 223.355 645.645 222.636 644.618 221.668C643.592 220.671 642.77 219.424 642.154 217.928C641.538 216.432 641.23 214.672 641.23 212.648V211.768C641.23 209.832 641.524 208.16 642.11 206.752C642.697 205.315 643.474 204.127 644.442 203.188C645.44 202.22 646.584 201.501 647.874 201.032C649.194 200.563 650.573 200.328 652.01 200.328C655.442 200.328 658.097 201.267 659.974 203.144C661.852 205.021 662.79 207.676 662.79 211.108V213.572H645.102C645.102 214.951 645.322 216.109 645.762 217.048C646.202 217.987 646.774 218.749 647.478 219.336C648.182 219.923 648.96 220.348 649.81 220.612C650.69 220.876 651.57 221.008 652.45 221.008C654.21 221.008 655.56 220.715 656.498 220.128C657.466 219.541 658.156 218.735 658.566 217.708H662.35C662.116 218.823 661.69 219.805 661.074 220.656C660.488 221.507 659.754 222.225 658.874 222.812C658.024 223.369 657.041 223.795 655.926 224.088C654.841 224.381 653.682 224.528 652.45 224.528ZM652.23 203.848C651.321 203.848 650.441 203.98 649.59 204.244C648.74 204.479 647.977 204.875 647.302 205.432C646.657 205.96 646.129 206.635 645.718 207.456C645.308 208.277 645.102 209.26 645.102 210.404H659.138C659.109 209.201 658.904 208.189 658.522 207.368C658.17 206.517 657.686 205.843 657.07 205.344C656.454 204.816 655.721 204.435 654.87 204.2C654.049 203.965 653.169 203.848 652.23 203.848Z" fill="#09093F"/>
<path d="M618.321 200.766H622.193V210.534H625.273L633.985 200.766H638.561L628.441 211.942L639.001 224.086H634.073L625.273 213.878H622.193V224.086H618.321V200.766Z" fill="#09093F"/>
<path d="M589.51 212.074L581.15 200.766H585.462L592.59 210.534H595.274V200.766H599.146V210.534H601.786L609.046 200.766H613.27L604.91 211.942L613.71 224.086H609.134L601.786 213.878H599.146V224.086H595.274V213.878H592.59L585.198 224.086H580.71L589.51 212.074Z" fill="#09093F"/>
<path d="M556.919 200.768H560.527V205.168C561.319 203.613 562.419 202.425 563.827 201.604C565.264 200.753 566.922 200.328 568.799 200.328C571.732 200.328 574.079 201.296 575.839 203.232C577.599 205.139 578.479 207.984 578.479 211.768V212.648C578.479 214.643 578.244 216.388 577.775 217.884C577.306 219.351 576.646 220.583 575.795 221.58C574.944 222.548 573.918 223.281 572.715 223.78C571.542 224.279 570.236 224.528 568.799 224.528C566.804 224.528 565.132 224.088 563.783 223.208C562.463 222.328 561.466 221.228 560.791 219.908V232.888H556.919V200.768ZM567.919 221.096C568.858 221.096 569.738 220.92 570.559 220.568C571.38 220.187 572.084 219.644 572.671 218.94C573.287 218.236 573.756 217.356 574.079 216.3C574.431 215.244 574.607 214.027 574.607 212.648V211.768C574.607 210.507 574.431 209.377 574.079 208.38C573.756 207.383 573.287 206.547 572.671 205.872C572.084 205.168 571.38 204.64 570.559 204.288C569.738 203.936 568.858 203.76 567.919 203.76C566.863 203.76 565.895 203.936 565.015 204.288C564.135 204.611 563.387 205.08 562.771 205.696C562.155 206.283 561.671 206.987 561.319 207.808C560.967 208.629 560.791 209.509 560.791 210.448V213.968C560.791 215.024 560.967 215.992 561.319 216.872C561.671 217.752 562.155 218.5 562.771 219.116C563.387 219.732 564.135 220.216 565.015 220.568C565.895 220.92 566.863 221.096 567.919 221.096Z" fill="#09093F"/>
<path d="M541.075 224.528C539.579 224.528 538.157 224.293 536.807 223.824C535.458 223.355 534.27 222.636 533.243 221.668C532.217 220.671 531.395 219.424 530.779 217.928C530.163 216.432 529.855 214.672 529.855 212.648V211.768C529.855 209.832 530.149 208.16 530.735 206.752C531.322 205.315 532.099 204.127 533.067 203.188C534.065 202.22 535.209 201.501 536.499 201.032C537.819 200.563 539.198 200.328 540.635 200.328C544.067 200.328 546.722 201.267 548.599 203.144C550.477 205.021 551.415 207.676 551.415 211.108V213.572H533.727C533.727 214.951 533.947 216.109 534.387 217.048C534.827 217.987 535.399 218.749 536.103 219.336C536.807 219.923 537.585 220.348 538.435 220.612C539.315 220.876 540.195 221.008 541.075 221.008C542.835 221.008 544.185 220.715 545.123 220.128C546.091 219.541 546.781 218.735 547.191 217.708H550.975C550.741 218.823 550.315 219.805 549.699 220.656C549.113 221.507 548.379 222.225 547.499 222.812C546.649 223.369 545.666 223.795 544.551 224.088C543.466 224.381 542.307 224.528 541.075 224.528ZM540.855 203.848C539.946 203.848 539.066 203.98 538.215 204.244C537.365 204.479 536.602 204.875 535.927 205.432C535.282 205.96 534.754 206.635 534.343 207.456C533.933 208.277 533.727 209.26 533.727 210.404H547.763C547.734 209.201 547.529 208.189 547.147 207.368C546.795 206.517 546.311 205.843 545.695 205.344C545.079 204.816 544.346 204.435 543.495 204.2C542.674 203.965 541.794 203.848 540.855 203.848Z" fill="#09093F"/>
<path d="M502.115 220.654H504.975C505.297 220.214 505.591 219.539 505.855 218.63C506.119 217.72 506.353 216.65 506.559 215.418C506.764 214.186 506.911 212.851 506.999 211.414C507.116 209.947 507.175 208.451 507.175 206.926V200.766H523.455V220.654H526.755V229.586H523.059V224.086H505.811V229.586H502.115V220.654ZM519.583 220.654V204.198H510.959V207.806C510.959 209.038 510.915 210.27 510.827 211.502C510.739 212.704 510.607 213.863 510.431 214.978C510.255 216.063 510.035 217.104 509.771 218.102C509.536 219.07 509.257 219.92 508.935 220.654H519.583Z" fill="#09093F"/>
<path d="M474.142 220.654H477.002C477.325 220.214 477.618 219.539 477.882 218.63C478.146 217.72 478.381 216.65 478.586 215.418C478.791 214.186 478.938 212.851 479.026 211.414C479.143 209.947 479.202 208.451 479.202 206.926V200.766H495.482V220.654H498.782V229.586H495.086V224.086H477.838V229.586H474.142V220.654ZM491.61 220.654V204.198H482.986V207.806C482.986 209.038 482.942 210.27 482.854 211.502C482.766 212.704 482.634 213.863 482.458 214.978C482.282 216.063 482.062 217.104 481.798 218.102C481.563 219.07 481.285 219.92 480.962 220.654H491.61Z" fill="#09093F"/>
<path d="M460.509 224.528C459.013 224.528 457.59 224.293 456.241 223.824C454.892 223.325 453.704 222.592 452.677 221.624C451.65 220.627 450.829 219.38 450.213 217.884C449.597 216.388 449.289 214.643 449.289 212.648V211.768C449.289 209.891 449.597 208.233 450.213 206.796C450.829 205.359 451.65 204.171 452.677 203.232C453.704 202.264 454.892 201.545 456.241 201.076C457.59 200.577 459.013 200.328 460.509 200.328C462.005 200.328 463.428 200.577 464.777 201.076C466.126 201.545 467.314 202.264 468.341 203.232C469.368 204.171 470.189 205.359 470.805 206.796C471.421 208.233 471.729 209.891 471.729 211.768V212.648C471.729 214.643 471.421 216.388 470.805 217.884C470.189 219.38 469.368 220.627 468.341 221.624C467.314 222.592 466.126 223.325 464.777 223.824C463.428 224.293 462.005 224.528 460.509 224.528ZM460.509 221.008C461.389 221.008 462.269 220.861 463.149 220.568C464.029 220.245 464.806 219.761 465.481 219.116C466.156 218.441 466.698 217.576 467.109 216.52C467.549 215.464 467.769 214.173 467.769 212.648V211.768C467.769 210.36 467.549 209.157 467.109 208.16C466.698 207.163 466.156 206.341 465.481 205.696C464.806 205.051 464.029 204.581 463.149 204.288C462.269 203.995 461.389 203.848 460.509 203.848C459.629 203.848 458.749 203.995 457.869 204.288C456.989 204.581 456.212 205.051 455.537 205.696C454.862 206.341 454.305 207.163 453.865 208.16C453.454 209.157 453.249 210.36 453.249 211.768V212.648C453.249 214.173 453.454 215.464 453.865 216.52C454.305 217.576 454.862 218.441 455.537 219.116C456.212 219.761 456.989 220.245 457.869 220.568C458.749 220.861 459.629 221.008 460.509 221.008Z" fill="#09093F"/>
<path d="M424.446 200.766H443.806V224.086H439.934V204.198H428.318V224.086H424.446V200.766Z" fill="#09093F"/>
<path d="M386.591 200.766H390.463V218.366L402.519 200.766H406.391V224.086H402.519V206.486L390.463 224.086H386.591V200.766Z" fill="#09093F"/>
<path d="M359.521 200.768H363.129V205.168C363.921 203.613 365.021 202.425 366.429 201.604C367.866 200.753 369.523 200.328 371.401 200.328C374.334 200.328 376.681 201.296 378.441 203.232C380.201 205.139 381.081 207.984 381.081 211.768V212.648C381.081 214.643 380.846 216.388 380.377 217.884C379.907 219.351 379.247 220.583 378.397 221.58C377.546 222.548 376.519 223.281 375.317 223.78C374.143 224.279 372.838 224.528 371.401 224.528C369.406 224.528 367.734 224.088 366.385 223.208C365.065 222.328 364.067 221.228 363.393 219.908V232.888H359.521V200.768ZM370.521 221.096C371.459 221.096 372.339 220.92 373.161 220.568C373.982 220.187 374.686 219.644 375.273 218.94C375.889 218.236 376.358 217.356 376.681 216.3C377.033 215.244 377.209 214.027 377.209 212.648V211.768C377.209 210.507 377.033 209.377 376.681 208.38C376.358 207.383 375.889 206.547 375.273 205.872C374.686 205.168 373.982 204.64 373.161 204.288C372.339 203.936 371.459 203.76 370.521 203.76C369.465 203.76 368.497 203.936 367.617 204.288C366.737 204.611 365.989 205.08 365.373 205.696C364.757 206.283 364.273 206.987 363.921 207.808C363.569 208.629 363.393 209.509 363.393 210.448V213.968C363.393 215.024 363.569 215.992 363.921 216.872C364.273 217.752 364.757 218.5 365.373 219.116C365.989 219.732 366.737 220.216 367.617 220.568C368.497 220.92 369.465 221.096 370.521 221.096Z" fill="#09093F"/>
<path d="M327.4 193.285H351.6V224.085H347.464V196.893H331.536V224.085H327.4V193.285Z" fill="#09093F"/>
</svg>
