<svg width="222" height="48" viewBox="0 0 222 48" fill="none" xmlns="http://www.w3.org/2000/svg">
    <g clip-path="url(#clip0_1547_1178)">
        <path d="M30.3054 13.9465C28.3154 15.1807 28.0834 15.4452 26.7805 16.6088C26.7269 16.6617 26.6645 16.7234 26.5842 16.6705C26.4949 16.6176 26.486 16.5206 26.5038 16.4325C26.9679 14.07 27.9584 12.0865 29.1453 10.6496C30.5463 8.957 32.581 7.45838 32.224 7.14103C32.1348 7.06169 32.0188 7.08813 31.9206 7.13221C31.5994 7.28207 31.2692 7.43194 30.9479 7.59943C30.2162 7.98731 29.5915 8.51623 28.949 9.02753C28.8954 9.0716 28.8419 9.15976 28.7526 9.10687C28.6813 9.07161 28.6991 8.98345 28.6991 8.92174C28.6813 7.60824 28.7973 6.33882 28.3065 6.68262C27.8692 6.98235 27.7175 7.9256 27.6818 8.45452C27.6372 9.04516 27.5212 9.62698 27.655 10.2176C27.7264 10.5438 27.6104 10.8347 27.4319 11.0992C27.1553 11.5311 26.9233 11.9895 26.6823 12.4391C25.2991 15.0573 24.5317 17.7019 24.3086 19.9851C24.1479 21.5895 24.1122 23.3085 25.1742 24.5427C25.7453 25.2038 25.4241 25.4242 25.308 25.7239C25.1474 26.1206 24.4781 27.6633 24.496 27.8925C24.496 27.8925 24.496 29.3823 24.5317 42.1647C24.5317 42.2705 24.5049 42.3851 24.5852 42.4909C24.6923 42.4115 24.7548 42.3146 24.8172 42.2264C26.9679 39.2204 33.8928 33.3757 33.8749 33.2699C33.982 33.2876 34.0445 33.2082 34.107 33.1465C39.4523 28.2011 43.3431 23.7669 44.5568 16.7146C44.7174 15.7801 44.7531 13.5939 44.5479 12.4744C43.1468 4.62863 35.276 -0.114069 27.6282 2.30136C26.5842 2.63634 25.5936 3.13001 24.5852 3.56196C24.5495 3.55315 24.5138 3.5267 24.496 3.58841L24.5049 3.59723L24.5138 3.58841C24.7101 3.53552 29.4398 -1.1014 35.74 0.256179C45.8597 2.4424 50.8659 14.1934 43.2271 26.0149C37.7836 34.4336 27.1999 40.1636 24.3978 45.9025C24.3532 45.9906 24.1747 46.3256 23.5322 47.8859C23.5054 47.9476 23.4876 48.0093 23.4162 48.0093C23.2109 48.0005 23.1485 47.216 22.5327 45.973C22.497 45.9025 22.149 45.2325 22.0955 45.1267C17.6871 37.6953 2.10605 30.7928 0.169572 16.7675C0.107105 16.3179 0.124953 15.8683 0.0624858 15.4275C-0.115991 14.07 0.0624858 11.4694 0.847784 9.34488C1.92757 6.41816 3.71234 4.16141 5.65774 2.71568C8.37059 0.688135 11.4493 -0.114069 13.8052 0.0622397C16.7679 0.282625 18.6955 0.90852 21.569 2.98015C21.7028 3.07712 21.8813 3.14764 21.9705 3.36802C20.8907 2.9537 19.5165 2.2132 17.2677 1.83414C16.5984 1.71954 15.9112 1.69309 15.2241 1.70191C6.36272 1.71072 -0.32124 10.2441 3.15014 19.8176C5.01522 24.9746 7.42466 27.8749 11.4136 31.7978C12.6719 33.0407 14.0283 34.1691 15.3669 35.3239C22.3542 41.3449 21.676 42.1912 22.1936 42.4733C22.381 42.2088 22.2829 36.135 22.3453 29.7085C22.3542 28.3333 22.0598 27.0374 21.5333 25.7857C21.3548 25.3537 21.3369 25.0275 21.6671 24.6396C22.5506 23.6082 22.7112 22.3388 22.6666 21.0518C22.6398 20.1879 22.5327 19.3328 22.3453 18.4865C20.9711 12.1217 19.0881 11.7074 19.2488 10.1118C19.338 9.17739 19.3112 8.21651 18.9632 7.31734C18.8918 7.1234 18.7669 6.55921 18.4456 6.64736C18.3564 6.67381 18.3653 6.74433 18.3564 6.81486C18.1511 7.89034 18.3831 8.1548 18.1333 9.29199C18.0262 9.17739 17.9459 9.08042 17.8477 9.00108C17.1873 8.46334 15.7595 7.27326 14.9207 7.07932C14.8136 7.05287 14.6887 7.03524 14.6173 7.13221C14.18 7.72285 16.991 9.08042 18.9096 12.3333C19.7753 13.8055 20.9621 17.4022 20.0787 16.5735C19.9537 16.4589 19.8466 16.3355 19.7217 16.2121C18.9096 15.4011 17.9548 14.7928 16.9732 14.2198C13.7784 12.3598 13.0378 9.82092 12.7522 8.19888C12.4666 6.59447 12.4042 5.184 12.2882 4.39061C12.2614 4.18786 12.3417 4.0997 12.5559 4.10852C14.7779 4.17904 17.3123 4.24075 19.4272 5.74819C21.3102 7.09695 22.5506 8.8424 23.2645 11.6457C23.3002 11.7868 23.2823 12.0248 23.4787 12.0248C23.6304 12.0248 23.6571 11.7956 23.6928 11.6545C23.9427 10.7906 24.2193 9.93552 24.6209 9.13331C25.3259 7.72284 26.3432 6.57684 27.6193 5.65122C28.8687 4.75205 33.4555 4.08207 34.2765 4.10852C34.571 4.11734 34.5888 4.13497 34.5978 4.41706C34.6067 5.50136 34.4996 6.57684 34.3479 7.65232C34.0356 9.72395 32.7773 12.4215 30.3054 13.9465Z" fill="url(#paint0_linear_1547_1178)"/>
        <path d="M21.1947 22.6278C21.159 23.0157 21.0698 23.4036 20.8288 23.7297C20.6593 23.9501 20.6146 23.9501 20.4629 23.7033C20.106 23.1126 19.7044 22.5485 19.2671 22.0107C18.6603 21.2879 17.9732 20.6355 17.2414 20.0361C17.0005 19.8421 16.8399 19.6129 16.7774 19.3044C16.6614 18.7578 16.5186 18.2201 16.242 17.7264C16.0903 17.4531 15.9118 17.1975 15.653 17.0212C15.412 16.8625 15.305 16.9242 15.296 17.2063C15.296 17.3033 15.305 17.4002 15.305 17.506C15.2871 17.7881 15.3764 18.0614 15.4031 18.3435C15.412 18.4934 15.3585 18.5639 15.1979 18.5022C15.1443 18.4845 15.0908 18.4757 15.0462 18.4493C14.5197 18.2465 14.0021 18.0085 13.4756 17.8146C13.2703 17.7352 13.0562 17.744 12.8598 17.6471C12.4493 17.462 12.0299 17.365 11.5748 17.4708C11.5302 17.4796 11.4588 17.4708 11.4499 17.5413C11.4409 17.603 11.4856 17.6294 11.5302 17.6647C11.7176 17.8058 11.9317 17.9027 12.1281 18.035C12.8688 18.5374 13.6362 19.0135 14.3947 19.4895C14.8945 19.7892 15.4477 19.9832 15.9475 20.2653C17.3128 21.041 18.2677 22.2311 19.1065 23.5182C19.2761 23.7738 19.3385 24.0823 19.5527 24.3204L19.5438 24.3909C18.9994 24.3821 18.4551 24.3821 17.9107 24.3468C16.8577 24.2675 15.8404 24.0735 14.8498 23.7033C12.9134 22.9804 11.4052 21.7463 10.3344 20.0008C9.88819 19.2691 9.52231 18.5022 9.20105 17.7088C8.97796 17.171 8.70132 16.6598 8.4336 16.1396C8.38006 16.0339 8.29082 15.9281 8.48715 15.8223C9.2189 15.4344 9.97743 15.1347 10.7806 14.9319C11.3339 14.7909 11.905 14.7027 12.4761 14.6322C13.5827 14.4912 14.6624 14.6234 15.7065 14.976C16.6346 15.2934 17.4467 15.8135 18.2141 16.4041C19.0262 17.0212 19.7669 17.7176 20.3291 18.5815C21.1679 20.0537 21.2839 21.6493 21.1947 22.6278Z" fill="#F25822"/>
        <path d="M27.6015 24.4092C27.4676 24.4092 27.3784 24.3563 27.4587 24.1977C28.2351 22.7255 29.2613 21.4472 30.6266 20.4599C31.0193 20.1778 31.4923 20.0544 31.9295 19.8428C32.7773 19.4285 33.5269 18.8731 34.33 18.3795C34.6513 18.1855 34.9726 18.0004 35.2938 17.8065C35.4098 17.736 35.5794 17.6566 35.5437 17.5156C35.4991 17.3393 35.3117 17.4098 35.1867 17.4098C34.5264 17.445 33.8928 17.639 33.277 17.877C32.7148 18.0886 32.1437 18.2913 31.6083 18.5734C31.5637 18.5999 31.5012 18.6528 31.4387 18.5999C31.3673 18.547 31.403 18.4764 31.4119 18.4059C31.4833 17.9387 31.5726 17.4803 31.5637 17.0043C31.5637 16.9161 31.5904 16.8103 31.4744 16.7663C31.3673 16.7222 31.2781 16.7839 31.2067 16.8544C30.3768 17.6478 30.234 18.4941 30.0644 19.455C30.0109 19.7459 29.77 19.9134 29.5647 20.0809C28.2886 21.1123 27.2713 22.3552 26.4057 23.7393C26.254 23.9861 26.1736 23.9949 25.9952 23.7481C25.7007 23.3337 25.5936 22.8489 25.5668 22.3552C25.4597 20.3541 26.245 18.7145 27.6372 17.3216C29.4487 15.5056 31.5904 14.6858 33.2235 14.6506C33.9731 14.6329 34.7316 14.6065 35.4723 14.7563C36.7395 15.012 37.8996 15.4968 38.4439 15.8406C38.5689 15.92 38.6046 15.9905 38.5332 16.1315C37.4623 18.2649 36.5075 22.223 31.6261 23.8627C30.1983 24.3563 29.0382 24.4445 27.6015 24.4092Z" fill="#F25822"/>
    </g>
    <path d="M206.405 12.7486H210.526V14.8086C210.913 14.141 211.512 13.5688 212.325 13.092C213.157 12.6151 214.26 12.3767 215.633 12.3767C217.471 12.3767 218.854 12.8726 219.783 13.8644C220.731 14.8372 221.205 16.2295 221.205 18.0415V27.912H216.736V19.0429C216.736 18.051 216.514 17.3072 216.069 16.8113C215.643 16.2963 214.937 16.0388 213.95 16.0388C213.408 16.0388 212.944 16.1246 212.557 16.2963C212.17 16.4489 211.851 16.6587 211.599 16.9257C211.348 17.1927 211.164 17.517 211.048 17.8985C210.932 18.2609 210.874 18.6423 210.874 19.0429V27.912H206.405V12.7486Z" fill="#2C2D35"/>
    <path d="M195.588 28.2836C193.827 28.2836 192.483 27.7877 191.554 26.7959C190.625 25.804 190.161 24.2972 190.161 22.2755V12.7483H194.63V21.5888C194.63 22.5806 194.833 23.334 195.24 23.849C195.665 24.364 196.342 24.6215 197.271 24.6215C198.277 24.6215 199.012 24.3354 199.477 23.7632C199.96 23.1719 200.202 22.4471 200.202 21.5888V12.7483H204.671V27.9117H200.55V25.8517C200.163 26.5193 199.554 27.0915 198.722 27.5683C197.89 28.0452 196.845 28.2836 195.588 28.2836Z" fill="#2C2D35"/>
    <path d="M173.896 7.88599H178.366V14.6666C178.52 14.4186 178.733 14.1611 179.004 13.8941C179.275 13.6271 179.604 13.3791 179.991 13.1502C180.397 12.9214 180.861 12.7402 181.384 12.6067C181.906 12.4541 182.487 12.3778 183.125 12.3778C184.963 12.3778 186.346 12.8737 187.275 13.8655C188.223 14.8382 188.697 16.2211 188.697 18.014V27.9131H184.228V19.0439C184.228 18.0521 184.005 17.3083 183.56 16.8123C183.135 16.2974 182.428 16.0399 181.442 16.0399C180.358 16.0399 179.575 16.326 179.091 16.8982C178.607 17.4704 178.366 18.1856 178.366 19.0439V27.9131H173.896V7.88599Z" fill="#2C2D35"/>
    <path d="M165.62 28.2839C164.479 28.2839 163.424 28.1218 162.457 27.7976C161.509 27.4733 160.687 26.9869 159.99 26.3384C159.294 25.6899 158.752 24.8793 158.365 23.9066C157.978 22.9338 157.785 21.7894 157.785 20.4734V19.9012C157.785 18.6995 157.988 17.6314 158.394 16.6968C158.82 15.7622 159.381 14.9802 160.077 14.3508C160.793 13.7023 161.625 13.2159 162.573 12.8917C163.521 12.5484 164.537 12.3767 165.62 12.3767C166.781 12.3767 167.797 12.5293 168.667 12.8345C169.557 13.1396 170.302 13.5593 170.902 14.0933C171.502 14.6083 171.966 15.2186 172.295 15.9244C172.624 16.6301 172.817 17.3835 172.875 18.1846H168.29C168.135 17.4979 167.845 16.9734 167.419 16.611C167.013 16.2295 166.413 16.0388 165.62 16.0388C164.672 16.0388 163.889 16.3631 163.27 17.0115C162.67 17.641 162.37 18.6042 162.37 19.9012V20.4734C162.37 21.8848 162.66 22.9243 163.24 23.5919C163.84 24.2594 164.633 24.5932 165.62 24.5932C166.297 24.5932 166.868 24.4216 167.332 24.0782C167.816 23.7158 168.135 23.1818 168.29 22.4761H172.875C172.817 23.3725 172.604 24.1831 172.237 24.9079C171.869 25.6137 171.366 26.2145 170.728 26.7104C170.109 27.2063 169.364 27.5973 168.493 27.8834C167.642 28.1504 166.684 28.2839 165.62 28.2839Z" fill="#2C2D35"/>
    <path d="M147.469 28.285C146.115 28.285 144.886 28.1133 143.783 27.77C142.7 27.4076 141.771 26.8831 140.997 26.1965C140.243 25.4907 139.653 24.6134 139.227 23.5643C138.821 22.5153 138.618 21.2946 138.618 19.9022V7.88599H143.841V19.3014C143.841 20.8464 144.112 22.0194 144.654 22.8205C145.196 23.6025 146.134 23.9935 147.469 23.9935C148.842 23.9935 149.79 23.6025 150.313 22.8205C150.835 22.0194 151.096 20.8559 151.096 19.33V7.88599H156.32V19.9022C156.32 21.2946 156.117 22.5153 155.711 23.5643C155.304 24.6134 154.714 25.4907 153.94 26.1965C153.186 26.8831 152.257 27.4076 151.154 27.77C150.071 28.1133 148.842 28.285 147.469 28.285Z" fill="#2C2D35"/>
    <path d="M115.823 12.7486H119.944V14.8086C120.331 14.141 120.931 13.5688 121.743 13.092C122.575 12.6151 123.678 12.3767 125.052 12.3767C126.89 12.3767 128.273 12.8726 129.202 13.8644C130.15 14.8372 130.624 16.2295 130.624 18.0415V27.912H126.154V19.0429C126.154 18.051 125.932 17.3072 125.487 16.8113C125.061 16.2963 124.355 16.0388 123.369 16.0388C122.827 16.0388 122.362 16.1246 121.976 16.2963C121.589 16.4489 121.269 16.6587 121.018 16.9257C120.766 17.1927 120.583 17.517 120.466 17.8985C120.35 18.2609 120.292 18.6423 120.292 19.0429V27.912H115.823V12.7486Z" fill="#2C2D35"/>
    <path d="M106.838 28.2839C105.755 28.2839 104.739 28.1313 103.791 27.8262C102.843 27.5019 102.011 27.0155 101.296 26.3671C100.58 25.7186 100.019 24.9079 99.6124 23.9352C99.2061 22.9434 99.0029 21.7894 99.0029 20.4734V19.9012C99.0029 18.6614 99.2061 17.5742 99.6124 16.6396C100.019 15.705 100.58 14.923 101.296 14.2936C102.011 13.6642 102.843 13.1873 103.791 12.8631C104.739 12.5388 105.755 12.3767 106.838 12.3767C107.922 12.3767 108.938 12.5388 109.886 12.8631C110.834 13.1873 111.665 13.6642 112.381 14.2936C113.097 14.923 113.658 15.705 114.064 16.6396C114.471 17.5742 114.674 18.6614 114.674 19.9012V20.4734C114.674 21.7704 114.471 22.9148 114.064 23.9066C113.658 24.8793 113.097 25.6899 112.381 26.3384C111.665 26.9869 110.834 27.4733 109.886 27.7976C108.938 28.1218 107.922 28.2839 106.838 28.2839ZM106.838 24.6218C107.883 24.6218 108.686 24.2499 109.247 23.506C109.808 22.7622 110.089 21.7513 110.089 20.4734V19.9012C110.089 18.7568 109.808 17.8317 109.247 17.126C108.686 16.4012 107.883 16.0388 106.838 16.0388C105.794 16.0388 104.991 16.4012 104.43 17.126C103.869 17.8317 103.588 18.7568 103.588 19.9012V20.4734C103.588 21.7894 103.869 22.8099 104.43 23.5346C104.991 24.2594 105.794 24.6218 106.838 24.6218Z" fill="#2C2D35"/>
    <path d="M91.1799 28.2839C89.9223 28.2839 88.8389 28.1599 87.9296 27.912C87.0397 27.645 86.3045 27.2921 85.7241 26.8534C85.1437 26.3957 84.7084 25.8711 84.4182 25.2799C84.1279 24.6695 83.9635 24.021 83.9248 23.3344H88.3939C88.51 23.7731 88.7615 24.145 89.1485 24.4502C89.5354 24.7553 90.2125 24.9079 91.1799 24.9079C92.1666 24.9079 92.8727 24.7744 93.2984 24.5074C93.7433 24.2404 93.9658 23.8875 93.9658 23.4488C93.9658 23.2772 93.9175 23.1246 93.8207 22.9911C93.724 22.8385 93.5402 22.705 93.2693 22.5905C93.0178 22.457 92.6696 22.333 92.2246 22.2186C91.7796 22.1041 91.2089 21.9897 90.5124 21.8753C89.6612 21.7417 88.8583 21.5701 88.1037 21.3603C87.3492 21.1505 86.6914 20.8739 86.1303 20.5306C85.5886 20.1682 85.1533 19.7104 84.8244 19.1573C84.5149 18.6042 84.3601 17.908 84.3601 17.0688C84.3601 16.4012 84.5149 15.7813 84.8244 15.2091C85.134 14.6369 85.579 14.141 86.1594 13.7214C86.7591 13.3018 87.475 12.9775 88.3069 12.7486C89.1581 12.5007 90.1158 12.3767 91.1799 12.3767C92.3794 12.3767 93.3854 12.5198 94.198 12.8059C95.0299 13.092 95.707 13.4734 96.2294 13.9503C96.7518 14.408 97.1387 14.9325 97.3902 15.5238C97.6417 16.1151 97.7965 16.7159 97.8546 17.3263H93.3854C93.2693 16.8303 93.0178 16.4489 92.6309 16.1819C92.244 15.8958 91.7603 15.7527 91.1799 15.7527C90.2899 15.7527 89.6708 15.8862 89.3226 16.1532C88.9937 16.4203 88.8292 16.735 88.8292 17.0974C88.8292 17.4979 89.1001 17.8126 89.6418 18.0415C90.1835 18.2513 91.0445 18.4325 92.2246 18.5851C93.0565 18.6995 93.8497 18.8617 94.6043 19.0715C95.3588 19.2813 96.0166 19.5769 96.5777 19.9584C97.1581 20.3208 97.6127 20.7881 97.9416 21.3603C98.2705 21.9134 98.435 22.5905 98.435 23.3916C98.435 24.8412 97.8159 26.0237 96.5777 26.9393C95.3588 27.8357 93.5595 28.2839 91.1799 28.2839Z" fill="#2C2D35"/>
    <path d="M68.0947 12.7486H72.2156V14.8086C72.6025 14.141 73.2023 13.5688 74.0149 13.092C74.8468 12.6151 75.9496 12.3767 77.3232 12.3767C79.1611 12.3767 80.5444 12.8726 81.4731 13.8644C82.4211 14.8372 82.8951 16.2295 82.8951 18.0415V27.912H78.426V19.0429C78.426 18.051 78.2035 17.3072 77.7585 16.8113C77.3329 16.2963 76.6267 16.0388 75.64 16.0388C75.0983 16.0388 74.634 16.1246 74.247 16.2963C73.8601 16.4489 73.5409 16.6587 73.2894 16.9257C73.0379 17.1927 72.8541 17.517 72.738 17.8985C72.6219 18.2609 72.5639 18.6423 72.5639 19.0429V27.912H68.0947V12.7486Z" fill="#2C2D35"/>
    <path d="M60.2637 7.8855H65.4873V27.9126H60.2637V7.8855Z" fill="#2C2D35"/>
    <path d="M174.471 33.962H175.291V37.6395L177.847 33.962H178.667V38.8347H177.847V35.1572L175.291 38.8347H174.471V33.962ZM176.569 33.3644C176.084 33.3644 175.73 33.2632 175.506 33.061C175.282 32.8526 175.17 32.5553 175.17 32.1692H175.972C175.972 32.586 176.171 32.7944 176.569 32.7944C176.979 32.7944 177.184 32.586 177.184 32.1692H177.968C177.968 32.5553 177.856 32.8526 177.632 33.061C177.408 33.2632 177.054 33.3644 176.569 33.3644Z" fill="#6A6A6A"/>
    <path d="M170.93 38.9267C170.613 38.9267 170.312 38.8776 170.026 38.7796C169.74 38.6754 169.488 38.5221 169.27 38.3199C169.053 38.1115 168.879 37.851 168.748 37.5384C168.618 37.2258 168.552 36.8611 168.552 36.4444V36.2605C168.552 35.8682 168.618 35.5219 168.748 35.2216C168.879 34.9213 169.053 34.673 169.27 34.4769C169.488 34.2746 169.74 34.1245 170.026 34.0264C170.312 33.9222 170.613 33.8701 170.93 33.8701C171.247 33.8701 171.549 33.9222 171.835 34.0264C172.121 34.1245 172.373 34.2746 172.59 34.4769C172.808 34.673 172.982 34.9213 173.112 35.2216C173.243 35.5219 173.308 35.8682 173.308 36.2605V36.4444C173.308 36.8611 173.243 37.2258 173.112 37.5384C172.982 37.851 172.808 38.1115 172.59 38.3199C172.373 38.5221 172.121 38.6754 171.835 38.7796C171.549 38.8776 171.247 38.9267 170.93 38.9267ZM170.93 38.1912C171.117 38.1912 171.303 38.1605 171.49 38.0992C171.676 38.0318 171.841 37.9307 171.984 37.7958C172.127 37.6549 172.242 37.4741 172.329 37.2534C172.422 37.0328 172.469 36.7631 172.469 36.4444V36.2605C172.469 35.9663 172.422 35.715 172.329 35.5066C172.242 35.2982 172.127 35.1266 171.984 34.9918C171.841 34.8569 171.676 34.7588 171.49 34.6976C171.303 34.6363 171.117 34.6056 170.93 34.6056C170.744 34.6056 170.557 34.6363 170.371 34.6976C170.184 34.7588 170.019 34.8569 169.876 34.9918C169.733 35.1266 169.615 35.2982 169.522 35.5066C169.435 35.715 169.392 35.9663 169.392 36.2605V36.4444C169.392 36.7631 169.435 37.0328 169.522 37.2534C169.615 37.4741 169.733 37.6549 169.876 37.7958C170.019 37.9307 170.184 38.0318 170.371 38.0992C170.557 38.1605 170.744 38.1912 170.93 38.1912Z" fill="#6A6A6A"/>
    <path d="M165.526 34.6795H163.838V33.9624H168.034V34.6795H166.346V38.8351H165.526V34.6795Z" fill="#6A6A6A"/>
    <path d="M160.948 38.9267C160.631 38.9267 160.33 38.8776 160.044 38.7796C159.758 38.6754 159.506 38.5221 159.288 38.3199C159.071 38.1115 158.897 37.851 158.766 37.5384C158.636 37.2258 158.57 36.8611 158.57 36.4444V36.2605C158.57 35.8682 158.636 35.5219 158.766 35.2216C158.897 34.9213 159.071 34.673 159.288 34.4769C159.506 34.2746 159.758 34.1245 160.044 34.0264C160.33 33.9222 160.631 33.8701 160.948 33.8701C161.265 33.8701 161.567 33.9222 161.853 34.0264C162.139 34.1245 162.391 34.2746 162.608 34.4769C162.826 34.673 163 34.9213 163.131 35.2216C163.261 35.5219 163.326 35.8682 163.326 36.2605V36.4444C163.326 36.8611 163.261 37.2258 163.131 37.5384C163 37.851 162.826 38.1115 162.608 38.3199C162.391 38.5221 162.139 38.6754 161.853 38.7796C161.567 38.8776 161.265 38.9267 160.948 38.9267ZM160.948 38.1912C161.135 38.1912 161.321 38.1605 161.508 38.0992C161.694 38.0318 161.859 37.9307 162.002 37.7958C162.145 37.6549 162.26 37.4741 162.347 37.2534C162.44 37.0328 162.487 36.7631 162.487 36.4444V36.2605C162.487 35.9663 162.44 35.715 162.347 35.5066C162.26 35.2982 162.145 35.1266 162.002 34.9918C161.859 34.8569 161.694 34.7588 161.508 34.6976C161.321 34.6363 161.135 34.6056 160.948 34.6056C160.762 34.6056 160.575 34.6363 160.389 34.6976C160.202 34.7588 160.038 34.8569 159.895 34.9918C159.752 35.1266 159.633 35.2982 159.54 35.5066C159.453 35.715 159.41 35.9663 159.41 36.2605V36.4444C159.41 36.7631 159.453 37.0328 159.54 37.2534C159.633 37.4741 159.752 37.6549 159.895 37.7958C160.038 37.9307 160.202 38.0318 160.389 38.0992C160.575 38.1605 160.762 38.1912 160.948 38.1912Z" fill="#6A6A6A"/>
    <path d="M153.16 33.9621H153.925V34.8814C154.093 34.5566 154.326 34.3084 154.624 34.1367C154.929 33.959 155.28 33.8701 155.678 33.8701C156.3 33.8701 156.797 34.0724 157.17 34.4769C157.543 34.8753 157.73 35.4698 157.73 36.2605V36.4444C157.73 36.8611 157.68 37.2258 157.58 37.5384C157.481 37.8449 157.341 38.1023 157.161 38.3107C156.981 38.513 156.763 38.6662 156.508 38.7704C156.259 38.8746 155.983 38.9267 155.678 38.9267C155.255 38.9267 154.901 38.8347 154.615 38.6509C154.335 38.467 154.124 38.2371 153.981 37.9613V40.6735H153.16V33.9621ZM155.492 38.2096C155.69 38.2096 155.877 38.1728 156.051 38.0992C156.225 38.0196 156.374 37.9062 156.499 37.7591C156.629 37.612 156.729 37.4281 156.797 37.2074C156.872 36.9868 156.909 36.7324 156.909 36.4444V36.2605C156.909 35.9969 156.872 35.761 156.797 35.5526C156.729 35.3442 156.629 35.1695 156.499 35.0285C156.374 34.8814 156.225 34.7711 156.051 34.6976C155.877 34.624 155.69 34.5872 155.492 34.5872C155.268 34.5872 155.063 34.624 154.876 34.6976C154.69 34.765 154.531 34.863 154.4 34.9918C154.27 35.1143 154.167 35.2614 154.093 35.4331C154.018 35.6047 153.981 35.7885 153.981 35.9847V36.7202C153.981 36.9408 154.018 37.1431 154.093 37.327C154.167 37.5108 154.27 37.6671 154.4 37.7958C154.531 37.9246 154.69 38.0257 154.876 38.0992C155.063 38.1728 155.268 38.2096 155.492 38.2096Z" fill="#6A6A6A"/>
    <path d="M149.665 38.9266C149.335 38.9266 149.028 38.8653 148.742 38.7427C148.462 38.6201 148.216 38.4424 148.005 38.2095C147.8 37.9704 147.635 37.6793 147.511 37.3361C147.393 36.9928 147.333 36.6036 147.333 36.1685V35.9846C147.333 35.433 147.374 34.9426 147.455 34.5136C147.536 34.0784 147.672 33.7107 147.865 33.4103C148.064 33.1039 148.322 32.8648 148.639 32.6932C148.962 32.5216 149.366 32.4235 149.851 32.399C150.243 32.3806 150.585 32.3653 150.877 32.3531C151.169 32.3347 151.418 32.2734 151.623 32.1692V32.9507C151.524 33.0058 151.34 33.0487 151.073 33.0794C150.812 33.11 150.451 33.1315 149.991 33.1437C149.693 33.1499 149.429 33.1866 149.199 33.2541C148.975 33.3215 148.782 33.4287 148.62 33.5758C148.465 33.7229 148.341 33.916 148.247 34.155C148.16 34.3879 148.104 34.676 148.08 35.0192C148.229 34.6944 148.459 34.437 148.77 34.247C149.08 34.057 149.441 33.962 149.851 33.962C150.168 33.962 150.458 34.0171 150.719 34.1275C150.98 34.2317 151.204 34.3818 151.39 34.578C151.583 34.7741 151.732 35.0162 151.838 35.3043C151.943 35.5862 151.996 35.9049 151.996 36.2604V36.4443C151.996 36.8243 151.937 37.1675 151.819 37.474C151.701 37.7743 151.539 38.0348 151.334 38.2554C151.129 38.47 150.883 38.6355 150.597 38.7519C150.311 38.8684 150.001 38.9266 149.665 38.9266ZM149.665 38.1911C150.1 38.1911 150.458 38.044 150.737 37.7498C151.017 37.4495 151.157 37.0143 151.157 36.4443V36.2604C151.157 36.0214 151.12 35.8068 151.045 35.6168C150.97 35.4268 150.868 35.2644 150.737 35.1296C150.607 34.9886 150.448 34.8813 150.262 34.8078C150.081 34.7342 149.882 34.6975 149.665 34.6975C149.447 34.6975 149.245 34.7342 149.059 34.8078C148.878 34.8813 148.723 34.9886 148.592 35.1296C148.462 35.2644 148.359 35.4268 148.285 35.6168C148.21 35.8068 148.173 36.0214 148.173 36.2604V36.4443C148.173 36.714 148.21 36.9591 148.285 37.1798C148.366 37.3943 148.474 37.5782 148.611 37.7314C148.748 37.8785 148.906 37.9919 149.087 38.0716C149.267 38.1513 149.46 38.1911 149.665 38.1911Z" fill="#6A6A6A"/>
    <path d="M144.072 38.9267C143.755 38.9267 143.454 38.8776 143.168 38.7796C142.882 38.6754 142.63 38.5221 142.412 38.3199C142.195 38.1115 142.021 37.851 141.89 37.5384C141.76 37.2258 141.694 36.8611 141.694 36.4444V36.2605C141.694 35.8682 141.76 35.5219 141.89 35.2216C142.021 34.9213 142.195 34.673 142.412 34.4769C142.63 34.2746 142.882 34.1245 143.168 34.0264C143.454 33.9222 143.755 33.8701 144.072 33.8701C144.389 33.8701 144.691 33.9222 144.977 34.0264C145.263 34.1245 145.515 34.2746 145.732 34.4769C145.95 34.673 146.124 34.9213 146.255 35.2216C146.385 35.5219 146.45 35.8682 146.45 36.2605V36.4444C146.45 36.8611 146.385 37.2258 146.255 37.5384C146.124 37.851 145.95 38.1115 145.732 38.3199C145.515 38.5221 145.263 38.6754 144.977 38.7796C144.691 38.8776 144.389 38.9267 144.072 38.9267ZM144.072 38.1912C144.259 38.1912 144.445 38.1605 144.632 38.0992C144.818 38.0318 144.983 37.9307 145.126 37.7958C145.269 37.6549 145.384 37.4741 145.471 37.2534C145.564 37.0328 145.611 36.7631 145.611 36.4444V36.2605C145.611 35.9663 145.564 35.715 145.471 35.5066C145.384 35.2982 145.269 35.1266 145.126 34.9918C144.983 34.8569 144.818 34.7588 144.632 34.6976C144.445 34.6363 144.259 34.6056 144.072 34.6056C143.886 34.6056 143.699 34.6363 143.513 34.6976C143.326 34.7588 143.162 34.8569 143.019 34.9918C142.876 35.1266 142.757 35.2982 142.664 35.5066C142.577 35.715 142.534 35.9663 142.534 36.2605V36.4444C142.534 36.7631 142.577 37.0328 142.664 37.2534C142.757 37.4741 142.876 37.6549 143.019 37.7958C143.162 37.9307 143.326 38.0318 143.513 38.0992C143.699 38.1605 143.886 38.1912 144.072 38.1912Z" fill="#6A6A6A"/>
    <path d="M135.816 38.118H136.423C136.491 38.026 136.553 37.8851 136.609 37.6951C136.665 37.5051 136.715 37.2813 136.758 37.0239C136.802 36.7665 136.833 36.4876 136.852 36.1873C136.876 35.8808 136.889 35.5682 136.889 35.2495V33.9624H140.339V38.118H141.039V39.9843H140.255V38.8351H136.6V39.9843H135.816V38.118ZM139.519 38.118V34.6795H137.691V35.4334C137.691 35.6908 137.682 35.9483 137.663 36.2057C137.644 36.457 137.616 36.6991 137.579 36.932C137.542 37.1588 137.495 37.3763 137.439 37.5847C137.389 37.787 137.33 37.9647 137.262 38.118H139.519Z" fill="#6A6A6A"/>
    <path d="M128.353 33.962H129.173V37.6395L131.728 33.962H132.549V38.8347H131.728V35.1572L129.173 38.8347H128.353V33.962ZM130.451 33.3644C129.966 33.3644 129.611 33.2632 129.388 33.061C129.164 32.8526 129.052 32.5553 129.052 32.1692H129.854C129.854 32.586 130.053 32.7944 130.451 32.7944C130.861 32.7944 131.066 32.586 131.066 32.1692H131.85C131.85 32.5553 131.738 32.8526 131.514 33.061C131.29 33.2632 130.936 33.3644 130.451 33.3644Z" fill="#6A6A6A"/>
    <path d="M124.994 38.9267C124.677 38.9267 124.376 38.8776 124.09 38.7796C123.804 38.6815 123.552 38.5313 123.334 38.3291C123.117 38.1207 122.943 37.8602 122.812 37.5476C122.681 37.235 122.616 36.8673 122.616 36.4444V36.2605C122.616 35.856 122.678 35.5066 122.803 35.2124C122.927 34.9121 123.092 34.6638 123.297 34.4677C123.508 34.2654 123.751 34.1153 124.024 34.0172C124.304 33.9192 124.596 33.8701 124.901 33.8701C125.628 33.8701 126.191 34.0663 126.589 34.4585C126.987 34.8508 127.186 35.4055 127.186 36.1226V36.6374H123.437C123.437 36.9255 123.483 37.1676 123.577 37.3637C123.67 37.5599 123.791 37.7192 123.94 37.8418C124.09 37.9644 124.254 38.0533 124.435 38.1084C124.621 38.1636 124.808 38.1912 124.994 38.1912C125.367 38.1912 125.653 38.1299 125.852 38.0073C126.057 37.8847 126.203 37.7162 126.29 37.5016H127.092C127.043 37.7346 126.953 37.9399 126.822 38.1176C126.698 38.2954 126.542 38.4455 126.356 38.5681C126.175 38.6846 125.967 38.7734 125.731 38.8347C125.501 38.896 125.255 38.9267 124.994 38.9267ZM124.948 34.6056C124.755 34.6056 124.568 34.6332 124.388 34.6884C124.208 34.7374 124.046 34.8201 123.903 34.9366C123.766 35.0469 123.654 35.1879 123.567 35.3595C123.48 35.5311 123.437 35.7364 123.437 35.9755H126.412C126.405 35.7242 126.362 35.5127 126.281 35.3411C126.207 35.1634 126.104 35.0224 125.973 34.9182C125.843 34.8079 125.687 34.7282 125.507 34.6792C125.333 34.6301 125.147 34.6056 124.948 34.6056Z" fill="#6A6A6A"/>
    <path d="M119.403 38.9267C119.086 38.9267 118.785 38.8776 118.499 38.7796C118.213 38.6754 117.961 38.5221 117.743 38.3199C117.526 38.1115 117.352 37.851 117.221 37.5384C117.091 37.2258 117.025 36.8611 117.025 36.4444V36.2605C117.025 35.8682 117.091 35.5219 117.221 35.2216C117.352 34.9213 117.526 34.673 117.743 34.4769C117.961 34.2746 118.213 34.1245 118.499 34.0264C118.785 33.9222 119.086 33.8701 119.403 33.8701C119.72 33.8701 120.022 33.9222 120.308 34.0264C120.594 34.1245 120.846 34.2746 121.063 34.4769C121.281 34.673 121.455 34.9213 121.586 35.2216C121.716 35.5219 121.781 35.8682 121.781 36.2605V36.4444C121.781 36.8611 121.716 37.2258 121.586 37.5384C121.455 37.851 121.281 38.1115 121.063 38.3199C120.846 38.5221 120.594 38.6754 120.308 38.7796C120.022 38.8776 119.72 38.9267 119.403 38.9267ZM119.403 38.1912C119.59 38.1912 119.776 38.1605 119.963 38.0992C120.149 38.0318 120.314 37.9307 120.457 37.7958C120.6 37.6549 120.715 37.4741 120.802 37.2534C120.895 37.0328 120.942 36.7631 120.942 36.4444V36.2605C120.942 35.9663 120.895 35.715 120.802 35.5066C120.715 35.2982 120.6 35.1266 120.457 34.9918C120.314 34.8569 120.149 34.7588 119.963 34.6976C119.776 34.6363 119.59 34.6056 119.403 34.6056C119.217 34.6056 119.03 34.6363 118.844 34.6976C118.657 34.7588 118.493 34.8569 118.35 34.9918C118.207 35.1266 118.089 35.2982 117.995 35.5066C117.908 35.715 117.865 35.9663 117.865 36.2605V36.4444C117.865 36.7631 117.908 37.0328 117.995 37.2534C118.089 37.4741 118.207 37.6549 118.35 37.7958C118.493 37.9307 118.657 38.0318 118.844 38.0992C119.03 38.1605 119.217 38.1912 119.403 38.1912Z" fill="#6A6A6A"/>
    <path d="M112.078 33.9624H114.223C114.832 33.9624 115.279 34.0881 115.565 34.3393C115.851 34.5845 115.994 34.9032 115.994 35.2955C115.994 35.3997 115.976 35.507 115.938 35.6173C115.901 35.7215 115.848 35.8195 115.78 35.9115C115.718 36.0034 115.64 36.0831 115.547 36.1505C115.46 36.2179 115.36 36.27 115.248 36.3068C115.553 36.3804 115.783 36.5213 115.938 36.7297C116.1 36.932 116.181 37.171 116.181 37.4468C116.181 37.8697 116.038 38.2068 115.752 38.4581C115.466 38.7094 115.018 38.8351 114.409 38.8351H112.078V33.9624ZM114.409 38.118C114.757 38.118 115.003 38.0567 115.146 37.9341C115.289 37.8115 115.36 37.6368 115.36 37.4101C115.36 37.1771 115.289 36.9994 115.146 36.8768C115.003 36.7481 114.757 36.6837 114.409 36.6837H112.898V38.118H114.409ZM114.223 36.0218C114.577 36.0218 114.822 35.9605 114.959 35.8379C115.102 35.7153 115.174 35.5468 115.174 35.3323C115.174 35.13 115.102 34.9706 114.959 34.8542C114.822 34.7377 114.577 34.6795 114.223 34.6795H112.898V36.0218H114.223Z" fill="#6A6A6A"/>
    <path d="M108.908 38.9267C108.591 38.9267 108.295 38.8776 108.022 38.7796C107.748 38.6754 107.512 38.5221 107.313 38.3199C107.114 38.1115 106.955 37.851 106.837 37.5384C106.725 37.2258 106.669 36.8611 106.669 36.4444V36.2605C106.669 35.8682 106.732 35.5219 106.856 35.2216C106.98 34.9213 107.145 34.673 107.35 34.4769C107.555 34.2746 107.792 34.1245 108.059 34.0264C108.332 33.9222 108.615 33.8701 108.908 33.8701C109.2 33.8701 109.461 33.91 109.691 33.9896C109.927 34.0693 110.129 34.1796 110.297 34.3206C110.471 34.4616 110.611 34.6271 110.717 34.8171C110.829 35.0071 110.909 35.2124 110.959 35.4331H110.12C110.07 35.3166 110.011 35.2093 109.943 35.1113C109.881 35.0071 109.8 34.9182 109.7 34.8447C109.607 34.7711 109.495 34.7129 109.365 34.67C109.234 34.6271 109.082 34.6056 108.908 34.6056C108.727 34.6056 108.553 34.6393 108.385 34.7067C108.217 34.768 108.068 34.8661 107.938 35.0009C107.807 35.1297 107.701 35.2982 107.621 35.5066C107.546 35.715 107.509 35.9663 107.509 36.2605V36.4444C107.509 36.757 107.546 37.0266 107.621 37.2534C107.701 37.4741 107.807 37.6549 107.938 37.7958C108.068 37.9307 108.217 38.0318 108.385 38.0992C108.553 38.1605 108.727 38.1912 108.908 38.1912C109.212 38.1912 109.467 38.1176 109.672 37.9705C109.884 37.8234 110.033 37.6212 110.12 37.3637H110.959C110.841 37.8479 110.599 38.231 110.232 38.513C109.865 38.7888 109.424 38.9267 108.908 38.9267Z" fill="#6A6A6A"/>
    <path d="M99.7656 33.9624H100.586V35.8012H101.771C102.392 35.8012 102.849 35.936 103.141 36.2057C103.44 36.4754 103.589 36.8492 103.589 37.3273C103.589 37.7931 103.44 38.1609 103.141 38.4306C102.849 38.7002 102.392 38.8351 101.771 38.8351H99.7656V33.9624ZM101.724 38.118C102.109 38.118 102.38 38.0506 102.535 37.9157C102.691 37.7809 102.768 37.5817 102.768 37.3181C102.768 37.0546 102.691 36.8554 102.535 36.7205C102.38 36.5857 102.109 36.5183 101.724 36.5183H100.586V38.118H101.724Z" fill="#6A6A6A"/>
    <path d="M96.5951 38.9267C96.278 38.9267 95.9827 38.8776 95.7091 38.7796C95.4356 38.6754 95.1993 38.5221 95.0004 38.3199C94.8015 38.1115 94.6429 37.851 94.5248 37.5384C94.4129 37.2258 94.3569 36.8611 94.3569 36.4444V36.2605C94.3569 35.8682 94.4191 35.5219 94.5434 35.2216C94.6678 34.9213 94.8325 34.673 95.0377 34.4769C95.2429 34.2746 95.4791 34.1245 95.7464 34.0264C96.02 33.9222 96.3029 33.8701 96.5951 33.8701C96.8873 33.8701 97.1484 33.91 97.3784 33.9896C97.6147 34.0693 97.8167 34.1796 97.9846 34.3206C98.1587 34.4616 98.2985 34.6271 98.4042 34.8171C98.5161 35.0071 98.597 35.2124 98.6467 35.4331H97.8074C97.7577 35.3166 97.6986 35.2093 97.6302 35.1113C97.568 35.0071 97.4872 34.9182 97.3877 34.8447C97.2945 34.7711 97.1826 34.7129 97.052 34.67C96.9215 34.6271 96.7691 34.6056 96.5951 34.6056C96.4148 34.6056 96.2407 34.6393 96.0728 34.7067C95.905 34.768 95.7558 34.8661 95.6252 35.0009C95.4947 35.1297 95.389 35.2982 95.3081 35.5066C95.2335 35.715 95.1962 35.9663 95.1962 36.2605V36.4444C95.1962 36.757 95.2335 37.0266 95.3081 37.2534C95.389 37.4741 95.4947 37.6549 95.6252 37.7958C95.7558 37.9307 95.905 38.0318 96.0728 38.0992C96.2407 38.1605 96.4148 38.1912 96.5951 38.1912C96.8997 38.1912 97.1546 38.1176 97.3598 37.9705C97.5711 37.8234 97.7204 37.6212 97.8074 37.3637H98.6467C98.5286 37.8479 98.2861 38.231 97.9193 38.513C97.5525 38.7888 97.1111 38.9267 96.5951 38.9267Z" fill="#6A6A6A"/>
    <path d="M88.9917 33.9624H89.8123V37.6399L92.3675 33.9624H93.1882V38.8351H92.3675V35.1576L89.8123 38.8351H88.9917V33.9624Z" fill="#6A6A6A"/>
    <path d="M83.3042 38.927C83.2109 38.927 83.1177 38.9178 83.0244 38.8994V38.0904C83.0555 38.0965 83.1021 38.0996 83.1643 38.0996C83.3011 38.0996 83.4192 38.0567 83.5187 37.9709C83.6244 37.8851 83.7083 37.7349 83.7705 37.5204C83.8326 37.3059 83.8793 37.0147 83.9103 36.647C83.9414 36.2792 83.957 35.8134 83.957 35.2495V33.9624H87.5007V38.8351H86.68V34.6795H84.7776V35.4334C84.7776 36.1137 84.7465 36.6776 84.6844 37.125C84.6222 37.5725 84.5289 37.931 84.4046 38.2007C84.2865 38.4643 84.1342 38.6512 83.9476 38.7615C83.7611 38.8719 83.5466 38.927 83.3042 38.927Z" fill="#6A6A6A"/>
    <path d="M80.2701 38.9267C79.953 38.9267 79.6515 38.8776 79.3655 38.7796C79.0795 38.6815 78.8278 38.5313 78.6102 38.3291C78.3926 38.1207 78.2185 37.8602 78.0879 37.5476C77.9574 37.235 77.8921 36.8673 77.8921 36.4444V36.2605C77.8921 35.856 77.9543 35.5066 78.0786 35.2124C78.2029 34.9121 78.3677 34.6638 78.5729 34.4677C78.7842 34.2654 79.0267 34.1153 79.3002 34.0172C79.58 33.9192 79.8722 33.8701 80.1769 33.8701C80.9042 33.8701 81.4669 34.0663 81.8648 34.4585C82.2627 34.8508 82.4616 35.4055 82.4616 36.1226V36.6374H78.7127C78.7127 36.9255 78.7594 37.1676 78.8526 37.3637C78.9459 37.5599 79.0671 37.7192 79.2163 37.8418C79.3655 37.9644 79.5303 38.0533 79.7106 38.1084C79.8971 38.1636 80.0836 38.1912 80.2701 38.1912C80.6431 38.1912 80.9291 38.1299 81.1281 38.0073C81.3332 37.8847 81.4793 37.7162 81.5664 37.5016H82.3684C82.3186 37.7346 82.2285 37.9399 82.0979 38.1176C81.9736 38.2954 81.8181 38.4455 81.6316 38.5681C81.4513 38.6846 81.2431 38.7734 81.0068 38.8347C80.7768 38.896 80.5312 38.9267 80.2701 38.9267ZM80.2235 34.6056C80.0308 34.6056 79.8442 34.6332 79.6639 34.6884C79.4837 34.7374 79.322 34.8201 79.179 34.9366C79.0422 35.0469 78.9303 35.1879 78.8433 35.3595C78.7563 35.5311 78.7127 35.7364 78.7127 35.9755H81.6876C81.6814 35.7242 81.6379 35.5127 81.557 35.3411C81.4824 35.1634 81.3798 35.0224 81.2493 34.9182C81.1187 34.8079 80.9633 34.7282 80.783 34.6792C80.6089 34.6301 80.4224 34.6056 80.2235 34.6056Z" fill="#6A6A6A"/>
    <path d="M72.0132 38.118H72.6193C72.6877 38.026 72.7499 37.8851 72.8059 37.6951C72.8618 37.5051 72.9115 37.2813 72.9551 37.0239C72.9986 36.7665 73.0297 36.4876 73.0483 36.1873C73.0732 35.8808 73.0856 35.5682 73.0856 35.2495V33.9624H76.5361V38.118H77.2355V39.9843H76.4521V38.8351H72.7965V39.9843H72.0132V38.118ZM75.7154 38.118V34.6795H73.8876V35.4334C73.8876 35.6908 73.8783 35.9483 73.8596 36.2057C73.841 36.457 73.813 36.6991 73.7757 36.932C73.7384 37.1588 73.6918 37.3763 73.6358 37.5847C73.5861 37.787 73.527 37.9647 73.4586 38.118H75.7154Z" fill="#6A6A6A"/>
    <path d="M69.1236 38.9267C68.8066 38.9267 68.505 38.8776 68.219 38.7796C67.9331 38.6754 67.6813 38.5221 67.4637 38.3199C67.2461 38.1115 67.072 37.851 66.9414 37.5384C66.8109 37.2258 66.7456 36.8611 66.7456 36.4444V36.2605C66.7456 35.8682 66.8109 35.5219 66.9414 35.2216C67.072 34.9213 67.2461 34.673 67.4637 34.4769C67.6813 34.2746 67.9331 34.1245 68.219 34.0264C68.505 33.9222 68.8066 33.8701 69.1236 33.8701C69.4407 33.8701 69.7422 33.9222 70.0282 34.0264C70.3142 34.1245 70.566 34.2746 70.7836 34.4769C71.0012 34.673 71.1752 34.9213 71.3058 35.2216C71.4364 35.5219 71.5016 35.8682 71.5016 36.2605V36.4444C71.5016 36.8611 71.4364 37.2258 71.3058 37.5384C71.1752 37.851 71.0012 38.1115 70.7836 38.3199C70.566 38.5221 70.3142 38.6754 70.0282 38.7796C69.7422 38.8776 69.4407 38.9267 69.1236 38.9267ZM69.1236 38.1912C69.3101 38.1912 69.4966 38.1605 69.6832 38.0992C69.8697 38.0318 70.0344 37.9307 70.1774 37.7958C70.3204 37.6549 70.4354 37.4741 70.5225 37.2534C70.6157 37.0328 70.6623 36.7631 70.6623 36.4444V36.2605C70.6623 35.9663 70.6157 35.715 70.5225 35.5066C70.4354 35.2982 70.3204 35.1266 70.1774 34.9918C70.0344 34.8569 69.8697 34.7588 69.6832 34.6976C69.4966 34.6363 69.3101 34.6056 69.1236 34.6056C68.9371 34.6056 68.7506 34.6363 68.5641 34.6976C68.3776 34.7588 68.2128 34.8569 68.0698 34.9918C67.9268 35.1266 67.8087 35.2982 67.7155 35.5066C67.6284 35.715 67.5849 35.9663 67.5849 36.2605V36.4444C67.5849 36.7631 67.6284 37.0328 67.7155 37.2534C67.8087 37.4741 67.9268 37.6549 68.0698 37.7958C68.2128 37.9307 68.3776 38.0318 68.5641 38.0992C68.7506 38.1605 68.9371 38.1912 69.1236 38.1912Z" fill="#6A6A6A"/>
    <path d="M60.2642 32.3999H65.3932V38.8355H64.5166V33.1538H61.1408V38.8355H60.2642V32.3999Z" fill="#6A6A6A"/>
    <defs>
        <linearGradient id="paint0_linear_1547_1178" x1="-0.000976562" y1="24.0083" x2="46.93" y2="24.0083" gradientUnits="userSpaceOnUse">
            <stop stop-color="#FF512F"/>
            <stop offset="1" stop-color="#F09819"/>
        </linearGradient>
        <clipPath id="clip0_1547_1178">
            <rect width="46.9305" height="48" fill="white"/>
        </clipPath>
    </defs>
</svg>
