<svg width="148" height="32" viewBox="0 0 148 32" fill="none" xmlns="http://www.w3.org/2000/svg">
    <g clip-path="url(#clip0_1994_14765)">
        <path d="M20.2035 9.29769C18.8768 10.1205 18.7222 10.2968 17.8536 11.0725C17.8179 11.1078 17.7762 11.1489 17.7227 11.1137C17.6632 11.0784 17.6572 11.0138 17.6691 10.955C17.9785 9.37997 18.6389 8.05765 19.4301 7.09971C20.3641 5.97134 21.7206 4.97225 21.4826 4.76068C21.4231 4.70779 21.3458 4.72542 21.2803 4.75481C21.0662 4.85472 20.846 4.95462 20.6319 5.06629C20.144 5.32487 19.7276 5.67749 19.2992 6.01835C19.2635 6.04774 19.2278 6.10651 19.1684 6.07124C19.1208 6.04774 19.1327 5.98897 19.1327 5.94783C19.1208 5.07216 19.1981 4.22588 18.8709 4.45508C18.5794 4.6549 18.4782 5.28373 18.4544 5.63635C18.4247 6.03011 18.3474 6.41798 18.4366 6.81174C18.4842 7.02919 18.4068 7.22313 18.2879 7.39944C18.1034 7.68741 17.9488 7.99301 17.7881 8.29273C16.866 10.0382 16.3544 11.8013 16.2056 13.3234C16.0985 14.393 16.0748 15.539 16.7827 16.3618C17.1635 16.8026 16.9493 16.9495 16.8719 17.1493C16.7649 17.4138 16.3187 18.4422 16.3306 18.595C16.3306 18.595 16.3306 19.5882 16.3544 28.1098C16.3544 28.1803 16.3365 28.2567 16.3901 28.3273C16.4615 28.2744 16.5031 28.2097 16.5447 28.1509C17.9785 26.1469 22.5951 22.2505 22.5832 22.18C22.6546 22.1917 22.6962 22.1388 22.7379 22.0977C26.3015 18.8007 28.8953 15.8446 29.7044 11.1431C29.8115 10.5201 29.8353 9.06261 29.6985 8.31624C28.7645 3.08575 23.5172 -0.0760459 18.4187 1.53424C17.7227 1.75756 17.0623 2.08667 16.3901 2.37464C16.3663 2.36877 16.3425 2.35113 16.3306 2.39227L16.3365 2.39815L16.3425 2.39227C16.4734 2.35701 19.6264 -0.734264 23.8266 0.170786C30.573 1.62827 33.9105 9.46224 28.818 17.3432C25.189 22.9557 18.1332 26.7757 16.2651 30.6016C16.2354 30.6604 16.1164 30.8837 15.6881 31.924C15.6702 31.9651 15.6583 32.0062 15.6107 32.0062C15.4739 32.0003 15.4322 31.4773 15.0217 30.6487C14.9979 30.6016 14.7659 30.155 14.7302 30.0845C11.7913 25.1302 1.40395 20.5285 0.112967 11.1783C0.071322 10.8786 0.0832205 10.5789 0.0415758 10.285C-0.0774088 9.37997 0.0415758 7.64627 0.565108 6.22992C1.28496 4.27877 2.47481 2.77427 3.77174 1.81046C5.58031 0.458757 7.63279 -0.0760459 9.20339 0.0414931C11.1785 0.188417 12.4636 0.60568 14.3792 1.98676C14.4685 2.05141 14.5874 2.09843 14.6469 2.24535C13.9271 1.96913 13.0109 1.47547 11.5117 1.22276C11.0655 1.14636 10.6074 1.12873 10.1493 1.13461C4.24173 1.14048 -0.214241 6.82937 2.10001 13.2117C3.3434 16.6498 4.94969 18.5833 7.609 21.1985C8.44784 22.0272 9.35212 22.7794 10.2445 23.5493C14.9028 27.5633 14.4506 28.1274 14.7957 28.3155C14.9206 28.1392 14.8552 24.09 14.8968 19.8057C14.9028 18.8889 14.7064 18.025 14.3554 17.1904C14.2364 16.9025 14.2245 16.685 14.4447 16.4264C15.0336 15.7388 15.1407 14.8925 15.111 14.0345C15.0931 13.4586 15.0217 12.8885 14.8968 12.3243C13.9806 8.08116 12.7253 7.80494 12.8324 6.74122C12.8919 6.11826 12.8741 5.47767 12.642 4.87822C12.5945 4.74893 12.5112 4.37281 12.297 4.43158C12.2375 4.44921 12.2434 4.49622 12.2375 4.54324C12.1007 5.26023 12.2553 5.43653 12.0888 6.19466C12.0174 6.11826 11.9638 6.05361 11.8984 6.00072C11.4581 5.64223 10.5063 4.84884 9.94704 4.71955C9.87565 4.70191 9.79236 4.69016 9.74477 4.75481C9.45326 5.14856 11.3273 6.05361 12.6063 8.22221C13.1834 9.20366 13.9747 11.6015 13.3857 11.049C13.3024 10.9726 13.231 10.8903 13.1477 10.8081C12.6063 10.2674 11.9698 9.86188 11.3154 9.47987C9.18554 8.23984 8.69176 6.54728 8.50138 5.46592C8.31101 4.39631 8.26936 3.456 8.19202 2.92708C8.17417 2.79191 8.22772 2.73314 8.3705 2.73901C9.85186 2.78603 11.5414 2.82717 12.9514 3.83213C14.2067 4.7313 15.0336 5.89494 15.5096 7.76381C15.5334 7.85784 15.5215 8.01651 15.6524 8.01651C15.7535 8.01651 15.7713 7.86371 15.7951 7.76968C15.9617 7.19374 16.1461 6.62368 16.4139 6.08887C16.8838 5.14856 17.5621 4.38456 18.4128 3.76748C19.2457 3.16803 22.3036 2.72138 22.8509 2.73901C23.0473 2.74489 23.0591 2.75664 23.0651 2.94471C23.071 3.66757 22.9997 4.38456 22.8985 5.10155C22.6903 6.48263 21.8515 8.28098 20.2035 9.29769Z" fill="url(#paint0_linear_1994_14765)"/>
        <path d="M14.1297 15.0852C14.1059 15.3438 14.0464 15.6024 13.8858 15.8198C13.7728 15.9667 13.743 15.9667 13.6419 15.8022C13.4039 15.4084 13.1362 15.0323 12.8447 14.6738C12.4401 14.1919 11.982 13.757 11.4942 13.3574C11.3336 13.2281 11.2265 13.0753 11.1848 12.8696C11.1075 12.5052 11.0123 12.1467 10.8279 11.8176C10.7268 11.6354 10.6078 11.465 10.4352 11.3475C10.2746 11.2417 10.2032 11.2828 10.1973 11.4709C10.1973 11.5355 10.2032 11.6002 10.2032 11.6707C10.1913 11.8588 10.2508 12.0409 10.2687 12.229C10.2746 12.3289 10.2389 12.3759 10.1318 12.3348C10.0961 12.323 10.0604 12.3172 10.0307 12.2995C9.6797 12.1644 9.33464 12.0057 8.98364 11.8764C8.8468 11.8235 8.70402 11.8294 8.57314 11.7647C8.29947 11.6413 8.01986 11.5767 7.71645 11.6472C7.6867 11.6531 7.63911 11.6472 7.63316 11.6942C7.62721 11.7353 7.65696 11.753 7.6867 11.7765C7.81164 11.8705 7.95442 11.9352 8.0853 12.0233C8.57909 12.3583 9.09072 12.6756 9.59641 12.993C9.92956 13.1928 10.2984 13.3221 10.6316 13.5102C11.5418 14.0273 12.1784 14.8207 12.7376 15.6788C12.8506 15.8492 12.8923 16.0549 13.0351 16.2136L13.0291 16.2606C12.6662 16.2547 12.3033 16.2547 11.9404 16.2312C11.2384 16.1783 10.5602 16.049 9.89982 15.8022C8.60883 15.3203 7.60341 14.4975 6.88951 13.3339C6.59205 12.8461 6.34813 12.3348 6.13395 11.8059C5.98522 11.4474 5.8008 11.1065 5.62232 10.7598C5.58663 10.6892 5.52713 10.6187 5.65802 10.5482C6.14585 10.2896 6.65154 10.0898 7.18697 9.95462C7.55582 9.86059 7.93657 9.80182 8.31732 9.7548C9.05503 9.66077 9.77488 9.74893 10.4709 9.984C11.0897 10.1956 11.631 10.5423 12.1427 10.9361C12.6841 11.3475 13.1778 11.8117 13.5526 12.3877C14.1119 13.3691 14.1892 14.4329 14.1297 15.0852Z" fill="#F25822"/>
        <path d="M18.401 16.2728C18.3118 16.2728 18.2523 16.2376 18.3059 16.1318C18.8234 15.1503 19.5076 14.2982 20.4178 13.6399C20.6796 13.4519 20.9949 13.3696 21.2864 13.2286C21.8516 12.9523 22.3513 12.5821 22.8868 12.253C23.1009 12.1237 23.3151 12.0003 23.5293 11.871C23.6066 11.824 23.7196 11.7711 23.6959 11.677C23.6661 11.5595 23.5412 11.6065 23.4579 11.6065C23.0176 11.63 22.5952 11.7593 22.1847 11.918C21.8099 12.059 21.4292 12.1942 21.0722 12.3823C21.0425 12.3999 21.0008 12.4352 20.9592 12.3999C20.9116 12.3646 20.9354 12.3176 20.9414 12.2706C20.989 11.9591 21.0484 11.6535 21.0425 11.3362C21.0425 11.2774 21.0603 11.2069 20.983 11.1775C20.9116 11.1481 20.8521 11.1893 20.8045 11.2363C20.2512 11.7652 20.1561 12.3294 20.043 12.97C20.0073 13.1639 19.8467 13.2756 19.7099 13.3872C18.8591 14.0748 18.1809 14.9035 17.6038 15.8262C17.5027 15.9907 17.4492 15.9966 17.3302 15.832C17.1339 15.5558 17.0625 15.2326 17.0446 14.9035C16.9732 13.5694 17.4968 12.4763 18.4248 11.5478C19.6325 10.3371 21.0603 9.79054 22.1491 9.76703C22.6488 9.75528 23.1545 9.73765 23.6483 9.83756C24.493 10.008 25.2664 10.3312 25.6293 10.5604C25.7126 10.6133 25.7364 10.6603 25.6888 10.7544C24.9749 12.1766 24.3384 14.8153 21.0841 15.9084C20.1323 16.2376 19.3589 16.2963 18.401 16.2728Z" fill="#F25822"/>
    </g>
    <path d="M137.603 8.49893H140.35V9.87222C140.608 9.42717 141.008 9.0457 141.55 8.72781C142.104 8.40992 142.839 8.25098 143.755 8.25098C144.98 8.25098 145.903 8.58158 146.522 9.24279C147.154 9.89129 147.47 10.8195 147.47 12.0275V18.6078H144.49V12.6951C144.49 12.0339 144.342 11.538 144.045 11.2074C143.762 10.864 143.291 10.6924 142.633 10.6924C142.272 10.6924 141.962 10.7496 141.704 10.864C141.446 10.9658 141.234 11.1056 141.066 11.2836C140.898 11.4617 140.776 11.6778 140.698 11.9321C140.621 12.1737 140.582 12.4281 140.582 12.6951V18.6078H137.603V8.49893Z" fill="#2C2D35"/>
    <path d="M130.392 18.8549C129.218 18.8549 128.322 18.5243 127.703 17.8631C127.083 17.2019 126.774 16.1973 126.774 14.8495V8.49805H129.753V14.3917C129.753 15.0529 129.889 15.5552 130.16 15.8985C130.443 16.2419 130.895 16.4135 131.514 16.4135C132.185 16.4135 132.675 16.2228 132.984 15.8413C133.307 15.4471 133.468 14.9639 133.468 14.3917V8.49805H136.447V18.607H133.7V17.2337C133.442 17.6787 133.036 18.0602 132.481 18.3781C131.927 18.696 131.23 18.8549 130.392 18.8549Z" fill="#2C2D35"/>
    <path d="M115.931 5.25684H118.91V9.77723C119.013 9.61193 119.155 9.44027 119.336 9.26225C119.516 9.08423 119.736 8.91893 119.994 8.76634C120.264 8.61376 120.574 8.49296 120.922 8.40395C121.27 8.30222 121.657 8.25136 122.083 8.25136C123.308 8.25136 124.23 8.58197 124.85 9.24318C125.482 9.89167 125.798 10.8136 125.798 12.0088V18.6082H122.818V12.6955C122.818 12.0343 122.67 11.5383 122.373 11.2077C122.089 10.8644 121.619 10.6928 120.961 10.6928C120.239 10.6928 119.716 10.8835 119.394 11.265C119.071 11.6464 118.91 12.1233 118.91 12.6955V18.6082H115.931V5.25684Z" fill="#2C2D35"/>
    <path d="M110.413 18.8558C109.652 18.8558 108.95 18.7477 108.305 18.5315C107.673 18.3154 107.124 17.9911 106.66 17.5588C106.196 17.1265 105.835 16.5861 105.577 15.9376C105.319 15.2891 105.19 14.5261 105.19 13.6487V13.2673C105.19 12.4662 105.325 11.7541 105.596 11.1311C105.88 10.508 106.254 9.98666 106.718 9.56704C107.195 9.13471 107.75 8.81046 108.382 8.5943C109.014 8.36542 109.691 8.25098 110.413 8.25098C111.187 8.25098 111.864 8.3527 112.445 8.55615C113.038 8.7596 113.535 9.03934 113.935 9.39538C114.334 9.7387 114.644 10.1456 114.863 10.6161C115.082 11.0866 115.211 11.5888 115.25 12.1229H112.193C112.09 11.6651 111.897 11.3154 111.613 11.0738C111.342 10.8195 110.942 10.6924 110.413 10.6924C109.781 10.6924 109.259 10.9085 108.846 11.3409C108.446 11.7605 108.247 12.4026 108.247 13.2673V13.6487C108.247 14.5897 108.44 15.2827 108.827 15.7277C109.227 16.1728 109.756 16.3953 110.413 16.3953C110.865 16.3953 111.245 16.2809 111.555 16.052C111.877 15.8104 112.09 15.4544 112.193 14.9839H115.25C115.211 15.5815 115.07 16.1219 114.824 16.6051C114.579 17.0756 114.244 17.4761 113.818 17.8068C113.406 18.1374 112.909 18.398 112.329 18.5888C111.761 18.7668 111.123 18.8558 110.413 18.8558Z" fill="#2C2D35"/>
    <path d="M98.3125 18.8562C97.4096 18.8562 96.5906 18.7417 95.8554 18.5129C95.1331 18.2713 94.514 17.9216 93.9981 17.4638C93.4951 16.9933 93.1017 16.4084 92.818 15.7091C92.5471 15.0097 92.4117 14.1959 92.4117 13.2677V5.25684H95.8941V12.8671C95.8941 13.8971 96.0747 14.6791 96.4358 15.2132C96.797 15.7345 97.4225 15.9952 98.3125 15.9952C99.2282 15.9952 99.8602 15.7345 100.208 15.2132C100.557 14.6791 100.731 13.9034 100.731 12.8862V5.25684H104.213V13.2677C104.213 14.1959 104.078 15.0097 103.807 15.7091C103.536 16.4084 103.143 16.9933 102.627 17.4638C102.124 17.9216 101.505 18.2713 100.77 18.5129C100.047 18.7417 99.2282 18.8562 98.3125 18.8562Z" fill="#2C2D35"/>
    <path d="M77.2151 8.49893H79.9623V9.87222C80.2203 9.42717 80.6201 9.0457 81.1618 8.72781C81.7165 8.40992 82.4516 8.25098 83.3674 8.25098C84.5927 8.25098 85.5149 8.58158 86.134 9.24279C86.766 9.89129 87.082 10.8195 87.082 12.0275V18.6078H84.1026V12.6951C84.1026 12.0339 83.9542 11.538 83.6576 11.2074C83.3738 10.864 82.9031 10.6924 82.2453 10.6924C81.8841 10.6924 81.5746 10.7496 81.3166 10.864C81.0587 10.9658 80.8459 11.1056 80.6782 11.2836C80.5105 11.4617 80.388 11.6778 80.3106 11.9321C80.2332 12.1737 80.1945 12.4281 80.1945 12.6951V18.6078H77.2151V8.49893Z" fill="#2C2D35"/>
    <path d="M71.2254 18.8558C70.5031 18.8558 69.826 18.7541 69.194 18.5506C68.562 18.3344 68.0074 18.0102 67.5302 17.5779C67.0529 17.1455 66.6789 16.6051 66.4081 15.9566C66.1372 15.2954 66.0018 14.5261 66.0018 13.6487V13.2673C66.0018 12.4408 66.1372 11.716 66.4081 11.0929C66.6789 10.4698 67.0529 9.94851 67.5302 9.5289C68.0074 9.10928 68.562 8.79139 69.194 8.57523C69.826 8.35906 70.5031 8.25098 71.2254 8.25098C71.9477 8.25098 72.6248 8.35906 73.2568 8.57523C73.8888 8.79139 74.4435 9.10928 74.9207 9.5289C75.3979 9.94851 75.7719 10.4698 76.0428 11.0929C76.3137 11.716 76.4491 12.4408 76.4491 13.2673V13.6487C76.4491 14.5134 76.3137 15.2763 76.0428 15.9376C75.7719 16.5861 75.3979 17.1265 74.9207 17.5588C74.4435 17.9911 73.8888 18.3154 73.2568 18.5315C72.6248 18.7477 71.9477 18.8558 71.2254 18.8558ZM71.2254 16.4144C71.9219 16.4144 72.4572 16.1664 72.8312 15.6705C73.2053 15.1746 73.3923 14.5007 73.3923 13.6487V13.2673C73.3923 12.5043 73.2053 11.8876 72.8312 11.4172C72.4572 10.934 71.9219 10.6924 71.2254 10.6924C70.5289 10.6924 69.9937 10.934 69.6196 11.4172C69.2456 11.8876 69.0586 12.5043 69.0586 13.2673V13.6487C69.0586 14.5261 69.2456 15.2064 69.6196 15.6896C69.9937 16.1728 70.5289 16.4144 71.2254 16.4144Z" fill="#2C2D35"/>
    <path d="M60.7862 18.8558C59.9478 18.8558 59.2255 18.7731 58.6193 18.6078C58.026 18.4298 57.5359 18.1946 57.149 17.9021C56.762 17.5969 56.4718 17.2473 56.2784 16.8531C56.0849 16.4462 55.9753 16.0139 55.9495 15.5561H58.9289C59.0063 15.8485 59.1739 16.0965 59.4319 16.3C59.6899 16.5034 60.1413 16.6051 60.7862 16.6051C61.444 16.6051 61.9147 16.5161 62.1985 16.3381C62.4952 16.1601 62.6435 15.9248 62.6435 15.6324C62.6435 15.5179 62.6112 15.4162 62.5467 15.3272C62.4823 15.2255 62.3597 15.1365 62.1792 15.0602C62.0115 14.9712 61.7793 14.8885 61.4827 14.8122C61.186 14.7359 60.8055 14.6596 60.3412 14.5833C59.7737 14.4943 59.2384 14.3799 58.7354 14.24C58.2324 14.1002 57.7939 13.9158 57.4198 13.6869C57.0587 13.4453 56.7685 13.1401 56.5492 12.7714C56.3428 12.4026 56.2397 11.9385 56.2397 11.379C56.2397 10.934 56.3428 10.5207 56.5492 10.1392C56.7556 9.75778 57.0522 9.42717 57.4392 9.14743C57.839 8.86768 58.3162 8.65152 58.8708 8.49893C59.4383 8.33363 60.0768 8.25098 60.7862 8.25098C61.5859 8.25098 62.2565 8.34634 62.7983 8.53708C63.3529 8.72781 63.8043 8.98212 64.1525 9.30001C64.5008 9.60519 64.7587 9.95487 64.9264 10.3491C65.0941 10.7432 65.1973 11.1438 65.236 11.5507H62.2565C62.1792 11.2201 62.0115 10.9658 61.7535 10.7877C61.4956 10.597 61.1731 10.5016 60.7862 10.5016C60.1929 10.5016 59.7801 10.5906 59.548 10.7687C59.3287 10.9467 59.2191 11.1565 59.2191 11.3981C59.2191 11.6651 59.3997 11.8749 59.7608 12.0275C60.1219 12.1674 60.6959 12.2882 61.4827 12.3899C62.0373 12.4662 62.5661 12.5743 63.0691 12.7142C63.5721 12.854 64.0107 13.0511 64.3847 13.3054C64.7716 13.547 65.0747 13.8586 65.294 14.24C65.5133 14.6088 65.6229 15.0602 65.6229 15.5942C65.6229 16.5606 65.2102 17.349 64.3847 17.9593C63.5721 18.557 62.3726 18.8558 60.7862 18.8558Z" fill="#2C2D35"/>
    <path d="M45.3967 8.49893H48.1439V9.87222C48.4019 9.42717 48.8017 9.0457 49.3434 8.72781C49.898 8.40992 50.6332 8.25098 51.549 8.25098C52.7743 8.25098 53.6965 8.58158 54.3156 9.24279C54.9476 9.89129 55.2636 10.8195 55.2636 12.0275V18.6078H52.2842V12.6951C52.2842 12.0339 52.1358 11.538 51.8392 11.2074C51.5554 10.864 51.0846 10.6924 50.4269 10.6924C50.0657 10.6924 49.7562 10.7496 49.4982 10.864C49.2402 10.9658 49.0274 11.1056 48.8598 11.2836C48.6921 11.4617 48.5696 11.6778 48.4922 11.9321C48.4148 12.1737 48.3761 12.4281 48.3761 12.6951V18.6078H45.3967V8.49893Z" fill="#2C2D35"/>
    <path d="M40.1758 5.25684H43.6582V18.6082H40.1758V5.25684Z" fill="#2C2D35"/>
    <path d="M116.313 22.6415H116.861V25.0931L118.564 22.6415H119.111V25.8899H118.564V23.4383L116.861 25.8899H116.313V22.6415ZM117.712 22.2431C117.389 22.2431 117.153 22.1757 117.004 22.0408C116.854 21.9019 116.78 21.7037 116.78 21.4463H117.314C117.314 21.7241 117.447 21.8631 117.712 21.8631C117.986 21.8631 118.123 21.7241 118.123 21.4463H118.645C118.645 21.7037 118.57 21.9019 118.421 22.0408C118.272 22.1757 118.036 22.2431 117.712 22.2431Z" fill="#6A6A6A"/>
    <path d="M113.953 25.9511C113.742 25.9511 113.541 25.9184 113.35 25.853C113.159 25.7836 112.992 25.6814 112.847 25.5466C112.701 25.4077 112.585 25.234 112.498 25.0256C112.411 24.8172 112.368 24.5741 112.368 24.2962V24.1737C112.368 23.9121 112.411 23.6813 112.498 23.4811C112.585 23.2808 112.701 23.1154 112.847 22.9846C112.992 22.8498 113.159 22.7497 113.35 22.6843C113.541 22.6148 113.742 22.5801 113.953 22.5801C114.165 22.5801 114.366 22.6148 114.556 22.6843C114.747 22.7497 114.915 22.8498 115.06 22.9846C115.205 23.1154 115.321 23.2808 115.408 23.4811C115.495 23.6813 115.538 23.9121 115.538 24.1737V24.2962C115.538 24.5741 115.495 24.8172 115.408 25.0256C115.321 25.234 115.205 25.4077 115.06 25.5466C114.915 25.6814 114.747 25.7836 114.556 25.853C114.366 25.9184 114.165 25.9511 113.953 25.9511ZM113.953 25.4608C114.077 25.4608 114.202 25.4404 114.326 25.3995C114.451 25.3545 114.56 25.2871 114.656 25.1972C114.751 25.1032 114.828 24.9827 114.886 24.8356C114.948 24.6885 114.979 24.5087 114.979 24.2962V24.1737C114.979 23.9775 114.948 23.81 114.886 23.6711C114.828 23.5321 114.751 23.4177 114.656 23.3278C114.56 23.2379 114.451 23.1726 114.326 23.1317C114.202 23.0908 114.077 23.0704 113.953 23.0704C113.829 23.0704 113.704 23.0908 113.58 23.1317C113.456 23.1726 113.346 23.2379 113.251 23.3278C113.155 23.4177 113.077 23.5321 113.014 23.6711C112.956 23.81 112.927 23.9775 112.927 24.1737V24.2962C112.927 24.5087 112.956 24.6885 113.014 24.8356C113.077 24.9827 113.155 25.1032 113.251 25.1972C113.346 25.2871 113.456 25.3545 113.58 25.3995C113.704 25.4404 113.829 25.4608 113.953 25.4608Z" fill="#6A6A6A"/>
    <path d="M110.35 23.1197H109.225V22.6416H112.023V23.1197H110.897V25.8901H110.35V23.1197Z" fill="#6A6A6A"/>
    <path d="M107.299 25.9511C107.087 25.9511 106.886 25.9184 106.696 25.853C106.505 25.7836 106.337 25.6814 106.192 25.5466C106.047 25.4077 105.931 25.234 105.844 25.0256C105.757 24.8172 105.713 24.5741 105.713 24.2962V24.1737C105.713 23.9121 105.757 23.6813 105.844 23.4811C105.931 23.2808 106.047 23.1154 106.192 22.9846C106.337 22.8498 106.505 22.7497 106.696 22.6843C106.886 22.6148 107.087 22.5801 107.299 22.5801C107.51 22.5801 107.711 22.6148 107.902 22.6843C108.092 22.7497 108.26 22.8498 108.405 22.9846C108.55 23.1154 108.666 23.2808 108.753 23.4811C108.84 23.6813 108.884 23.9121 108.884 24.1737V24.2962C108.884 24.5741 108.84 24.8172 108.753 25.0256C108.666 25.234 108.55 25.4077 108.405 25.5466C108.26 25.6814 108.092 25.7836 107.902 25.853C107.711 25.9184 107.51 25.9511 107.299 25.9511ZM107.299 25.4608C107.423 25.4608 107.547 25.4404 107.672 25.3995C107.796 25.3545 107.906 25.2871 108.001 25.1972C108.097 25.1032 108.173 24.9827 108.231 24.8356C108.293 24.6885 108.324 24.5087 108.324 24.2962V24.1737C108.324 23.9775 108.293 23.81 108.231 23.6711C108.173 23.5321 108.097 23.4177 108.001 23.3278C107.906 23.2379 107.796 23.1726 107.672 23.1317C107.547 23.0908 107.423 23.0704 107.299 23.0704C107.174 23.0704 107.05 23.0908 106.926 23.1317C106.801 23.1726 106.691 23.2379 106.596 23.3278C106.501 23.4177 106.422 23.5321 106.36 23.6711C106.302 23.81 106.273 23.9775 106.273 24.1737V24.2962C106.273 24.5087 106.302 24.6885 106.36 24.8356C106.422 24.9827 106.501 25.1032 106.596 25.1972C106.691 25.2871 106.801 25.3545 106.926 25.3995C107.05 25.4404 107.174 25.4608 107.299 25.4608Z" fill="#6A6A6A"/>
    <path d="M102.106 22.6414H102.616V23.2543C102.728 23.0377 102.883 22.8722 103.082 22.7578C103.285 22.6393 103.52 22.5801 103.785 22.5801C104.199 22.5801 104.531 22.7149 104.78 22.9846C105.028 23.2502 105.153 23.6466 105.153 24.1737V24.2962C105.153 24.5741 105.12 24.8172 105.053 25.0256C104.987 25.2299 104.894 25.4015 104.773 25.5405C104.653 25.6753 104.508 25.7775 104.338 25.8469C104.172 25.9164 103.988 25.9511 103.785 25.9511C103.503 25.9511 103.267 25.8898 103.076 25.7672C102.89 25.6447 102.749 25.4914 102.653 25.3076V27.1157H102.106V22.6414ZM103.661 25.473C103.793 25.473 103.918 25.4485 104.034 25.3995C104.15 25.3464 104.249 25.2708 104.332 25.1727C104.419 25.0746 104.485 24.9521 104.531 24.805C104.581 24.6579 104.606 24.4883 104.606 24.2962V24.1737C104.606 23.998 104.581 23.8406 104.531 23.7017C104.485 23.5628 104.419 23.4463 104.332 23.3524C104.249 23.2543 104.15 23.1807 104.034 23.1317C103.918 23.0827 103.793 23.0582 103.661 23.0582C103.511 23.0582 103.375 23.0827 103.25 23.1317C103.126 23.1766 103.02 23.242 102.933 23.3278C102.846 23.4096 102.778 23.5076 102.728 23.622C102.678 23.7364 102.653 23.859 102.653 23.9898V24.4801C102.653 24.6272 102.678 24.7621 102.728 24.8846C102.778 25.0072 102.846 25.1114 102.933 25.1972C103.02 25.283 103.126 25.3505 103.25 25.3995C103.375 25.4485 103.511 25.473 103.661 25.473Z" fill="#6A6A6A"/>
    <path d="M99.7763 25.9512C99.5566 25.9512 99.3515 25.9104 99.1608 25.8286C98.9743 25.7469 98.8106 25.6284 98.6697 25.4731C98.5329 25.3138 98.4231 25.1197 98.3402 24.8909C98.2614 24.6621 98.222 24.4026 98.222 24.1125V23.9899C98.222 23.6221 98.249 23.2953 98.3029 23.0092C98.3567 22.7191 98.4479 22.4739 98.5764 22.2737C98.709 22.0694 98.881 21.9101 99.0924 21.7957C99.308 21.6812 99.5774 21.6159 99.9006 21.5995C100.162 21.5873 100.39 21.577 100.585 21.5689C100.779 21.5566 100.945 21.5158 101.082 21.4463V21.9673C101.016 22.004 100.893 22.0326 100.715 22.0531C100.541 22.0735 100.301 22.0878 99.9939 22.096C99.795 22.1001 99.6188 22.1246 99.4655 22.1695C99.3162 22.2145 99.1878 22.286 99.08 22.3841C98.9764 22.4821 98.8935 22.6108 98.8313 22.7702C98.7733 22.9255 98.736 23.1175 98.7194 23.3463C98.8189 23.1298 98.9722 22.9581 99.1795 22.8315C99.3867 22.7048 99.6271 22.6415 99.9006 22.6415C100.112 22.6415 100.305 22.6783 100.479 22.7518C100.653 22.8213 100.802 22.9214 100.926 23.0521C101.055 23.1829 101.154 23.3443 101.225 23.5363C101.295 23.7243 101.331 23.9368 101.331 24.1738V24.2963C101.331 24.5497 101.291 24.7785 101.212 24.9828C101.134 25.183 101.026 25.3567 100.889 25.5038C100.752 25.6468 100.589 25.7571 100.398 25.8348C100.207 25.9124 100 25.9512 99.7763 25.9512ZM99.7763 25.4609C100.066 25.4609 100.305 25.3628 100.491 25.1667C100.678 24.9665 100.771 24.6764 100.771 24.2963V24.1738C100.771 24.0144 100.746 23.8714 100.696 23.7447C100.647 23.6181 100.578 23.5098 100.491 23.4199C100.404 23.3259 100.299 23.2544 100.174 23.2054C100.054 23.1563 99.9214 23.1318 99.7763 23.1318C99.6312 23.1318 99.4965 23.1563 99.3722 23.2054C99.252 23.2544 99.1484 23.3259 99.0613 23.4199C98.9743 23.5098 98.9059 23.6181 98.8562 23.7447C98.8064 23.8714 98.7816 24.0144 98.7816 24.1738V24.2963C98.7816 24.4761 98.8064 24.6396 98.8562 24.7867C98.9101 24.9297 98.9826 25.0523 99.0738 25.1544C99.165 25.2525 99.2707 25.3281 99.3908 25.3812C99.511 25.4343 99.6395 25.4609 99.7763 25.4609Z" fill="#6A6A6A"/>
    <path d="M96.0484 25.9511C95.837 25.9511 95.636 25.9184 95.4454 25.853C95.2547 25.7836 95.0868 25.6814 94.9418 25.5466C94.7967 25.4077 94.6807 25.234 94.5936 25.0256C94.5066 24.8172 94.4631 24.5741 94.4631 24.2962V24.1737C94.4631 23.9121 94.5066 23.6813 94.5936 23.4811C94.6807 23.2808 94.7967 23.1154 94.9418 22.9846C95.0868 22.8498 95.2547 22.7497 95.4454 22.6843C95.636 22.6148 95.837 22.5801 96.0484 22.5801C96.2598 22.5801 96.4608 22.6148 96.6515 22.6843C96.8421 22.7497 97.01 22.8498 97.1551 22.9846C97.3001 23.1154 97.4162 23.2808 97.5032 23.4811C97.5902 23.6813 97.6338 23.9121 97.6338 24.1737V24.2962C97.6338 24.5741 97.5902 24.8172 97.5032 25.0256C97.4162 25.234 97.3001 25.4077 97.1551 25.5466C97.01 25.6814 96.8421 25.7836 96.6515 25.853C96.4608 25.9184 96.2598 25.9511 96.0484 25.9511ZM96.0484 25.4608C96.1728 25.4608 96.2971 25.4404 96.4214 25.3995C96.5458 25.3545 96.6556 25.2871 96.7509 25.1972C96.8463 25.1032 96.9229 24.9827 96.981 24.8356C97.0431 24.6885 97.0742 24.5087 97.0742 24.2962V24.1737C97.0742 23.9775 97.0431 23.81 96.981 23.6711C96.9229 23.5321 96.8463 23.4177 96.7509 23.3278C96.6556 23.2379 96.5458 23.1726 96.4214 23.1317C96.2971 23.0908 96.1728 23.0704 96.0484 23.0704C95.9241 23.0704 95.7997 23.0908 95.6754 23.1317C95.5511 23.1726 95.4412 23.2379 95.3459 23.3278C95.2506 23.4177 95.1718 23.5321 95.1096 23.6711C95.0516 23.81 95.0226 23.9775 95.0226 24.1737V24.2962C95.0226 24.5087 95.0516 24.6885 95.1096 24.8356C95.1718 24.9827 95.2506 25.1032 95.3459 25.1972C95.4412 25.2871 95.5511 25.3545 95.6754 25.3995C95.7997 25.4404 95.9241 25.4608 96.0484 25.4608Z" fill="#6A6A6A"/>
    <path d="M90.5439 25.412H90.9481C90.9936 25.3507 91.0351 25.2567 91.0724 25.13C91.1097 25.0034 91.1429 24.8542 91.1719 24.6826C91.2009 24.511 91.2216 24.3251 91.234 24.1249C91.2506 23.9206 91.2589 23.7122 91.2589 23.4997V22.6416H93.5592V25.412H94.0255V26.6562H93.5033V25.8901H91.0662V26.6562H90.5439V25.412ZM93.0121 25.412V23.1197H91.7936V23.6223C91.7936 23.7939 91.7874 23.9655 91.7749 24.1371C91.7625 24.3046 91.7438 24.466 91.719 24.6213C91.6941 24.7725 91.663 24.9176 91.6257 25.0565C91.5926 25.1913 91.5532 25.3098 91.5076 25.412H93.0121Z" fill="#6A6A6A"/>
    <path d="M85.5678 22.6415H86.1149V25.0931L87.8184 22.6415H88.3655V25.8899H87.8184V23.4383L86.1149 25.8899H85.5678V22.6415ZM86.9666 22.2431C86.6434 22.2431 86.4071 22.1757 86.2579 22.0408C86.1087 21.9019 86.0341 21.7037 86.0341 21.4463H86.5688C86.5688 21.7241 86.7014 21.8631 86.9666 21.8631C87.2402 21.8631 87.377 21.7241 87.377 21.4463H87.8992C87.8992 21.7037 87.8246 21.9019 87.6754 22.0408C87.5262 22.1757 87.2899 22.2431 86.9666 22.2431Z" fill="#6A6A6A"/>
    <path d="M83.3297 25.9511C83.1183 25.9511 82.9173 25.9184 82.7266 25.853C82.536 25.7877 82.3681 25.6876 82.223 25.5527C82.078 25.4138 81.9619 25.2401 81.8749 25.0317C81.7878 24.8234 81.7443 24.5782 81.7443 24.2962V24.1737C81.7443 23.904 81.7858 23.6711 81.8687 23.4749C81.9516 23.2747 82.0614 23.1092 82.1982 22.9785C82.3391 22.8436 82.5007 22.7435 82.6831 22.6781C82.8696 22.6128 83.0644 22.5801 83.2675 22.5801C83.7524 22.5801 84.1275 22.7108 84.3928 22.9723C84.658 23.2339 84.7907 23.6036 84.7907 24.0817V24.425H82.2914C82.2914 24.617 82.3225 24.7784 82.3847 24.9092C82.4468 25.0399 82.5277 25.1462 82.6271 25.2279C82.7266 25.3096 82.8364 25.3688 82.9566 25.4056C83.081 25.4424 83.2053 25.4608 83.3297 25.4608C83.5783 25.4608 83.769 25.4199 83.9016 25.3382C84.0384 25.2565 84.1358 25.1441 84.1938 25.0011H84.7285C84.6953 25.1564 84.6352 25.2933 84.5482 25.4118C84.4653 25.5302 84.3617 25.6304 84.2374 25.7121C84.1172 25.7897 83.9783 25.849 83.8208 25.8898C83.6675 25.9307 83.5037 25.9511 83.3297 25.9511ZM83.2986 23.0704C83.1701 23.0704 83.0458 23.0888 82.9256 23.1256C82.8054 23.1583 82.6976 23.2134 82.6023 23.2911C82.5111 23.3646 82.4365 23.4586 82.3785 23.573C82.3204 23.6874 82.2914 23.8243 82.2914 23.9837H84.2747C84.2705 23.8161 84.2415 23.6752 84.1876 23.5607C84.1379 23.4422 84.0695 23.3483 83.9825 23.2788C83.8954 23.2053 83.7918 23.1521 83.6716 23.1194C83.5556 23.0868 83.4312 23.0704 83.2986 23.0704Z" fill="#6A6A6A"/>
    <path d="M79.6018 25.9511C79.3904 25.9511 79.1894 25.9184 78.9988 25.853C78.8081 25.7836 78.6403 25.6814 78.4952 25.5466C78.3501 25.4077 78.2341 25.234 78.147 25.0256C78.06 24.8172 78.0165 24.5741 78.0165 24.2962V24.1737C78.0165 23.9121 78.06 23.6813 78.147 23.4811C78.2341 23.2808 78.3501 23.1154 78.4952 22.9846C78.6403 22.8498 78.8081 22.7497 78.9988 22.6843C79.1894 22.6148 79.3904 22.5801 79.6018 22.5801C79.8132 22.5801 80.0142 22.6148 80.2049 22.6843C80.3955 22.7497 80.5634 22.8498 80.7085 22.9846C80.8535 23.1154 80.9696 23.2808 81.0566 23.4811C81.1436 23.6813 81.1872 23.9121 81.1872 24.1737V24.2962C81.1872 24.5741 81.1436 24.8172 81.0566 25.0256C80.9696 25.234 80.8535 25.4077 80.7085 25.5466C80.5634 25.6814 80.3955 25.7836 80.2049 25.853C80.0142 25.9184 79.8132 25.9511 79.6018 25.9511ZM79.6018 25.4608C79.7262 25.4608 79.8505 25.4404 79.9748 25.3995C80.0992 25.3545 80.209 25.2871 80.3043 25.1972C80.3997 25.1032 80.4764 24.9827 80.5344 24.8356C80.5965 24.6885 80.6276 24.5087 80.6276 24.2962V24.1737C80.6276 23.9775 80.5965 23.81 80.5344 23.6711C80.4764 23.5321 80.3997 23.4177 80.3043 23.3278C80.209 23.2379 80.0992 23.1726 79.9748 23.1317C79.8505 23.0908 79.7262 23.0704 79.6018 23.0704C79.4775 23.0704 79.3531 23.0908 79.2288 23.1317C79.1045 23.1726 78.9946 23.2379 78.8993 23.3278C78.804 23.4177 78.7252 23.5321 78.663 23.6711C78.605 23.81 78.576 23.9775 78.576 24.1737V24.2962C78.576 24.5087 78.605 24.6885 78.663 24.8356C78.7252 24.9827 78.804 25.1032 78.8993 25.1972C78.9946 25.2871 79.1045 25.3545 79.2288 25.3995C79.3531 25.4404 79.4775 25.4608 79.6018 25.4608Z" fill="#6A6A6A"/>
    <path d="M74.7183 22.6416H76.1482C76.5544 22.6416 76.8528 22.7254 77.0434 22.8929C77.2341 23.0563 77.3294 23.2688 77.3294 23.5303C77.3294 23.5998 77.317 23.6713 77.2921 23.7449C77.2672 23.8143 77.232 23.8797 77.1864 23.941C77.145 24.0023 77.0932 24.0554 77.031 24.1003C76.973 24.1453 76.9067 24.18 76.8321 24.2045C77.0351 24.2536 77.1885 24.3476 77.2921 24.4865C77.3999 24.6213 77.4538 24.7807 77.4538 24.9646C77.4538 25.2465 77.3584 25.4712 77.1678 25.6388C76.9771 25.8063 76.6787 25.8901 76.2725 25.8901H74.7183V22.6416ZM76.2725 25.412C76.5046 25.412 76.6683 25.3711 76.7637 25.2894C76.859 25.2077 76.9067 25.0912 76.9067 24.94C76.9067 24.7848 76.859 24.6663 76.7637 24.5845C76.6683 24.4987 76.5046 24.4558 76.2725 24.4558H75.2654V25.412H76.2725ZM76.1482 24.0145C76.3844 24.0145 76.5481 23.9737 76.6393 23.892C76.7347 23.8102 76.7823 23.6979 76.7823 23.5548C76.7823 23.42 76.7347 23.3138 76.6393 23.2361C76.5481 23.1585 76.3844 23.1197 76.1482 23.1197H75.2654V24.0145H76.1482Z" fill="#6A6A6A"/>
    <path d="M72.6051 25.9511C72.3937 25.9511 72.1969 25.9184 72.0145 25.853C71.8321 25.7836 71.6746 25.6814 71.542 25.5466C71.4094 25.4077 71.3037 25.234 71.2249 25.0256C71.1503 24.8172 71.113 24.5741 71.113 24.2962V24.1737C71.113 23.9121 71.1545 23.6813 71.2374 23.4811C71.3203 23.2808 71.4301 23.1154 71.5669 22.9846C71.7037 22.8498 71.8612 22.7497 72.0394 22.6843C72.2217 22.6148 72.4103 22.5801 72.6051 22.5801C72.7999 22.5801 72.974 22.6066 73.1274 22.6598C73.2849 22.7129 73.4196 22.7864 73.5315 22.8804C73.6475 22.9744 73.7408 23.0847 73.8112 23.2114C73.8858 23.3381 73.9397 23.4749 73.9729 23.622H73.4133C73.3802 23.5444 73.3408 23.4729 73.2952 23.4075C73.2538 23.3381 73.1999 23.2788 73.1336 23.2298C73.0714 23.1807 72.9968 23.1419 72.9098 23.1133C72.8227 23.0847 72.7212 23.0704 72.6051 23.0704C72.4849 23.0704 72.3689 23.0929 72.257 23.1378C72.1451 23.1787 72.0456 23.2441 71.9586 23.334C71.8715 23.4198 71.8011 23.5321 71.7472 23.6711C71.6974 23.81 71.6726 23.9775 71.6726 24.1737V24.2962C71.6726 24.5046 71.6974 24.6844 71.7472 24.8356C71.8011 24.9827 71.8715 25.1032 71.9586 25.1972C72.0456 25.2871 72.1451 25.3545 72.257 25.3995C72.3689 25.4404 72.4849 25.4608 72.6051 25.4608C72.8082 25.4608 72.9781 25.4117 73.1149 25.3137C73.2558 25.2156 73.3553 25.0808 73.4133 24.9092H73.9729C73.8941 25.232 73.7325 25.4873 73.4879 25.6753C73.2434 25.8592 72.9491 25.9511 72.6051 25.9511Z" fill="#6A6A6A"/>
    <path d="M66.5104 22.6416H67.0575V23.8674H67.8471C68.2616 23.8674 68.5662 23.9573 68.761 24.1371C68.9599 24.3169 69.0594 24.5662 69.0594 24.8849C69.0594 25.1954 68.9599 25.4406 68.761 25.6204C68.5662 25.8002 68.2616 25.8901 67.8471 25.8901H66.5104V22.6416ZM67.816 25.412C68.073 25.412 68.2533 25.367 68.3569 25.2771C68.4605 25.1872 68.5123 25.0544 68.5123 24.8787C68.5123 24.703 68.4605 24.5702 68.3569 24.4804C68.2533 24.3905 68.073 24.3455 67.816 24.3455H67.0575V25.412H67.816Z" fill="#6A6A6A"/>
    <path d="M64.3966 25.9511C64.1852 25.9511 63.9883 25.9184 63.806 25.853C63.6236 25.7836 63.4661 25.6814 63.3335 25.5466C63.2008 25.4077 63.0951 25.234 63.0164 25.0256C62.9418 24.8172 62.9045 24.5741 62.9045 24.2962V24.1737C62.9045 23.9121 62.9459 23.6813 63.0288 23.4811C63.1117 23.2808 63.2215 23.1154 63.3583 22.9846C63.4951 22.8498 63.6526 22.7497 63.8308 22.6843C64.0132 22.6148 64.2018 22.5801 64.3966 22.5801C64.5914 22.5801 64.7654 22.6066 64.9188 22.6598C65.0763 22.7129 65.211 22.7864 65.3229 22.8804C65.439 22.9744 65.5322 23.0847 65.6027 23.2114C65.6773 23.3381 65.7312 23.4749 65.7643 23.622H65.2048C65.1716 23.5444 65.1323 23.4729 65.0867 23.4075C65.0452 23.3381 64.9913 23.2788 64.925 23.2298C64.8628 23.1807 64.7882 23.1419 64.7012 23.1133C64.6142 23.0847 64.5126 23.0704 64.3966 23.0704C64.2764 23.0704 64.1603 23.0929 64.0484 23.1378C63.9365 23.1787 63.837 23.2441 63.75 23.334C63.663 23.4198 63.5925 23.5321 63.5386 23.6711C63.4889 23.81 63.464 23.9775 63.464 24.1737V24.2962C63.464 24.5046 63.4889 24.6844 63.5386 24.8356C63.5925 24.9827 63.663 25.1032 63.75 25.1972C63.837 25.2871 63.9365 25.3545 64.0484 25.3995C64.1603 25.4404 64.2764 25.4608 64.3966 25.4608C64.5997 25.4608 64.7696 25.4117 64.9064 25.3137C65.0473 25.2156 65.1468 25.0808 65.2048 24.9092H65.7643C65.6856 25.232 65.5239 25.4873 65.2794 25.6753C65.0349 25.8592 64.7406 25.9511 64.3966 25.9511Z" fill="#6A6A6A"/>
    <path d="M59.3276 22.6416H59.8747V25.0933L61.5782 22.6416H62.1253V25.8901H61.5782V23.4384L59.8747 25.8901H59.3276V22.6416Z" fill="#6A6A6A"/>
    <path d="M55.5354 25.9513C55.4733 25.9513 55.4111 25.9452 55.3489 25.933V25.3936C55.3697 25.3977 55.4007 25.3997 55.4422 25.3997C55.5334 25.3997 55.6121 25.3711 55.6784 25.3139C55.7489 25.2567 55.8049 25.1566 55.8463 25.0136C55.8877 24.8706 55.9188 24.6765 55.9396 24.4313C55.9603 24.1862 55.9706 23.8756 55.9706 23.4997V22.6416H58.3331V25.8901H57.786V23.1197H56.5177V23.6223C56.5177 24.0758 56.497 24.4517 56.4556 24.75C56.4141 25.0483 56.352 25.2874 56.2691 25.4671C56.1903 25.6428 56.0888 25.7675 55.9644 25.841C55.8401 25.9146 55.6971 25.9513 55.5354 25.9513Z" fill="#6A6A6A"/>
    <path d="M53.5133 25.9511C53.3019 25.9511 53.1009 25.9184 52.9102 25.853C52.7196 25.7877 52.5517 25.6876 52.4066 25.5527C52.2616 25.4138 52.1455 25.2401 52.0585 25.0317C51.9714 24.8234 51.9279 24.5782 51.9279 24.2962V24.1737C51.9279 23.904 51.9694 23.6711 52.0523 23.4749C52.1352 23.2747 52.245 23.1092 52.3818 22.9785C52.5227 22.8436 52.6843 22.7435 52.8667 22.6781C53.0532 22.6128 53.248 22.5801 53.4511 22.5801C53.936 22.5801 54.3111 22.7108 54.5764 22.9723C54.8416 23.2339 54.9743 23.6036 54.9743 24.0817V24.425H52.475C52.475 24.617 52.5061 24.7784 52.5683 24.9092C52.6304 25.0399 52.7113 25.1462 52.8107 25.2279C52.9102 25.3096 53.02 25.3688 53.1402 25.4056C53.2646 25.4424 53.3889 25.4608 53.5133 25.4608C53.7619 25.4608 53.9526 25.4199 54.0852 25.3382C54.222 25.2565 54.3194 25.1441 54.3774 25.0011H54.9121C54.8789 25.1564 54.8188 25.2933 54.7318 25.4118C54.6489 25.5302 54.5453 25.6304 54.4209 25.7121C54.3008 25.7897 54.1619 25.849 54.0044 25.8898C53.8511 25.9307 53.6873 25.9511 53.5133 25.9511ZM53.4822 23.0704C53.3537 23.0704 53.2294 23.0888 53.1092 23.1256C52.989 23.1583 52.8812 23.2134 52.7859 23.2911C52.6947 23.3646 52.6201 23.4586 52.5621 23.573C52.504 23.6874 52.475 23.8243 52.475 23.9837H54.4583C54.4541 23.8161 54.4251 23.6752 54.3712 23.5607C54.3215 23.4422 54.2531 23.3483 54.166 23.2788C54.079 23.2053 53.9754 23.1521 53.8552 23.1194C53.7391 23.0868 53.6148 23.0704 53.4822 23.0704Z" fill="#6A6A6A"/>
    <path d="M48.0083 25.412H48.4124C48.458 25.3507 48.4994 25.2567 48.5367 25.13C48.5741 25.0034 48.6072 24.8542 48.6362 24.6826C48.6652 24.511 48.686 24.3251 48.6984 24.1249C48.715 23.9206 48.7233 23.7122 48.7233 23.4997V22.6416H51.0236V25.412H51.4898V26.6562H50.9676V25.8901H48.5305V26.6562H48.0083V25.412ZM50.4765 25.412V23.1197H49.2579V23.6223C49.2579 23.7939 49.2517 23.9655 49.2393 24.1371C49.2268 24.3046 49.2082 24.466 49.1833 24.6213C49.1585 24.7725 49.1274 24.9176 49.0901 25.0565C49.0569 25.1913 49.0175 25.3098 48.9719 25.412H50.4765Z" fill="#6A6A6A"/>
    <path d="M46.082 25.9511C45.8707 25.9511 45.6697 25.9184 45.479 25.853C45.2883 25.7836 45.1205 25.6814 44.9754 25.5466C44.8304 25.4077 44.7143 25.234 44.6273 25.0256C44.5402 24.8172 44.4967 24.5741 44.4967 24.2962V24.1737C44.4967 23.9121 44.5402 23.6813 44.6273 23.4811C44.7143 23.2808 44.8304 23.1154 44.9754 22.9846C45.1205 22.8498 45.2883 22.7497 45.479 22.6843C45.6697 22.6148 45.8707 22.5801 46.082 22.5801C46.2934 22.5801 46.4944 22.6148 46.6851 22.6843C46.8758 22.7497 47.0436 22.8498 47.1887 22.9846C47.3337 23.1154 47.4498 23.2808 47.5368 23.4811C47.6239 23.6813 47.6674 23.9121 47.6674 24.1737V24.2962C47.6674 24.5741 47.6239 24.8172 47.5368 25.0256C47.4498 25.234 47.3337 25.4077 47.1887 25.5466C47.0436 25.6814 46.8758 25.7836 46.6851 25.853C46.4944 25.9184 46.2934 25.9511 46.082 25.9511ZM46.082 25.4608C46.2064 25.4608 46.3307 25.4404 46.4551 25.3995C46.5794 25.3545 46.6892 25.2871 46.7846 25.1972C46.8799 25.1032 46.9566 24.9827 47.0146 24.8356C47.0768 24.6885 47.1079 24.5087 47.1079 24.2962V24.1737C47.1079 23.9775 47.0768 23.81 47.0146 23.6711C46.9566 23.5321 46.8799 23.4177 46.7846 23.3278C46.6892 23.2379 46.5794 23.1726 46.4551 23.1317C46.3307 23.0908 46.2064 23.0704 46.082 23.0704C45.9577 23.0704 45.8334 23.0908 45.709 23.1317C45.5847 23.1726 45.4749 23.2379 45.3795 23.3278C45.2842 23.4177 45.2054 23.5321 45.1433 23.6711C45.0853 23.81 45.0562 23.9775 45.0562 24.1737V24.2962C45.0562 24.5087 45.0853 24.6885 45.1433 24.8356C45.2054 24.9827 45.2842 25.1032 45.3795 25.1972C45.4749 25.2871 45.5847 25.3545 45.709 25.3995C45.8334 25.4404 45.9577 25.4608 46.082 25.4608Z" fill="#6A6A6A"/>
    <path d="M40.1758 21.5996H43.5952V25.89H43.0108V22.1022H40.7602V25.89H40.1758V21.5996Z" fill="#6A6A6A"/>
    <defs>
        <linearGradient id="paint0_linear_1994_14765" x1="-0.000732422" y1="16.0056" x2="31.2866" y2="16.0056" gradientUnits="userSpaceOnUse">
            <stop stop-color="#FF512F"/>
            <stop offset="1" stop-color="#F09819"/>
        </linearGradient>
        <clipPath id="clip0_1994_14765">
            <rect width="31.287" height="32" fill="white"/>
        </clipPath>
    </defs>
</svg>
