<svg width="166" height="36" viewBox="0 0 166 36" fill="none" xmlns="http://www.w3.org/2000/svg">
<g clip-path="url(#clip0_997_11927)">
<path d="M22.7291 10.4593C21.2365 11.3849 21.0625 11.5833 20.0854 12.456C20.0452 12.4957 19.9984 12.5419 19.9381 12.5023C19.8712 12.4626 19.8645 12.3899 19.8779 12.3238C20.2259 10.5519 20.9688 9.06425 21.859 7.98656C22.9098 6.71714 24.4357 5.59318 24.168 5.35516C24.1011 5.29566 24.0141 5.31549 23.9405 5.34855C23.6995 5.46094 23.4519 5.57334 23.2109 5.69896C22.6621 5.98987 22.1936 6.38656 21.7117 6.77004C21.6716 6.80309 21.6314 6.86921 21.5645 6.82954C21.5109 6.80309 21.5243 6.73698 21.5243 6.6907C21.5109 5.70557 21.598 4.75351 21.2298 5.01136C20.9019 5.23615 20.7881 5.94359 20.7613 6.34028C20.7279 6.78326 20.6409 7.21962 20.7413 7.6626C20.7948 7.90723 20.7078 8.12541 20.5739 8.32375C20.3665 8.64772 20.1924 8.99152 20.0117 9.32871C18.9743 11.2923 18.3988 13.2758 18.2314 14.9882C18.111 16.1915 18.0842 17.4808 18.8806 18.4064C19.309 18.9023 19.068 19.0676 18.981 19.2923C18.8606 19.5899 18.3586 20.7469 18.372 20.9188C18.372 20.9188 18.372 22.0361 18.3988 31.6229C18.3988 31.7023 18.3787 31.7882 18.4389 31.8676C18.5192 31.808 18.5661 31.7353 18.6129 31.6692C20.2259 29.4147 25.4196 25.0312 25.4062 24.9518C25.4865 24.9651 25.5334 24.9056 25.5802 24.8593C29.5893 21.1502 32.5074 17.8246 33.4176 12.5353C33.5381 11.8345 33.5648 10.1948 33.4109 9.35516C32.3601 3.47086 26.457 -0.086162 20.7212 1.72541C19.9381 1.97665 19.1952 2.3469 18.4389 2.67086C18.4121 2.66425 18.3854 2.64442 18.372 2.6907L18.3787 2.69731L18.3854 2.6907C18.5326 2.65103 22.0798 -0.826658 26.805 0.191524C34.3947 1.83119 38.1495 10.6444 32.4203 19.5105C28.3377 25.8246 20.3999 30.1221 18.2984 34.4262C18.2649 34.4923 18.131 34.7436 17.6492 35.9138C17.6291 35.9601 17.6157 36.0064 17.5621 36.0064C17.4082 35.9998 17.3614 35.4114 16.8995 34.4791C16.8728 34.4262 16.6118 33.9237 16.5716 33.8444C13.2653 28.2709 1.57953 23.094 0.127179 12.575C0.0803288 12.2378 0.0937146 11.9006 0.0468644 11.57C-0.0869933 10.5519 0.0468644 8.60144 0.635838 7.00805C1.44568 4.81301 2.78425 3.12045 4.2433 2.03615C6.27794 0.515491 8.58698 -0.086162 10.3539 0.0460694C12.5759 0.211359 14.0216 0.68078 16.1767 2.2345C16.2771 2.30723 16.411 2.36012 16.4779 2.52541C15.6681 2.21466 14.6374 1.65929 12.9507 1.37499C12.4488 1.28904 11.9334 1.26921 11.4181 1.27582C4.77204 1.28243 -0.24093 7.68243 2.3626 14.8626C3.76141 18.7304 5.56849 20.9056 8.56021 23.8477C9.50391 24.78 10.5212 25.6262 11.5252 26.4923C16.7657 31.008 16.257 31.6428 16.6452 31.8543C16.7858 31.656 16.7121 27.1006 16.759 22.2808C16.7657 21.2494 16.5448 20.2775 16.1499 19.3386C16.0161 19.0147 16.0027 18.77 16.2503 18.4791C16.9129 17.7056 17.0334 16.7535 16.9999 15.7882C16.9799 15.1403 16.8995 14.499 16.759 13.8642C15.7283 9.0907 14.3161 8.77995 14.4366 7.58326C14.5035 6.88243 14.4834 6.16177 14.2224 5.48739C14.1688 5.34194 14.0751 4.9188 13.8342 4.98491C13.7673 5.00475 13.774 5.05764 13.7673 5.11053C13.6133 5.91714 13.7874 6.11549 13.6 6.96838C13.5196 6.88243 13.4594 6.8097 13.3858 6.7502C12.8905 6.3469 11.8196 5.45433 11.1905 5.30888C11.1102 5.28904 11.0165 5.27582 10.963 5.34855C10.635 5.79152 12.7433 6.8097 14.1822 9.24937C14.8314 10.3535 15.7216 13.051 15.059 12.4295C14.9653 12.3436 14.885 12.251 14.7913 12.1585C14.1822 11.5502 13.4661 11.094 12.7299 10.6642C10.3338 9.26921 9.77832 7.36508 9.56415 6.14855C9.34997 4.94524 9.30312 3.88739 9.21612 3.29235C9.19604 3.14028 9.25627 3.07417 9.4169 3.08078C11.0834 3.13367 12.9842 3.17995 14.5704 4.31053C15.9826 5.3221 16.9129 6.63119 17.4484 8.73367C17.4751 8.83946 17.4618 9.01797 17.609 9.01797C17.7228 9.01797 17.7429 8.84607 17.7696 8.74028C17.957 8.09235 18.1645 7.45103 18.4657 6.84937C18.9944 5.79152 19.7574 4.93202 20.7145 4.2378C21.6515 3.56342 25.0916 3.06094 25.7074 3.08078C25.9282 3.08739 25.9416 3.10061 25.9483 3.31218C25.955 4.12541 25.8747 4.93202 25.7609 5.73863C25.5267 7.29235 24.583 9.31549 22.7291 10.4593Z" fill="url(#paint0_linear_997_11927)"/>
<path d="M15.8959 16.971C15.8691 17.2619 15.8022 17.5528 15.6215 17.7974C15.4943 17.9627 15.4609 17.9627 15.3471 17.7776C15.0794 17.3346 14.7782 16.9115 14.4502 16.5082C13.9951 15.966 13.4798 15.4768 12.931 15.0272C12.7502 14.8817 12.6298 14.7098 12.5829 14.4784C12.4959 14.0685 12.3888 13.6652 12.1814 13.2949C12.0676 13.09 11.9337 12.8982 11.7396 12.766C11.5589 12.647 11.4786 12.6933 11.4719 12.9049C11.4719 12.9776 11.4786 13.0503 11.4786 13.1296C11.4652 13.3412 11.5321 13.5462 11.5522 13.7577C11.5589 13.8701 11.5188 13.923 11.3983 13.8768C11.3581 13.8635 11.318 13.8569 11.2845 13.8371C10.8896 13.685 10.5014 13.5065 10.1066 13.3611C9.95262 13.3015 9.79199 13.3082 9.64475 13.2354C9.33688 13.0966 9.02231 13.0239 8.68098 13.1032C8.64751 13.1098 8.59397 13.1032 8.58728 13.1561C8.58058 13.2024 8.61405 13.2222 8.64751 13.2487C8.78806 13.3544 8.94869 13.4272 9.09593 13.5263C9.65144 13.9032 10.227 14.2602 10.7959 14.6173C11.1707 14.842 11.5857 14.9875 11.9605 15.1991C12.9845 15.7809 13.7006 16.6734 14.3298 17.6387C14.4569 17.8305 14.5038 18.0619 14.6644 18.2404L14.6577 18.2933C14.2495 18.2867 13.8412 18.2867 13.4329 18.2602C12.6432 18.2007 11.8802 18.0553 11.1373 17.7776C9.68491 17.2354 8.55381 16.3098 7.75067 15.0007C7.41602 14.452 7.14161 13.8768 6.90067 13.2817C6.73335 12.8784 6.52587 12.4949 6.32508 12.1049C6.28492 12.0255 6.21799 11.9462 6.36524 11.8668C6.91405 11.5759 7.48295 11.3511 8.08531 11.1991C8.50027 11.0933 8.92861 11.0272 9.35696 10.9743C10.1869 10.8685 10.9967 10.9677 11.7798 11.2321C12.4758 11.4701 13.0849 11.8602 13.6605 12.3032C14.2695 12.766 14.825 13.2883 15.2467 13.9363C15.8758 15.0404 15.9628 16.2371 15.8959 16.971Z" fill="#F25822"/>
<path d="M20.7012 18.3069C20.6008 18.3069 20.5338 18.2673 20.5941 18.1482C21.1764 17.0441 21.946 16.0854 22.97 15.3449C23.2645 15.1334 23.6193 15.0408 23.9472 14.8821C24.583 14.5714 25.1452 14.1549 25.7476 13.7846C25.9885 13.6392 26.2295 13.5003 26.4704 13.3549C26.5574 13.302 26.6846 13.2425 26.6578 13.1367C26.6244 13.0044 26.4838 13.0573 26.3901 13.0573C25.8948 13.0838 25.4196 13.2292 24.9578 13.4077C24.5362 13.5664 24.1078 13.7185 23.7063 13.9301C23.6728 13.9499 23.6259 13.9896 23.5791 13.9499C23.5256 13.9102 23.5523 13.8573 23.559 13.8044C23.6126 13.454 23.6795 13.1102 23.6728 12.7532C23.6728 12.6871 23.6929 12.6077 23.6059 12.5747C23.5256 12.5416 23.4586 12.5879 23.4051 12.6408C22.7826 13.2358 22.6756 13.8706 22.5484 14.5912C22.5082 14.8094 22.3275 14.935 22.1736 15.0606C21.2165 15.8342 20.4535 16.7664 19.8043 17.8044C19.6905 17.9896 19.6303 17.9962 19.4964 17.8111C19.2756 17.5003 19.1953 17.1367 19.1752 16.7664C19.0949 15.2656 19.6838 14.0358 20.7279 12.9912C22.0866 11.6292 23.6929 11.0144 24.9177 10.9879C25.4799 10.9747 26.0488 10.9549 26.6043 11.0673C27.5547 11.259 28.4247 11.6226 28.833 11.8805C28.9267 11.94 28.9535 11.9929 28.8999 12.0987C28.0968 13.6987 27.3807 16.6673 23.7196 17.897C22.6488 18.2673 21.7787 18.3334 20.7012 18.3069Z" fill="#F25822"/>
</g>
<path d="M154.803 9.56313H157.894V11.1081C158.184 10.6074 158.634 10.1782 159.243 9.82062C159.867 9.46299 160.694 9.28418 161.725 9.28418C163.103 9.28418 164.141 9.65611 164.837 10.4C165.548 11.1295 165.903 12.1738 165.903 13.5328V20.9356H162.552V14.2838C162.552 13.5399 162.385 12.982 162.051 12.6101C161.732 12.2239 161.202 12.0308 160.462 12.0308C160.056 12.0308 159.708 12.0951 159.417 12.2239C159.127 12.3383 158.888 12.4957 158.699 12.6959C158.511 12.8962 158.373 13.1394 158.286 13.4255C158.199 13.6973 158.155 13.9834 158.155 14.2838V20.9356H154.803V9.56313Z" fill="#2C2D35"/>
<path d="M146.691 21.214C145.37 21.214 144.362 20.842 143.665 20.0982C142.969 19.3543 142.621 18.2242 142.621 16.7079V9.5625H145.972V16.1929C145.972 16.9368 146.125 17.5018 146.43 17.888C146.749 18.2743 147.257 18.4674 147.953 18.4674C148.708 18.4674 149.259 18.2528 149.607 17.8237C149.97 17.3802 150.151 16.8366 150.151 16.1929V9.5625H153.503V20.935H150.413V19.3901C150.122 19.8908 149.665 20.3199 149.041 20.6775C148.417 21.0352 147.634 21.214 146.691 21.214Z" fill="#2C2D35"/>
<path d="M130.422 5.91504H133.774V11.0005C133.89 10.8145 134.049 10.6214 134.253 10.4211C134.456 10.2209 134.702 10.0349 134.993 9.86324C135.297 9.69157 135.646 9.55568 136.037 9.45554C136.429 9.3411 136.864 9.28388 137.343 9.28388C138.722 9.28388 139.759 9.65581 140.456 10.3997C141.167 11.1292 141.522 12.1663 141.522 13.511V20.9353H138.17V14.2835C138.17 13.5396 138.003 12.9817 137.67 12.6098C137.35 12.2236 136.821 12.0305 136.081 12.0305C135.268 12.0305 134.681 12.245 134.318 12.6742C133.955 13.1033 133.774 13.6398 133.774 14.2835V20.9353H130.422V5.91504Z" fill="#2C2D35"/>
<path d="M124.215 21.2146C123.359 21.2146 122.568 21.093 121.842 20.8498C121.131 20.6066 120.515 20.2419 119.992 19.7555C119.47 19.2691 119.064 18.6611 118.773 17.9316C118.483 17.202 118.338 16.3437 118.338 15.3567V14.9275C118.338 14.0263 118.49 13.2252 118.795 12.5243C119.114 11.8233 119.535 11.2368 120.058 10.7648C120.594 10.2784 121.218 9.9136 121.929 9.67042C122.64 9.41293 123.402 9.28418 124.215 9.28418C125.085 9.28418 125.847 9.39862 126.5 9.6275C127.168 9.85638 127.726 10.1711 128.176 10.5716C128.626 10.9579 128.974 11.4156 129.221 11.9449C129.467 12.4742 129.613 13.0393 129.656 13.6401H126.217C126.101 13.1251 125.883 12.7317 125.564 12.4599C125.259 12.1738 124.81 12.0308 124.215 12.0308C123.504 12.0308 122.916 12.2739 122.452 12.7603C122.002 13.2324 121.777 13.9548 121.777 14.9275V15.3567C121.777 16.4153 121.995 17.1949 122.43 17.6956C122.88 18.1962 123.475 18.4466 124.215 18.4466C124.723 18.4466 125.151 18.3178 125.499 18.0603C125.862 17.7885 126.101 17.388 126.217 16.8587H129.656C129.613 17.531 129.453 18.139 129.177 18.6826C128.902 19.2119 128.524 19.6625 128.045 20.0344C127.581 20.4064 127.022 20.6996 126.37 20.9142C125.731 21.1145 125.013 21.2146 124.215 21.2146Z" fill="#2C2D35"/>
<path d="M110.601 21.2143C109.586 21.2143 108.664 21.0856 107.837 20.8281C107.025 20.5563 106.328 20.1629 105.748 19.6479C105.182 19.1186 104.739 18.4606 104.42 17.6738C104.115 16.887 103.963 15.9715 103.963 14.9272V5.91504H107.881V14.4766C107.881 15.6353 108.084 16.5151 108.49 17.1159C108.896 17.7024 109.6 17.9957 110.601 17.9957C111.632 17.9957 112.343 17.7024 112.734 17.1159C113.126 16.5151 113.322 15.6425 113.322 14.4981V5.91504H117.24V14.9272C117.24 15.9715 117.087 16.887 116.783 17.6738C116.478 18.4606 116.035 19.1186 115.455 19.6479C114.889 20.1629 114.193 20.5563 113.365 20.8281C112.553 21.0856 111.632 21.2143 110.601 21.2143Z" fill="#2C2D35"/>
<path d="M86.8669 9.56313H89.9576V11.1081C90.2478 10.6074 90.6976 10.1782 91.307 9.82062C91.931 9.46299 92.7581 9.28418 93.7883 9.28418C95.1667 9.28418 96.2042 9.65611 96.9007 10.4C97.6117 11.1295 97.9672 12.1738 97.9672 13.5328V20.9356H94.6154V14.2838C94.6154 13.5399 94.4485 12.982 94.1148 12.6101C93.7955 12.2239 93.2659 12.0308 92.5259 12.0308C92.1196 12.0308 91.7714 12.0951 91.4812 12.2239C91.191 12.3383 90.9516 12.4957 90.7629 12.6959C90.5743 12.8962 90.4364 13.1394 90.3494 13.4255C90.2623 13.6973 90.2188 13.9834 90.2188 14.2838V20.9356H86.8669V9.56313Z" fill="#2C2D35"/>
<path d="M80.1283 21.2146C79.3158 21.2146 78.554 21.1002 77.843 20.8713C77.132 20.6281 76.508 20.2633 75.9712 19.7769C75.4343 19.2906 75.0135 18.6826 74.7088 17.953C74.4041 17.2092 74.2517 16.3437 74.2517 15.3567V14.9275C74.2517 13.9977 74.4041 13.1823 74.7088 12.4814C75.0135 11.7804 75.4343 11.1939 75.9712 10.7218C76.508 10.2498 77.132 9.89215 77.843 9.64896C78.554 9.40577 79.3158 9.28418 80.1283 9.28418C80.9409 9.28418 81.7027 9.40577 82.4137 9.64896C83.1247 9.89215 83.7486 10.2498 84.2855 10.7218C84.8224 11.1939 85.2431 11.7804 85.5479 12.4814C85.8526 13.1823 86.0049 13.9977 86.0049 14.9275V15.3567C86.0049 16.3294 85.8526 17.1877 85.5479 17.9316C85.2431 18.6611 84.8224 19.2691 84.2855 19.7555C83.7486 20.2419 83.1247 20.6066 82.4137 20.8498C81.7027 21.093 80.9409 21.2146 80.1283 21.2146ZM80.1283 18.468C80.9119 18.468 81.514 18.1891 81.9348 17.6312C82.3556 17.0733 82.566 16.3151 82.566 15.3567V14.9275C82.566 14.0692 82.3556 13.3754 81.9348 12.8461C81.514 12.3025 80.9119 12.0308 80.1283 12.0308C79.3448 12.0308 78.7426 12.3025 78.3218 12.8461C77.901 13.3754 77.6906 14.0692 77.6906 14.9275V15.3567C77.6906 16.3437 77.901 17.109 78.3218 17.6526C78.7426 18.1962 79.3448 18.468 80.1283 18.468Z" fill="#2C2D35"/>
<path d="M68.3844 21.2146C67.4413 21.2146 66.6287 21.1216 65.9467 20.9356C65.2792 20.7354 64.7279 20.4707 64.2926 20.1417C63.8573 19.7984 63.5308 19.405 63.3131 18.9616C63.0955 18.5038 62.9721 18.0174 62.9431 17.5024H66.295C66.382 17.8315 66.5707 18.1104 66.8609 18.3393C67.1511 18.5682 67.6589 18.6826 68.3844 18.6826C69.1244 18.6826 69.6541 18.5825 69.9733 18.3822C70.307 18.1819 70.4739 17.9173 70.4739 17.5883C70.4739 17.4595 70.4376 17.3451 70.3651 17.2449C70.2925 17.1305 70.1547 17.0304 69.9515 16.9445C69.7629 16.8444 69.5017 16.7514 69.168 16.6656C68.8342 16.5798 68.4062 16.4939 67.8838 16.4081C67.2454 16.308 66.6432 16.1792 66.0773 16.0219C65.5114 15.8645 65.0181 15.6571 64.5973 15.3996C64.191 15.1278 63.8645 14.7845 63.6178 14.3696C63.3857 13.9548 63.2696 13.4326 63.2696 12.8032C63.2696 12.3025 63.3857 11.8376 63.6178 11.4085C63.85 10.9793 64.1837 10.6074 64.619 10.2927C65.0689 9.97798 65.6057 9.73479 66.2297 9.56313C66.8681 9.37716 67.5864 9.28418 68.3844 9.28418C69.2841 9.28418 70.0386 9.39147 70.648 9.60604C71.2719 9.82062 71.7798 10.1067 72.1716 10.4643C72.5633 10.8077 72.8536 11.2011 73.0422 11.6445C73.2308 12.088 73.3469 12.5386 73.3904 12.9963H70.0386C69.9515 12.6244 69.7629 12.3383 69.4727 12.138C69.1825 11.9235 68.8197 11.8162 68.3844 11.8162C67.717 11.8162 67.2526 11.9163 66.9914 12.1166C66.7448 12.3169 66.6214 12.5529 66.6214 12.8247C66.6214 13.1251 66.8246 13.3611 67.2309 13.5328C67.6372 13.6901 68.2829 13.826 69.168 13.9405C69.7919 14.0263 70.3868 14.1479 70.9527 14.3053C71.5186 14.4626 72.012 14.6843 72.4328 14.9704C72.8681 15.2422 73.209 15.5927 73.4557 16.0219C73.7024 16.4367 73.8257 16.9445 73.8257 17.5454C73.8257 18.6325 73.3614 19.5194 72.4328 20.2061C71.5186 20.8784 70.1692 21.2146 68.3844 21.2146Z" fill="#2C2D35"/>
<path d="M51.0708 9.56313H54.1615V11.1081C54.4517 10.6074 54.9015 10.1782 55.5109 9.82062C56.1348 9.46299 56.9619 9.28418 57.9921 9.28418C59.3706 9.28418 60.4081 9.65611 61.1046 10.4C61.8156 11.1295 62.1711 12.1738 62.1711 13.5328V20.9356H58.8192V14.2838C58.8192 13.5399 58.6524 12.982 58.3186 12.6101C57.9994 12.2239 57.4698 12.0308 56.7298 12.0308C56.3235 12.0308 55.9752 12.0951 55.685 12.2239C55.3948 12.3383 55.1554 12.4957 54.9668 12.6959C54.7781 12.8962 54.6403 13.1394 54.5532 13.4255C54.4662 13.6973 54.4226 13.9834 54.4226 14.2838V20.9356H51.0708V9.56313Z" fill="#2C2D35"/>
<path d="M45.1978 5.91504H49.1155V20.9353H45.1978V5.91504Z" fill="#2C2D35"/>
<path d="M130.853 25.4725H131.468V28.2306L133.384 25.4725H134V29.127H133.384V26.3689L131.468 29.127H130.853V25.4725ZM132.426 25.0243C132.063 25.0243 131.797 24.9485 131.629 24.7968C131.461 24.6405 131.377 24.4175 131.377 24.1279H131.979C131.979 24.4405 132.128 24.5968 132.426 24.5968C132.734 24.5968 132.888 24.4405 132.888 24.1279H133.475C133.475 24.4175 133.391 24.6405 133.224 24.7968C133.056 24.9485 132.79 25.0243 132.426 25.0243Z" fill="#6A6A6A"/>
<path d="M128.197 29.1957C127.959 29.1957 127.733 29.159 127.519 29.0854C127.304 29.0073 127.115 28.8923 126.952 28.7406C126.789 28.5844 126.658 28.389 126.561 28.1545C126.463 27.9201 126.414 27.6466 126.414 27.334V27.1961C126.414 26.9019 126.463 26.6422 126.561 26.4169C126.658 26.1917 126.789 26.0055 126.952 25.8584C127.115 25.7067 127.304 25.5941 127.519 25.5205C127.733 25.4424 127.959 25.4033 128.197 25.4033C128.435 25.4033 128.661 25.4424 128.876 25.5205C129.09 25.5941 129.279 25.7067 129.442 25.8584C129.605 26.0055 129.736 26.1917 129.834 26.4169C129.932 26.6422 129.981 26.9019 129.981 27.1961V27.334C129.981 27.6466 129.932 27.9201 129.834 28.1545C129.736 28.389 129.605 28.5844 129.442 28.7406C129.279 28.8923 129.09 29.0073 128.876 29.0854C128.661 29.159 128.435 29.1957 128.197 29.1957ZM128.197 28.6441C128.337 28.6441 128.477 28.6211 128.617 28.5752C128.757 28.5246 128.88 28.4487 128.988 28.3476C129.095 28.2419 129.181 28.1063 129.246 27.9408C129.316 27.7753 129.351 27.573 129.351 27.334V27.1961C129.351 26.9755 129.316 26.787 129.246 26.6307C129.181 26.4744 129.095 26.3457 128.988 26.2445C128.88 26.1434 128.757 26.0699 128.617 26.0239C128.477 25.9779 128.337 25.9549 128.197 25.9549C128.057 25.9549 127.917 25.9779 127.778 26.0239C127.638 26.0699 127.514 26.1434 127.407 26.2445C127.3 26.3457 127.211 26.4744 127.141 26.6307C127.076 26.787 127.043 26.9755 127.043 27.1961V27.334C127.043 27.573 127.076 27.7753 127.141 27.9408C127.211 28.1063 127.3 28.2419 127.407 28.3476C127.514 28.4487 127.638 28.5246 127.778 28.5752C127.917 28.6211 128.057 28.6441 128.197 28.6441Z" fill="#6A6A6A"/>
<path d="M124.144 26.0105H122.878V25.4727H126.026V26.0105H124.76V29.1272H124.144V26.0105Z" fill="#6A6A6A"/>
<path d="M120.711 29.1957C120.473 29.1957 120.247 29.159 120.033 29.0854C119.818 29.0073 119.629 28.8923 119.466 28.7406C119.303 28.5844 119.173 28.389 119.075 28.1545C118.977 27.9201 118.928 27.6466 118.928 27.334V27.1961C118.928 26.9019 118.977 26.6422 119.075 26.4169C119.173 26.1917 119.303 26.0055 119.466 25.8584C119.629 25.7067 119.818 25.5941 120.033 25.5205C120.247 25.4424 120.473 25.4033 120.711 25.4033C120.949 25.4033 121.175 25.4424 121.39 25.5205C121.604 25.5941 121.793 25.7067 121.956 25.8584C122.119 26.0055 122.25 26.1917 122.348 26.4169C122.446 26.6422 122.495 26.9019 122.495 27.1961V27.334C122.495 27.6466 122.446 27.9201 122.348 28.1545C122.25 28.389 122.119 28.5844 121.956 28.7406C121.793 28.8923 121.604 29.0073 121.39 29.0854C121.175 29.159 120.949 29.1957 120.711 29.1957ZM120.711 28.6441C120.851 28.6441 120.991 28.6211 121.131 28.5752C121.271 28.5246 121.394 28.4487 121.502 28.3476C121.609 28.2419 121.695 28.1063 121.76 27.9408C121.83 27.7753 121.865 27.573 121.865 27.334V27.1961C121.865 26.9755 121.83 26.787 121.76 26.6307C121.695 26.4744 121.609 26.3457 121.502 26.2445C121.394 26.1434 121.271 26.0699 121.131 26.0239C120.991 25.9779 120.851 25.9549 120.711 25.9549C120.571 25.9549 120.431 25.9779 120.292 26.0239C120.152 26.0699 120.028 26.1434 119.921 26.2445C119.814 26.3457 119.725 26.4744 119.655 26.6307C119.59 26.787 119.557 26.9755 119.557 27.1961V27.334C119.557 27.573 119.59 27.7753 119.655 27.9408C119.725 28.1063 119.814 28.2419 119.921 28.3476C120.028 28.4487 120.152 28.5246 120.292 28.5752C120.431 28.6211 120.571 28.6441 120.711 28.6441Z" fill="#6A6A6A"/>
<path d="M114.869 25.4723H115.443V26.1618C115.569 25.9182 115.744 25.732 115.968 25.6033C116.196 25.47 116.459 25.4033 116.758 25.4033C117.224 25.4033 117.597 25.555 117.877 25.8584C118.157 26.1572 118.297 26.6031 118.297 27.1961V27.334C118.297 27.6466 118.259 27.9201 118.185 28.1545C118.11 28.3844 118.005 28.5775 117.87 28.7338C117.735 28.8854 117.572 29.0004 117.38 29.0785C117.194 29.1567 116.986 29.1957 116.758 29.1957C116.441 29.1957 116.175 29.1268 115.961 28.9889C115.751 28.851 115.592 28.6786 115.485 28.4717V30.5058H114.869V25.4723ZM116.618 28.6579C116.767 28.6579 116.907 28.6303 117.038 28.5752C117.168 28.5154 117.28 28.4304 117.373 28.32C117.471 28.2097 117.546 28.0718 117.597 27.9063C117.653 27.7408 117.681 27.5501 117.681 27.334V27.1961C117.681 26.9984 117.653 26.8215 117.597 26.6652C117.546 26.5089 117.471 26.3779 117.373 26.2721C117.28 26.1618 117.168 26.0791 117.038 26.0239C116.907 25.9687 116.767 25.9412 116.618 25.9412C116.45 25.9412 116.296 25.9687 116.156 26.0239C116.016 26.0745 115.898 26.148 115.8 26.2445C115.702 26.3365 115.625 26.4468 115.569 26.5755C115.513 26.7042 115.485 26.8421 115.485 26.9892V27.5409C115.485 27.7064 115.513 27.858 115.569 27.996C115.625 28.1339 115.702 28.2511 115.8 28.3476C115.898 28.4442 116.016 28.52 116.156 28.5752C116.296 28.6303 116.45 28.6579 116.618 28.6579Z" fill="#6A6A6A"/>
<path d="M112.248 29.196C112.001 29.196 111.77 29.15 111.556 29.0581C111.346 28.9661 111.162 28.8328 111.003 28.6581C110.85 28.4789 110.726 28.2605 110.633 28.0031C110.544 27.7457 110.5 27.4538 110.5 27.1274V26.9895C110.5 26.5758 110.53 26.208 110.591 25.8862C110.651 25.5599 110.754 25.284 110.899 25.0588C111.048 24.829 111.241 24.6497 111.479 24.521C111.722 24.3922 112.025 24.3187 112.388 24.3003C112.682 24.2865 112.939 24.275 113.158 24.2658C113.377 24.252 113.563 24.2061 113.717 24.1279V24.714C113.643 24.7554 113.505 24.7876 113.305 24.8106C113.109 24.8335 112.838 24.8496 112.493 24.8588C112.269 24.8634 112.071 24.891 111.899 24.9416C111.731 24.9921 111.586 25.0726 111.465 25.1829C111.349 25.2932 111.255 25.438 111.185 25.6173C111.12 25.792 111.078 26.0081 111.059 26.2655C111.171 26.0218 111.344 25.8288 111.577 25.6863C111.81 25.5438 112.081 25.4725 112.388 25.4725C112.626 25.4725 112.843 25.5139 113.039 25.5966C113.235 25.6748 113.402 25.7874 113.542 25.9345C113.687 26.0816 113.799 26.2632 113.878 26.4792C113.957 26.6907 113.997 26.9297 113.997 27.1963V27.3342C113.997 27.6193 113.953 27.8767 113.864 28.1065C113.775 28.3318 113.654 28.5271 113.5 28.6926C113.346 28.8535 113.162 28.9776 112.948 29.065C112.733 29.1523 112.5 29.196 112.248 29.196ZM112.248 28.6444C112.575 28.6444 112.843 28.534 113.053 28.3134C113.263 28.0881 113.367 27.7618 113.367 27.3342V27.1963C113.367 27.0171 113.34 26.8562 113.284 26.7137C113.228 26.5712 113.151 26.4493 113.053 26.3482C112.955 26.2425 112.836 26.162 112.696 26.1069C112.561 26.0517 112.412 26.0241 112.248 26.0241C112.085 26.0241 111.934 26.0517 111.794 26.1069C111.659 26.162 111.542 26.2425 111.444 26.3482C111.346 26.4493 111.269 26.5712 111.213 26.7137C111.157 26.8562 111.129 27.0171 111.129 27.1963V27.3342C111.129 27.5365 111.157 27.7204 111.213 27.8859C111.274 28.0468 111.355 28.1847 111.458 28.2996C111.561 28.4099 111.68 28.495 111.815 28.5547C111.95 28.6145 112.095 28.6444 112.248 28.6444Z" fill="#6A6A6A"/>
<path d="M108.055 29.1957C107.817 29.1957 107.591 29.159 107.376 29.0854C107.162 29.0073 106.973 28.8923 106.81 28.7406C106.647 28.5844 106.516 28.389 106.418 28.1545C106.32 27.9201 106.271 27.6466 106.271 27.334V27.1961C106.271 26.9019 106.32 26.6422 106.418 26.4169C106.516 26.1917 106.647 26.0055 106.81 25.8584C106.973 25.7067 107.162 25.5941 107.376 25.5205C107.591 25.4424 107.817 25.4033 108.055 25.4033C108.292 25.4033 108.519 25.4424 108.733 25.5205C108.948 25.5941 109.136 25.7067 109.3 25.8584C109.463 26.0055 109.593 26.1917 109.691 26.4169C109.789 26.6422 109.838 26.9019 109.838 27.1961V27.334C109.838 27.6466 109.789 27.9201 109.691 28.1545C109.593 28.389 109.463 28.5844 109.3 28.7406C109.136 28.8923 108.948 29.0073 108.733 29.0854C108.519 29.159 108.292 29.1957 108.055 29.1957ZM108.055 28.6441C108.195 28.6441 108.334 28.6211 108.474 28.5752C108.614 28.5246 108.738 28.4487 108.845 28.3476C108.952 28.2419 109.039 28.1063 109.104 27.9408C109.174 27.7753 109.209 27.573 109.209 27.334V27.1961C109.209 26.9755 109.174 26.787 109.104 26.6307C109.039 26.4744 108.952 26.3457 108.845 26.2445C108.738 26.1434 108.614 26.0699 108.474 26.0239C108.334 25.9779 108.195 25.9549 108.055 25.9549C107.915 25.9549 107.775 25.9779 107.635 26.0239C107.495 26.0699 107.372 26.1434 107.264 26.2445C107.157 26.3457 107.069 26.4744 106.999 26.6307C106.933 26.787 106.901 26.9755 106.901 27.1961V27.334C106.901 27.573 106.933 27.7753 106.999 27.9408C107.069 28.1063 107.157 28.2419 107.264 28.3476C107.372 28.4487 107.495 28.5246 107.635 28.5752C107.775 28.6211 107.915 28.6441 108.055 28.6441Z" fill="#6A6A6A"/>
<path d="M101.862 28.5893H102.316C102.368 28.5204 102.414 28.4147 102.456 28.2722C102.498 28.1296 102.536 27.9619 102.568 27.7688C102.601 27.5757 102.624 27.3666 102.638 27.1413C102.657 26.9115 102.666 26.677 102.666 26.438V25.4727H105.254V28.5893H105.779V29.9891H105.191V29.1272H102.449V29.9891H101.862V28.5893ZM104.638 28.5893V26.0105H103.268V26.5759C103.268 26.769 103.261 26.962 103.247 27.1551C103.233 27.3436 103.212 27.5252 103.184 27.6998C103.156 27.8699 103.121 28.0331 103.079 28.1894C103.041 28.3411 102.997 28.4744 102.946 28.5893H104.638Z" fill="#6A6A6A"/>
<path d="M96.2636 25.4725H96.8791V28.2306L98.7955 25.4725H99.411V29.127H98.7955V26.3689L96.8791 29.127H96.2636V25.4725ZM97.8373 25.0243C97.4736 25.0243 97.2078 24.9485 97.04 24.7968C96.8721 24.6405 96.7882 24.4175 96.7882 24.1279H97.3897C97.3897 24.4405 97.5389 24.5968 97.8373 24.5968C98.145 24.5968 98.2989 24.4405 98.2989 24.1279H98.8864C98.8864 24.4175 98.8025 24.6405 98.6346 24.7968C98.4668 24.9485 98.201 25.0243 97.8373 25.0243Z" fill="#6A6A6A"/>
<path d="M93.7455 29.1957C93.5077 29.1957 93.2815 29.159 93.0671 29.0854C92.8526 29.0119 92.6637 28.8992 92.5005 28.7475C92.3373 28.5912 92.2068 28.3959 92.1088 28.1614C92.0109 27.927 91.962 27.6512 91.962 27.334V27.1961C91.962 26.8927 92.0086 26.6307 92.1019 26.41C92.1951 26.1848 92.3187 25.9986 92.4725 25.8515C92.6311 25.6998 92.8129 25.5872 93.0181 25.5136C93.2279 25.4401 93.4471 25.4033 93.6755 25.4033C94.2211 25.4033 94.6431 25.5504 94.9415 25.8446C95.2399 26.1388 95.3891 26.5548 95.3891 27.0927V27.4788H92.5775C92.5775 27.6949 92.6124 27.8764 92.6824 28.0235C92.7523 28.1706 92.8432 28.2902 92.9551 28.3821C93.0671 28.474 93.1906 28.5407 93.3258 28.5821C93.4657 28.6234 93.6056 28.6441 93.7455 28.6441C94.0253 28.6441 94.2397 28.5981 94.3889 28.5062C94.5428 28.4143 94.6524 28.2879 94.7177 28.127H95.3192C95.2819 28.3016 95.2143 28.4556 95.1163 28.589C95.0231 28.7223 94.9065 28.8349 94.7666 28.9268C94.6314 29.0142 94.4752 29.0808 94.298 29.1268C94.1255 29.1728 93.9413 29.1957 93.7455 29.1957ZM93.7105 25.9549C93.566 25.9549 93.4261 25.9756 93.2909 26.017C93.1556 26.0538 93.0344 26.1158 92.9272 26.2032C92.8246 26.2859 92.7407 26.3916 92.6754 26.5204C92.6101 26.6491 92.5775 26.8031 92.5775 26.9823H94.8086C94.8039 26.7939 94.7713 26.6353 94.7107 26.5066C94.6547 26.3733 94.5778 26.2675 94.4799 26.1894C94.382 26.1066 94.2654 26.0469 94.1302 26.0101C93.9996 25.9733 93.8597 25.9549 93.7105 25.9549Z" fill="#6A6A6A"/>
<path d="M89.5519 29.1957C89.3141 29.1957 89.0879 29.159 88.8734 29.0854C88.659 29.0073 88.4701 28.8923 88.3069 28.7406C88.1437 28.5844 88.0132 28.389 87.9152 28.1545C87.8173 27.9201 87.7684 27.6466 87.7684 27.334V27.1961C87.7684 26.9019 87.8173 26.6422 87.9152 26.4169C88.0132 26.1917 88.1437 26.0055 88.3069 25.8584C88.4701 25.7067 88.659 25.5941 88.8734 25.5205C89.0879 25.4424 89.3141 25.4033 89.5519 25.4033C89.7897 25.4033 90.0158 25.4424 90.2303 25.5205C90.4448 25.5941 90.6336 25.7067 90.7968 25.8584C90.96 26.0055 91.0906 26.1917 91.1885 26.4169C91.2864 26.6422 91.3354 26.9019 91.3354 27.1961V27.334C91.3354 27.6466 91.2864 27.9201 91.1885 28.1545C91.0906 28.389 90.96 28.5844 90.7968 28.7406C90.6336 28.8923 90.4448 29.0073 90.2303 29.0854C90.0158 29.159 89.7897 29.1957 89.5519 29.1957ZM89.5519 28.6441C89.6918 28.6441 89.8316 28.6211 89.9715 28.5752C90.1114 28.5246 90.235 28.4487 90.3422 28.3476C90.4495 28.2419 90.5357 28.1063 90.601 27.9408C90.6709 27.7753 90.7059 27.573 90.7059 27.334V27.1961C90.7059 26.9755 90.6709 26.787 90.601 26.6307C90.5357 26.4744 90.4495 26.3457 90.3422 26.2445C90.235 26.1434 90.1114 26.0699 89.9715 26.0239C89.8316 25.9779 89.6918 25.9549 89.5519 25.9549C89.412 25.9549 89.2721 25.9779 89.1322 26.0239C88.9923 26.0699 88.8688 26.1434 88.7615 26.2445C88.6543 26.3457 88.5657 26.4744 88.4958 26.6307C88.4305 26.787 88.3978 26.9755 88.3978 27.1961V27.334C88.3978 27.573 88.4305 27.7753 88.4958 27.9408C88.5657 28.1063 88.6543 28.2419 88.7615 28.3476C88.8688 28.4487 88.9923 28.5246 89.1322 28.5752C89.2721 28.6211 89.412 28.6441 89.5519 28.6441Z" fill="#6A6A6A"/>
<path d="M84.0582 25.4727H85.6668C86.1238 25.4727 86.4595 25.5669 86.674 25.7554C86.8885 25.9392 86.9957 26.1783 86.9957 26.4725C86.9957 26.5506 86.9817 26.6311 86.9537 26.7138C86.9258 26.792 86.8861 26.8655 86.8349 26.9345C86.7882 27.0034 86.7299 27.0632 86.66 27.1137C86.5947 27.1643 86.5201 27.2034 86.4362 27.231C86.6647 27.2861 86.8372 27.3918 86.9537 27.5481C87.075 27.6998 87.1356 27.8791 87.1356 28.086C87.1356 28.4032 87.0284 28.656 86.8139 28.8445C86.5994 29.0329 86.2637 29.1272 85.8067 29.1272H84.0582V25.4727ZM85.8067 28.5893C86.0678 28.5893 86.252 28.5434 86.3592 28.4514C86.4665 28.3595 86.5201 28.2285 86.5201 28.0584C86.5201 27.8837 86.4665 27.7504 86.3592 27.6585C86.252 27.5619 86.0678 27.5137 85.8067 27.5137H84.6737V28.5893H85.8067ZM85.6668 27.0172C85.9326 27.0172 86.1168 26.9712 86.2194 26.8793C86.3266 26.7874 86.3802 26.6609 86.3802 26.5001C86.3802 26.3484 86.3266 26.2288 86.2194 26.1415C86.1168 26.0542 85.9326 26.0105 85.6668 26.0105H84.6737V27.0172H85.6668Z" fill="#6A6A6A"/>
<path d="M81.6807 29.1957C81.4429 29.1957 81.2215 29.159 81.0163 29.0854C80.8111 29.0073 80.6339 28.8923 80.4847 28.7406C80.3355 28.5844 80.2166 28.389 80.128 28.1545C80.0441 27.9201 80.0021 27.6466 80.0021 27.334V27.1961C80.0021 26.9019 80.0488 26.6422 80.142 26.4169C80.2353 26.1917 80.3588 26.0055 80.5127 25.8584C80.6666 25.7067 80.8438 25.5941 81.0443 25.5205C81.2494 25.4424 81.4616 25.4033 81.6807 25.4033C81.8999 25.4033 82.0957 25.4332 82.2682 25.493C82.4454 25.5527 82.597 25.6355 82.7229 25.7412C82.8534 25.8469 82.9583 25.971 83.0376 26.1135C83.1215 26.256 83.1822 26.41 83.2195 26.5755H82.59C82.5527 26.4882 82.5084 26.4077 82.4571 26.3342C82.4105 26.256 82.3498 26.1894 82.2752 26.1342C82.2053 26.0791 82.1214 26.0354 82.0235 26.0032C81.9255 25.971 81.8113 25.9549 81.6807 25.9549C81.5455 25.9549 81.415 25.9802 81.2891 26.0308C81.1632 26.0768 81.0513 26.1503 80.9533 26.2514C80.8554 26.348 80.7762 26.4744 80.7155 26.6307C80.6596 26.787 80.6316 26.9755 80.6316 27.1961V27.334C80.6316 27.5684 80.6596 27.7707 80.7155 27.9408C80.7762 28.1063 80.8554 28.2419 80.9533 28.3476C81.0513 28.4487 81.1632 28.5246 81.2891 28.5752C81.415 28.6211 81.5455 28.6441 81.6807 28.6441C81.9092 28.6441 82.1004 28.589 82.2543 28.4786C82.4128 28.3683 82.5247 28.2166 82.59 28.0235H83.2195C83.1309 28.3867 82.949 28.674 82.6739 28.8854C82.3988 29.0923 82.0677 29.1957 81.6807 29.1957Z" fill="#6A6A6A"/>
<path d="M74.8244 25.4727H75.4399V26.8517H76.3281C76.7944 26.8517 77.1371 26.9528 77.3563 27.1551C77.5801 27.3574 77.692 27.6378 77.692 27.9963C77.692 28.3457 77.5801 28.6215 77.3563 28.8238C77.1371 29.026 76.7944 29.1272 76.3281 29.1272H74.8244V25.4727ZM76.2932 28.5893C76.5823 28.5893 76.7851 28.5388 76.9017 28.4376C77.0182 28.3365 77.0765 28.1871 77.0765 27.9894C77.0765 27.7918 77.0182 27.6424 76.9017 27.5412C76.7851 27.4401 76.5823 27.3896 76.2932 27.3896H75.4399V28.5893H76.2932Z" fill="#6A6A6A"/>
<path d="M72.4461 29.1957C72.2083 29.1957 71.9868 29.159 71.7816 29.0854C71.5764 29.0073 71.3993 28.8923 71.2501 28.7406C71.1008 28.5844 70.9819 28.389 70.8934 28.1545C70.8094 27.9201 70.7675 27.6466 70.7675 27.334V27.1961C70.7675 26.9019 70.8141 26.6422 70.9073 26.4169C71.0006 26.1917 71.1242 26.0055 71.278 25.8584C71.4319 25.7067 71.6091 25.5941 71.8096 25.5205C72.0147 25.4424 72.2269 25.4033 72.4461 25.4033C72.6652 25.4033 72.861 25.4332 73.0336 25.493C73.2108 25.5527 73.3623 25.6355 73.4882 25.7412C73.6187 25.8469 73.7237 25.971 73.8029 26.1135C73.8869 26.256 73.9475 26.41 73.9848 26.5755H73.3553C73.318 26.4882 73.2737 26.4077 73.2224 26.3342C73.1758 26.256 73.1152 26.1894 73.0406 26.1342C72.9706 26.0791 72.8867 26.0354 72.7888 26.0032C72.6909 25.971 72.5766 25.9549 72.4461 25.9549C72.3108 25.9549 72.1803 25.9802 72.0544 26.0308C71.9285 26.0768 71.8166 26.1503 71.7187 26.2514C71.6207 26.348 71.5415 26.4744 71.4809 26.6307C71.4249 26.787 71.3969 26.9755 71.3969 27.1961V27.334C71.3969 27.5684 71.4249 27.7707 71.4809 27.9408C71.5415 28.1063 71.6207 28.2419 71.7187 28.3476C71.8166 28.4487 71.9285 28.5246 72.0544 28.5752C72.1803 28.6211 72.3108 28.6441 72.4461 28.6441C72.6745 28.6441 72.8657 28.589 73.0196 28.4786C73.1781 28.3683 73.29 28.2166 73.3553 28.0235H73.9848C73.8962 28.3867 73.7143 28.674 73.4392 28.8854C73.1641 29.0923 72.8331 29.1957 72.4461 29.1957Z" fill="#6A6A6A"/>
<path d="M66.7437 25.4727H67.3591V28.2308L69.2755 25.4727H69.891V29.1272H69.2755V26.369L67.3591 29.1272H66.7437V25.4727Z" fill="#6A6A6A"/>
<path d="M62.4771 29.1961C62.4072 29.1961 62.3372 29.1892 62.2673 29.1754V28.5686C62.2906 28.5732 62.3256 28.5755 62.3722 28.5755C62.4748 28.5755 62.5634 28.5434 62.638 28.479C62.7172 28.4147 62.7802 28.302 62.8268 28.1411C62.8734 27.9802 62.9084 27.7619 62.9317 27.4861C62.955 27.2103 62.9667 26.8609 62.9667 26.438V25.4727H65.6245V29.1272H65.009V26.0105H63.5822V26.5759C63.5822 27.0862 63.5589 27.5091 63.5122 27.8446C63.4656 28.1802 63.3957 28.4491 63.3024 28.6514C63.2138 28.8491 63.0996 28.9893 62.9597 29.072C62.8198 29.1547 62.6589 29.1961 62.4771 29.1961Z" fill="#6A6A6A"/>
<path d="M60.2025 29.1957C59.9647 29.1957 59.7385 29.159 59.524 29.0854C59.3095 29.0119 59.1207 28.8992 58.9575 28.7475C58.7943 28.5912 58.6637 28.3959 58.5658 28.1614C58.4679 27.927 58.4189 27.6512 58.4189 27.334V27.1961C58.4189 26.8927 58.4656 26.6307 58.5588 26.41C58.6521 26.1848 58.7756 25.9986 58.9295 25.8515C59.0881 25.6998 59.2699 25.5872 59.4751 25.5136C59.6849 25.4401 59.904 25.4033 60.1325 25.4033C60.6781 25.4033 61.1 25.5504 61.3985 25.8446C61.6969 26.1388 61.8461 26.5548 61.8461 27.0927V27.4788H59.0344C59.0344 27.6949 59.0694 27.8764 59.1393 28.0235C59.2093 28.1706 59.3002 28.2902 59.4121 28.3821C59.524 28.474 59.6476 28.5407 59.7828 28.5821C59.9227 28.6234 60.0626 28.6441 60.2025 28.6441C60.4822 28.6441 60.6967 28.5981 60.8459 28.5062C60.9998 28.4143 61.1094 28.2879 61.1746 28.127H61.7761C61.7388 28.3016 61.6712 28.4556 61.5733 28.589C61.4801 28.7223 61.3635 28.8349 61.2236 28.9268C61.0884 29.0142 60.9322 29.0808 60.755 29.1268C60.5825 29.1728 60.3983 29.1957 60.2025 29.1957ZM60.1675 25.9549C60.0229 25.9549 59.8831 25.9756 59.7478 26.017C59.6126 26.0538 59.4914 26.1158 59.3841 26.2032C59.2816 26.2859 59.1976 26.3916 59.1324 26.5204C59.0671 26.6491 59.0344 26.8031 59.0344 26.9823H61.2656C61.2609 26.7939 61.2283 26.6353 61.1677 26.5066C61.1117 26.3733 61.0348 26.2675 60.9368 26.1894C60.8389 26.1066 60.7224 26.0469 60.5871 26.0101C60.4566 25.9733 60.3167 25.9549 60.1675 25.9549Z" fill="#6A6A6A"/>
<path d="M54.0093 28.5893H54.464C54.5152 28.5204 54.5619 28.4147 54.6038 28.2722C54.6458 28.1296 54.6831 27.9619 54.7157 27.7688C54.7484 27.5757 54.7717 27.3666 54.7857 27.1413C54.8043 26.9115 54.8137 26.677 54.8137 26.438V25.4727H57.4015V28.5893H57.9261V29.9891H57.3386V29.1272H54.5968V29.9891H54.0093V28.5893ZM56.786 28.5893V26.0105H55.4152V26.5759C55.4152 26.769 55.4082 26.962 55.3942 27.1551C55.3802 27.3436 55.3592 27.5252 55.3312 27.6998C55.3033 27.8699 55.2683 28.0331 55.2263 28.1894C55.189 28.3411 55.1447 28.4744 55.0934 28.5893H56.786Z" fill="#6A6A6A"/>
<path d="M51.8422 29.1957C51.6044 29.1957 51.3783 29.159 51.1638 29.0854C50.9493 29.0073 50.7605 28.8923 50.5973 28.7406C50.4341 28.5844 50.3035 28.389 50.2056 28.1545C50.1077 27.9201 50.0587 27.6466 50.0587 27.334V27.1961C50.0587 26.9019 50.1077 26.6422 50.2056 26.4169C50.3035 26.1917 50.4341 26.0055 50.5973 25.8584C50.7605 25.7067 50.9493 25.5941 51.1638 25.5205C51.3783 25.4424 51.6044 25.4033 51.8422 25.4033C52.08 25.4033 52.3062 25.4424 52.5207 25.5205C52.7352 25.5941 52.924 25.7067 53.0872 25.8584C53.2504 26.0055 53.3809 26.1917 53.4789 26.4169C53.5768 26.6422 53.6257 26.9019 53.6257 27.1961V27.334C53.6257 27.6466 53.5768 27.9201 53.4789 28.1545C53.3809 28.389 53.2504 28.5844 53.0872 28.7406C52.924 28.8923 52.7352 29.0073 52.5207 29.0854C52.3062 29.159 52.08 29.1957 51.8422 29.1957ZM51.8422 28.6441C51.9821 28.6441 52.122 28.6211 52.2619 28.5752C52.4018 28.5246 52.5253 28.4487 52.6326 28.3476C52.7398 28.2419 52.8261 28.1063 52.8914 27.9408C52.9613 27.7753 52.9963 27.573 52.9963 27.334V27.1961C52.9963 26.9755 52.9613 26.787 52.8914 26.6307C52.8261 26.4744 52.7398 26.3457 52.6326 26.2445C52.5253 26.1434 52.4018 26.0699 52.2619 26.0239C52.122 25.9779 51.9821 25.9549 51.8422 25.9549C51.7023 25.9549 51.5625 25.9779 51.4226 26.0239C51.2827 26.0699 51.1591 26.1434 51.0519 26.2445C50.9446 26.3457 50.8561 26.4744 50.7861 26.6307C50.7208 26.787 50.6882 26.9755 50.6882 27.1961V27.334C50.6882 27.573 50.7208 27.7753 50.7861 27.9408C50.8561 28.1063 50.9446 28.2419 51.0519 28.3476C51.1591 28.4487 51.2827 28.5246 51.4226 28.5752C51.5625 28.6211 51.7023 28.6441 51.8422 28.6441Z" fill="#6A6A6A"/>
<path d="M45.1978 24.2998H49.0445V29.1265H48.3871V24.8652H45.8552V29.1265H45.1978V24.2998Z" fill="#6A6A6A"/>
<defs>
<linearGradient id="paint0_linear_997_11927" x1="-0.000732422" y1="18.0056" x2="35.1975" y2="18.0056" gradientUnits="userSpaceOnUse">
<stop stop-color="#FF512F"/>
<stop offset="1" stop-color="#F09819"/>
</linearGradient>
<clipPath id="clip0_997_11927">
<rect width="35.1979" height="36" fill="white"/>
</clipPath>
</defs>
</svg>
