<svg width="23" height="22" viewBox="0 0 23 22" fill="none" xmlns="http://www.w3.org/2000/svg">
<path d="M11.9794 20.1693H11.0102L8.73046 17.8213H5.35865L4.63515 17.1387V13.8352L2.32812 11.4872V10.518L4.63515 8.17001V4.85281L5.35865 4.17026H8.73046L11.0102 1.83594H11.9794L14.3274 4.17026H17.6446L18.3271 4.83916V8.17001L20.6615 10.518V11.4872L18.2862 13.8352V17.1387L17.6036 17.8213H14.3274L11.9794 20.1693Z" fill="#FF706F"/>
<path d="M7.90286 8.20857C7.68037 7.98608 7.68037 7.62535 7.90286 7.40286C8.12535 7.18037 8.48608 7.18037 8.70857 7.40286L11.5 10.1943L14.2914 7.40286C14.5139 7.18037 14.8747 7.18037 15.0971 7.40286C15.3196 7.62535 15.3196 7.98608 15.0971 8.20857L12.3057 11L15.0971 13.7914C15.3196 14.0139 15.3196 14.3747 15.0971 14.5971C14.8747 14.8196 14.5139 14.8196 14.2914 14.5971L11.5 11.8057L8.70857 14.5971C8.48608 14.8196 8.12535 14.8196 7.90286 14.5971C7.68037 14.3747 7.68037 14.0139 7.90286 13.7914L10.6943 11L7.90286 8.20857Z" fill="white"/>
</svg>
