<svg width="35" height="35" viewBox="0 0 35 35" fill="none" xmlns="http://www.w3.org/2000/svg">
<circle cx="17.5" cy="17.5" r="17.3343" fill="#F6F6F6" stroke="#F6F6F6" stroke-width="0.331418"/>
<g clip-path="url(#clip0_2721_16672)">
<path d="M19.1741 25.5615C23.7745 25.5615 27.5038 21.875 27.5038 17.3276C27.5038 12.7802 23.7745 9.09375 19.1741 9.09375C14.5738 9.09375 10.8445 12.7802 10.8445 17.3276C10.8445 21.875 14.5738 25.5615 19.1741 25.5615Z" fill="#4DA439"/>
<path d="M15.7015 15.0209V14.7863C15.7015 14.02 15.2743 13.4727 14.5465 13.4727C13.8504 13.4727 13.3916 13.9887 13.3916 14.8645C13.3916 15.8967 13.9295 16.2407 14.6256 16.2407C15.1002 16.2407 15.3692 16.1 15.6382 15.8185L15.2901 15.5057C15.1002 15.6934 14.942 15.7716 14.6256 15.7716C14.1827 15.7716 13.9295 15.49 13.9295 15.0209H15.7015V15.0209ZM15.1635 14.6456H13.9295C13.9453 14.4736 13.9453 14.3954 14.0086 14.2703C14.0877 14.067 14.2934 13.9262 14.5465 13.9262C14.7997 13.9262 15.0053 14.067 15.0844 14.2703C15.1477 14.3954 15.1635 14.4736 15.1635 14.6456ZM18.3752 16.2095V15.7247H16.9987L18.3752 13.9419V13.5196H16.3976V14.0044H17.6949L16.3343 15.7872V16.2095H18.3752H18.3752ZM21.2545 16.1939V13.5196H20.7166V13.8011C20.5109 13.5509 20.2895 13.4727 20.0047 13.4727C19.7199 13.4727 19.4984 13.5666 19.3402 13.7073C19.0713 13.9732 19.0396 14.3485 19.0396 14.8177C19.0396 15.2712 19.0713 15.6465 19.3402 15.9124C19.4984 16.0531 19.7199 16.147 19.9889 16.147C20.2736 16.147 20.4951 16.0688 20.7008 15.8342V16.1939C20.7008 16.5536 20.5268 16.882 20.0522 16.882C19.7832 16.882 19.6408 16.7882 19.4668 16.6318L19.1187 16.9758C19.4035 17.2417 19.6566 17.3355 20.0838 17.3355C20.8116 17.3355 21.2545 16.8664 21.2545 16.1939V16.1939ZM20.7008 14.8177C20.7008 15.2399 20.6375 15.6621 20.1471 15.6621C19.6408 15.6621 19.5775 15.2399 19.5775 14.8177C19.5775 14.3798 19.6408 13.9732 20.1471 13.9732C20.6375 13.9732 20.7008 14.3798 20.7008 14.8177ZM24.4187 16.2095V13.5196H23.865V15.1617C23.865 15.5683 23.596 15.756 23.2954 15.756C22.9948 15.756 22.7417 15.584 22.7417 15.1617V13.5196H22.188V15.2399C22.188 15.537 22.2671 15.8029 22.4728 16.0062C22.631 16.1626 22.8683 16.2408 23.1372 16.2408C23.422 16.2408 23.6909 16.147 23.865 15.9437V16.2095H24.4187Z" fill="#FEFEFE"/>
<path d="M15.6065 21.1362V19.3221C15.6065 18.7122 15.2268 18.3994 14.4832 18.3994C14.0244 18.3994 13.7555 18.4932 13.5023 18.7904L13.8504 19.1188C14.0086 18.9311 14.151 18.8685 14.4516 18.8685C14.8788 18.8685 15.0528 19.0249 15.0528 19.369V19.5567H14.325C13.708 19.5567 13.3916 19.8851 13.3916 20.3386C13.3916 20.5732 13.4707 20.7765 13.5973 20.9173C13.7713 21.0893 13.9928 21.1675 14.3408 21.1675C14.6731 21.1675 14.8629 21.0893 15.0686 20.886V21.1362H15.6065H15.6065ZM15.0528 20.1509C15.0528 20.3543 15.0211 20.4794 14.942 20.5575C14.7838 20.6983 14.6256 20.7139 14.42 20.7139C14.0719 20.7139 13.9137 20.5732 13.9137 20.323C13.9137 20.0884 14.0877 19.932 14.42 19.932H15.0528V20.1509V20.1509ZM20.0205 21.1362V19.4003C20.0205 19.1031 19.9414 18.8529 19.7357 18.6496C19.5617 18.4932 19.4035 18.3994 19.1187 18.3994C18.7548 18.3994 18.565 18.5245 18.3435 18.7904C18.1695 18.5245 17.9796 18.3994 17.6316 18.3994C17.3626 18.3994 17.1728 18.5089 16.9829 18.6965V18.4307H16.445V21.1362H16.9987V19.4785C16.9987 19.0719 17.1886 18.8842 17.4892 18.8842C17.7898 18.8842 17.9638 19.0718 17.9638 19.4785V21.1362H18.5175V19.4628C18.5175 19.0718 18.7074 18.8842 18.9921 18.8842C19.3086 18.8842 19.4668 19.0718 19.4668 19.4785V21.1362H20.0205H20.0205ZM23.0423 21.1362V19.3221C23.0423 18.7122 22.6626 18.3994 21.9032 18.3994C21.4602 18.3994 21.1913 18.4932 20.9223 18.7904L21.2862 19.1188C21.4444 18.9311 21.5868 18.8685 21.8874 18.8685C22.3145 18.8685 22.4886 19.0249 22.4886 19.369V19.5567H21.7608C21.1438 19.5567 20.8116 19.8851 20.8116 20.3386C20.8116 20.5732 20.8907 20.7765 21.0331 20.9173C21.2071 21.0893 21.4286 21.1675 21.7608 21.1675C22.1089 21.1675 22.2987 21.0893 22.4886 20.886V21.1362H23.0423H23.0423ZM22.4886 20.1509C22.4886 20.3543 22.4411 20.4794 22.362 20.5575C22.2196 20.6983 22.0614 20.7139 21.8557 20.7139C21.5077 20.7139 21.3495 20.5732 21.3495 20.323C21.3495 20.0884 21.5235 19.932 21.8399 19.932H22.4886V20.1509V20.1509ZM24.9566 21.1362V20.667H24.7035C24.482 20.667 24.4187 20.5575 24.4187 20.3542V17.3359H23.865V20.3855C23.865 20.7921 24.0865 21.1362 24.6086 21.1362H24.9566Z" fill="#FEFEFE"/>
<path d="M19.1662 27C16.4609 27 14.0245 25.9209 12.2525 24.1693C10.4806 22.4178 9.37317 19.9937 9.37317 17.3195H10.1642C10.1642 19.7748 11.1767 21.9955 12.8063 23.6063C14.4358 25.2171 16.6824 26.218 19.1663 26.218C21.6501 26.218 23.8967 25.2171 25.5262 23.6063C27.1558 21.9955 28.1683 19.7748 28.1683 17.3195C28.1683 14.8642 27.1558 12.6435 25.5262 11.0327C23.8967 9.42187 21.6501 8.42097 19.1663 8.42097C16.7773 8.42097 14.4991 9.3593 12.8063 11.0327C12.0785 9.56262 12.9012 8.35842 14.5307 7.70158C17.5842 6.49738 22.1564 6.74761 25.3364 9.20291C32.4083 14.6922 28.6429 26.9999 19.1662 26.9999V27Z" fill="#A82682"/>
<path d="M11.058 20.6821C11.7177 20.6821 12.2525 19.5828 12.2525 18.2268C12.2525 16.8708 11.7177 15.7715 11.058 15.7715C10.3983 15.7715 9.86353 16.8708 9.86353 18.2268C9.86353 19.5828 10.3983 20.6821 11.058 20.6821Z" fill="#FEFEFE"/>
<path d="M13.4233 25.1701C13.0119 24.8573 12.6164 24.5289 12.2525 24.1692C10.4806 22.4176 9.37317 19.9936 9.37317 17.3193H10.1642C10.1642 19.7746 11.1767 21.9954 12.8063 23.6062C13.5973 24.4037 14.5466 25.0449 15.6066 25.4985C15.1161 25.7643 14.4358 25.8895 13.4233 25.1701H13.4233Z" fill="#A82682"/>
<path d="M7 23.6061C10.2433 21.7763 11.6197 19.3992 11.6197 17.3193C11.6197 16.9283 11.414 15.99 10.8919 15.99C10.7337 15.99 10.5597 16.1151 10.4331 16.3184C10.2749 16.5686 10.1642 16.9127 10.1642 17.3193H9.37312C9.37312 16.7719 9.53132 16.2558 9.76864 15.8961C10.0534 15.4739 10.4489 15.208 10.8919 15.208C14.6414 15.208 12.4265 25.9363 7 23.6061Z" fill="#A82682"/>
</g>
<defs>
<clipPath id="clip0_2721_16672">
<rect width="22" height="20" fill="white" transform="translate(7 7)"/>
</clipPath>
</defs>
</svg>
