<svg width="18.776428" height="18.530273" viewBox="0 0 18.7764 18.5303" fill="none" xmlns="http://www.w3.org/2000/svg" xmlns:xlink="http://www.w3.org/1999/xlink">
    <desc>
        Created with Pixso.
    </desc>
    <defs/>
    <path id="Vector" d="M2.79639 6.91016L2.79639 9.7998C2.79639 10.4102 2.53641 11.3398 2.22638 11.8604L1.07639 13.7705C0.366394 14.9502 0.856384 16.2598 2.1564 16.7002C6.4664 18.1406 11.1164 18.1406 15.4264 16.7002C16.6364 16.2998 17.1664 14.8701 16.5064 13.7705L15.3564 11.8604C15.0564 11.3398 14.7964 10.4102 14.7964 9.7998L14.7964 6.91016C14.7964 3.61035 12.0964 0.910156 8.79639 0.910156C5.48639 0.910156 2.79639 3.60059 2.79639 6.91016Z" stroke="#2C2D35" stroke-opacity="1.000000" stroke-width="1.500000"/>
    <path id="Vector" d="M18.7764 3.5C18.7764 5.43262 17.2094 7 15.2764 7C13.3434 7 11.7764 5.43262 11.7764 3.5C11.7764 1.56738 13.3434 0 15.2764 0C17.2094 0 18.7764 1.56738 18.7764 3.5Z" fill="#FD7172" fill-opacity="1.000000" fill-rule="evenodd"/>
</svg>
