<svg width="20" height="20" viewBox="0 0 20 20" fill="none" xmlns="http://www.w3.org/2000/svg">
    <path d="M13.1688 2.84915C13.0946 2.77966 13.0018 2.73336 12.9017 2.71595C12.8017 2.69855 12.6987 2.71079 12.6054 2.75118C12.5122 2.79156 12.4329 2.85833 12.3771 2.94326C12.3214 3.02818 12.2917 3.12756 12.2917 3.22915V5.50915C12.1425 5.51248 11.9688 5.52165 11.775 5.53915C11.1354 5.59831 10.2683 5.75831 9.36833 6.16623C7.53417 6.99748 5.64917 8.82206 5.21167 12.6496C5.19975 12.7543 5.21993 12.8603 5.26952 12.9533C5.31911 13.0464 5.39578 13.1222 5.4894 13.1708C5.58301 13.2193 5.68916 13.2383 5.7938 13.2252C5.89844 13.2121 5.99664 13.1676 6.07542 13.0975C7.88167 11.4916 9.57417 10.8004 10.7987 10.5062C11.2748 10.3891 11.7614 10.3198 12.2513 10.2991L12.2917 10.2979V12.6041C12.2917 12.7057 12.3214 12.8051 12.3771 12.89C12.4329 12.975 12.5122 13.0417 12.6054 13.0821C12.6987 13.1225 12.8017 13.1347 12.9017 13.1173C13.0018 13.0999 13.0946 13.0536 13.1688 12.9841L18.1688 8.29665C18.2207 8.24793 18.2621 8.18908 18.2905 8.12372C18.3188 8.05835 18.3334 7.98788 18.3334 7.91665C18.3334 7.84541 18.3188 7.77494 18.2905 7.70958C18.2621 7.64422 18.2207 7.58536 18.1688 7.53665L13.1688 2.84915ZM2.5 5.93748C2.5 5.24681 2.77437 4.58443 3.26274 4.09606C3.75112 3.60768 4.4135 3.33331 5.10417 3.33331H8.54167C8.6798 3.33331 8.81228 3.38819 8.90995 3.48586C9.00763 3.58354 9.0625 3.71601 9.0625 3.85415C9.0625 3.99228 9.00763 4.12476 8.90995 4.22243C8.81228 4.32011 8.6798 4.37498 8.54167 4.37498H5.10417C4.68977 4.37498 4.29234 4.5396 3.99931 4.83263C3.70629 5.12565 3.54167 5.52308 3.54167 5.93748V14.8958C3.54167 15.3102 3.70629 15.7076 3.99931 16.0007C4.29234 16.2937 4.68977 16.4583 5.10417 16.4583H14.0625C14.4769 16.4583 14.8743 16.2937 15.1674 16.0007C15.4604 15.7076 15.625 15.3102 15.625 14.8958V13.9583C15.625 13.8202 15.6799 13.6877 15.7775 13.59C15.8752 13.4924 16.0077 13.4375 16.1458 13.4375C16.284 13.4375 16.4164 13.4924 16.5141 13.59C16.6118 13.6877 16.6667 13.8202 16.6667 13.9583V14.8958C16.6667 15.5865 16.3923 16.2489 15.9039 16.7372C15.4155 17.2256 14.7532 17.5 14.0625 17.5H5.10417C4.4135 17.5 3.75112 17.2256 3.26274 16.7372C2.77437 16.2489 2.5 15.5865 2.5 14.8958V5.93748Z" fill="#0073FF"/>
</svg>
