<svg width="20.000000" height="20.000000" viewBox="0 0 20 20" fill="none" xmlns="http://www.w3.org/2000/svg" xmlns:xlink="http://www.w3.org/1999/xlink">
    <desc>
        Created with Pixso.
    </desc>
    <defs/>
    <path id="Vector" d="M14.1667 18.3333L14.1667 13.3333" stroke="#9395A5" stroke-opacity="1.000000" stroke-width="1.500000" stroke-linejoin="round" stroke-linecap="round"/>
    <path id="Vector" d="M14.1667 4.16669L14.1667 1.66669" stroke="#9395A5" stroke-opacity="1.000000" stroke-width="1.500000" stroke-linejoin="round" stroke-linecap="round"/>
    <path id="Vector" d="M14.1667 10.8334C12.3257 10.8334 10.8333 9.34094 10.8333 7.5C10.8333 5.65906 12.3257 4.16669 14.1667 4.16669C16.0076 4.16669 17.5 5.65906 17.5 7.5C17.5 9.34094 16.0076 10.8334 14.1667 10.8334Z" stroke="#9395A5" stroke-opacity="1.000000" stroke-width="1.500000" stroke-linejoin="round"/>
    <path id="Vector" d="M5.83334 18.3333L5.83334 15.8333" stroke="#9395A5" stroke-opacity="1.000000" stroke-width="1.500000" stroke-linejoin="round" stroke-linecap="round"/>
    <path id="Vector" d="M5.83334 6.66669L5.83334 1.66669" stroke="#9395A5" stroke-opacity="1.000000" stroke-width="1.500000" stroke-linejoin="round" stroke-linecap="round"/>
    <path id="Vector" d="M5.83333 15.8334C3.99239 15.8334 2.5 14.3409 2.5 12.5C2.5 10.6591 3.99239 9.16669 5.83333 9.16669C7.67429 9.16669 9.16667 10.6591 9.16667 12.5C9.16667 14.3409 7.67429 15.8334 5.83333 15.8334Z" stroke="#9395A5" stroke-opacity="1.000000" stroke-width="1.500000" stroke-linejoin="round"/>
    <g opacity="0.000000"/>
</svg>
