<svg width="80" height="80" viewBox="0 0 80 80" fill="none" xmlns="http://www.w3.org/2000/svg">
<path fill-rule="evenodd" clip-rule="evenodd" d="M5 40C5 51.9565 7.72023 60.7087 13.452 66.4673L13.5282 66.5435C19.2644 72.2529 27.9898 75 40 75C52.0102 75 60.7356 72.2529 66.4718 66.5435L66.548 66.4673C72.2842 60.7042 75 51.9565 75 40C75 16.0871 64.1325 4.99552 40 5C27.9629 5 19.2241 7.76057 13.4878 13.4968C7.72472 19.251 5 28.0166 5 40Z" fill="#66CA28"/>
<path fill-rule="evenodd" clip-rule="evenodd" d="M39.2133 52.9744L57.6834 32.452L53.1072 28.3334L36.7711 46.4846L28.8035 38.7826L24.5244 43.2092L34.7856 53.1284C35.3863 53.7091 36.1972 54.0206 37.0321 53.9916C37.8671 53.9626 38.6544 53.5954 39.2133 52.9744Z" fill="white"/>
</svg>
