<svg width="24" height="24" viewBox="0 0 24 24" fill="none" xmlns="http://www.w3.org/2000/svg">
<g clip-path="url(#clip0_1522_15702)">
<path d="M12 0C8.81812 0 5.76375 1.26506 3.51562 3.51469C1.26518 5.76521 0.000623381 8.81734 0 12C0 15.1813 1.26562 18.2357 3.51562 20.4853C5.76375 22.7349 8.81812 24 12 24C15.1819 24 18.2362 22.7349 20.4844 20.4853C22.7344 18.2357 24 15.1813 24 12C24 8.81869 22.7344 5.76431 20.4844 3.51469C18.2362 1.26506 15.1819 0 12 0Z" fill="url(#paint0_linear_1522_15702)"/>
<path d="M5.43477 11.8682C8.93352 10.3442 11.266 9.33935 12.4323 8.85391C15.766 7.46773 16.4579 7.22698 16.9098 7.21882C17.0091 7.21723 17.2304 7.24179 17.3748 7.35851C17.4948 7.45695 17.5285 7.59007 17.5454 7.68354C17.5604 7.77691 17.581 7.98973 17.5641 8.15585C17.3841 10.0534 16.6023 14.658 16.2048 16.7833C16.0379 17.6825 15.706 17.984 15.3854 18.0135C14.6879 18.0776 14.1591 17.553 13.4841 17.1107C12.4285 16.4182 11.8323 15.9874 10.8066 15.3118C9.62165 14.531 10.3904 14.1019 11.0654 13.4006C11.2416 13.217 14.3129 10.4242 14.371 10.1709C14.3785 10.1392 14.386 10.0211 14.3148 9.95885C14.2454 9.89641 14.1423 9.91779 14.0673 9.93466C13.9604 9.95866 12.2748 11.0739 9.00477 13.2802C8.52665 13.6091 8.09352 13.7694 7.70352 13.761C7.27602 13.7518 6.45102 13.5187 5.8379 13.3196C5.0879 13.0753 4.48977 12.9461 4.54227 12.5312C4.56852 12.3152 4.86665 12.0941 5.43477 11.8682Z" fill="white"/>
</g>
<defs>
<linearGradient id="paint0_linear_1522_15702" x1="1200" y1="0" x2="1200" y2="2400" gradientUnits="userSpaceOnUse">
<stop stop-color="#2AABEE"/>
<stop offset="1" stop-color="#229ED9"/>
</linearGradient>
<clipPath id="clip0_1522_15702">
<rect width="24" height="24" fill="white"/>
</clipPath>
</defs>
</svg>
