<svg width="138" height="160" viewBox="0 0 138 160" fill="none" xmlns="http://www.w3.org/2000/svg">
<rect x="0.246351" y="0.246351" width="137.007" height="159.507" rx="5.75365" stroke="#6A6A6A" stroke-width="0.492701" stroke-linecap="round" stroke-dasharray="2.46 2.46"/>
<path d="M74 49.3333H74.0167M69.8333 71H59C57.6739 71 56.4021 70.4732 55.4645 69.5355C54.5268 68.5979 54 67.3261 54 66V46C54 44.6739 54.5268 43.4021 55.4645 42.4645C56.4021 41.5268 57.6739 41 59 41H79C80.3261 41 81.5979 41.5268 82.5355 42.4645C83.4732 43.4021 84 44.6739 84 46V56.8333" stroke="#6A6A6A" stroke-width="2" stroke-linecap="round" stroke-linejoin="round"/>
<path d="M54 62.6666L62.3333 54.3333C63.88 52.845 65.7867 52.845 67.3333 54.3333L74 61" stroke="#6A6A6A" stroke-width="2" stroke-linecap="round" stroke-linejoin="round"/>
<path d="M72.3335 59.3334L74.0002 57.6667C75.1168 56.5934 76.4168 56.2934 77.6368 56.7667M75.6668 67.6667H85.6668M80.6668 62.6667V72.6667" stroke="#6A6A6A" stroke-width="2" stroke-linecap="round" stroke-linejoin="round"/>
<path d="M46.9746 99.516C46.5613 99.516 46.1946 99.466 45.8746 99.366C45.5546 99.2593 45.2813 99.1127 45.0546 98.926C44.828 98.7393 44.648 98.5193 44.5146 98.266C44.3813 98.006 44.3013 97.7227 44.2746 97.416H45.2146C45.268 97.796 45.448 98.1027 45.7546 98.336C46.0613 98.5627 46.468 98.676 46.9746 98.676C47.5946 98.676 48.0413 98.566 48.3146 98.346C48.5946 98.126 48.7346 97.8293 48.7346 97.456C48.7346 97.096 48.6013 96.7993 48.3346 96.566C48.068 96.326 47.6313 96.206 47.0246 96.206H46.0746V95.426H47.0246C47.5246 95.426 47.8913 95.3193 48.1246 95.106C48.3646 94.886 48.4846 94.6093 48.4846 94.276C48.4846 93.9427 48.358 93.6727 48.1046 93.466C47.8513 93.2593 47.4746 93.156 46.9746 93.156C46.4413 93.156 46.048 93.2593 45.7946 93.466C45.548 93.666 45.4046 93.9327 45.3646 94.266H44.4246C44.4513 93.986 44.5213 93.726 44.6346 93.486C44.7546 93.246 44.9213 93.0393 45.1346 92.866C45.348 92.6927 45.608 92.5593 45.9146 92.466C46.2213 92.366 46.5746 92.316 46.9746 92.316C47.7813 92.316 48.3913 92.496 48.8046 92.856C49.218 93.216 49.4246 93.6893 49.4246 94.276C49.4246 94.6427 49.318 94.956 49.1046 95.216C48.898 95.4693 48.6213 95.6527 48.2746 95.766C48.6946 95.866 49.0313 96.0593 49.2846 96.346C49.5446 96.6327 49.6746 97.0027 49.6746 97.456C49.6746 97.756 49.6146 98.0327 49.4946 98.286C49.3813 98.5327 49.208 98.7493 48.9746 98.936C48.748 99.116 48.468 99.2593 48.1346 99.366C47.8013 99.466 47.4146 99.516 46.9746 99.516ZM52.4711 99.516C52.1778 99.516 51.9178 99.476 51.6911 99.396C51.4711 99.3093 51.2845 99.1927 51.1311 99.046C50.9778 98.8993 50.8611 98.726 50.7811 98.526C50.7011 98.326 50.6611 98.106 50.6611 97.866C50.6611 97.3393 50.8145 96.9593 51.1211 96.726C51.4345 96.4927 51.8811 96.376 52.4611 96.376H54.1811V96.016C54.1811 95.5627 54.0778 95.2493 53.8711 95.076C53.6711 94.9027 53.3678 94.816 52.9611 94.816C52.5811 94.816 52.3045 94.8893 52.1311 95.036C51.9578 95.176 51.8611 95.336 51.8411 95.516H50.9611C50.9745 95.3027 51.0311 95.106 51.1311 94.926C51.2378 94.7393 51.3778 94.5793 51.5511 94.446C51.7311 94.3127 51.9445 94.2093 52.1911 94.136C52.4378 94.056 52.7111 94.016 53.0111 94.016C53.6378 94.016 54.1345 94.166 54.5011 94.466C54.8745 94.7593 55.0611 95.2427 55.0611 95.916V98.066C55.0611 98.346 55.0611 98.5927 55.0611 98.806C55.0678 99.0127 55.0845 99.216 55.1111 99.416H54.3411C54.3211 99.2627 54.3078 99.1193 54.3011 98.986C54.2945 98.846 54.2911 98.6893 54.2911 98.516C54.1511 98.796 53.9245 99.0327 53.6111 99.226C53.2978 99.4193 52.9178 99.516 52.4711 99.516ZM52.6611 98.716C52.8678 98.716 53.0611 98.6893 53.2411 98.636C53.4278 98.576 53.5911 98.4927 53.7311 98.386C53.8711 98.2727 53.9811 98.136 54.0611 97.976C54.1411 97.816 54.1811 97.6293 54.1811 97.416V97.056H52.6111C52.2845 97.056 52.0278 97.1227 51.8411 97.256C51.6545 97.3827 51.5611 97.586 51.5611 97.866C51.5611 98.1127 51.6478 98.316 51.8211 98.476C52.0011 98.636 52.2811 98.716 52.6611 98.716ZM56.6154 94.116H60.2154V94.896H57.4954V99.416H56.6154V94.116ZM61.215 94.116H62.035V95.116C62.215 94.7627 62.465 94.4927 62.785 94.306C63.1117 94.1127 63.4884 94.016 63.915 94.016C64.5817 94.016 65.115 94.236 65.515 94.676C65.915 95.1093 66.115 95.756 66.115 96.616V96.816C66.115 97.2693 66.0617 97.666 65.955 98.006C65.8484 98.3393 65.6984 98.6193 65.505 98.846C65.3117 99.066 65.0784 99.2327 64.805 99.346C64.5384 99.4593 64.2417 99.516 63.915 99.516C63.4617 99.516 63.0817 99.416 62.775 99.216C62.475 99.016 62.2484 98.766 62.095 98.466V101.416H61.215V94.116ZM63.715 98.736C63.9284 98.736 64.1284 98.696 64.315 98.616C64.5017 98.5293 64.6617 98.406 64.795 98.246C64.935 98.086 65.0417 97.886 65.115 97.646C65.195 97.406 65.235 97.1293 65.235 96.816V96.616C65.235 96.3293 65.195 96.0727 65.115 95.846C65.0417 95.6193 64.935 95.4293 64.795 95.276C64.6617 95.116 64.5017 94.996 64.315 94.916C64.1284 94.836 63.9284 94.796 63.715 94.796C63.475 94.796 63.255 94.836 63.055 94.916C62.855 94.9893 62.685 95.096 62.545 95.236C62.405 95.3693 62.295 95.5293 62.215 95.716C62.135 95.9027 62.095 96.1027 62.095 96.316V97.116C62.095 97.356 62.135 97.576 62.215 97.776C62.295 97.976 62.405 98.146 62.545 98.286C62.685 98.426 62.855 98.536 63.055 98.616C63.255 98.696 63.475 98.736 63.715 98.736ZM67.8721 101.516C67.7721 101.516 67.6721 101.506 67.5721 101.486V100.686C67.6721 100.706 67.7721 100.716 67.8721 100.716C67.9721 100.716 68.0587 100.699 68.1321 100.666C68.2054 100.633 68.2754 100.569 68.3421 100.476C68.4087 100.383 68.4787 100.249 68.5521 100.076C68.6321 99.9093 68.7221 99.6893 68.8221 99.416L66.5721 94.116H67.5521L69.2721 98.416L70.8321 94.116H71.7721L69.7721 99.416C69.6321 99.7893 69.4987 100.109 69.3721 100.376C69.2454 100.643 69.1087 100.859 68.9621 101.026C68.8221 101.199 68.6654 101.323 68.4921 101.396C68.3187 101.476 68.1121 101.516 67.8721 101.516ZM74.3725 99.516C73.7058 99.516 73.1825 99.376 72.8025 99.096C72.4225 98.816 72.2125 98.4227 72.1725 97.916H73.0525C73.0991 98.176 73.2358 98.376 73.4625 98.516C73.6958 98.6493 73.9991 98.716 74.3725 98.716C74.8325 98.716 75.1658 98.6393 75.3725 98.486C75.5858 98.326 75.6925 98.136 75.6925 97.916C75.6925 97.656 75.6058 97.4527 75.4325 97.306C75.2591 97.1527 74.9591 97.076 74.5325 97.076H73.6225V96.356H74.4725C74.8391 96.356 75.0991 96.286 75.2525 96.146C75.4125 96.006 75.4925 95.8093 75.4925 95.556C75.4925 95.356 75.3991 95.1827 75.2125 95.036C75.0258 94.8893 74.7458 94.816 74.3725 94.816C73.9658 94.816 73.6691 94.8827 73.4825 95.016C73.3025 95.1427 73.1925 95.326 73.1525 95.566H72.2725C72.2925 95.346 72.3525 95.1427 72.4525 94.956C72.5591 94.7627 72.7025 94.596 72.8825 94.456C73.0625 94.316 73.2758 94.2093 73.5225 94.136C73.7758 94.056 74.0591 94.016 74.3725 94.016C74.7125 94.016 75.0058 94.056 75.2525 94.136C75.5058 94.2093 75.7158 94.316 75.8825 94.456C76.0491 94.5893 76.1725 94.7493 76.2525 94.936C76.3325 95.1227 76.3725 95.3293 76.3725 95.556C76.3725 95.8093 76.3091 96.0327 76.1825 96.226C76.0558 96.4127 75.8525 96.5593 75.5725 96.666C75.9458 96.766 76.2058 96.926 76.3525 97.146C76.4991 97.366 76.5725 97.6227 76.5725 97.916C76.5725 98.136 76.5258 98.3427 76.4325 98.536C76.3391 98.7293 76.1991 98.8993 76.0125 99.046C75.8325 99.186 75.6025 99.2993 75.3225 99.386C75.0491 99.4727 74.7325 99.516 74.3725 99.516ZM77.8264 94.116H78.7064V98.116L81.4464 94.116H82.3264V99.416H81.4464V95.416L78.7064 99.416H77.8264V94.116ZM85.1399 94.896H83.3299V94.116H87.8299V94.896H86.0199V99.416H85.1399V94.896ZM90.9346 99.516C90.5946 99.516 90.2712 99.4627 89.9646 99.356C89.6579 99.2493 89.3879 99.086 89.1546 98.866C88.9212 98.6393 88.7346 98.356 88.5946 98.016C88.4546 97.676 88.3846 97.276 88.3846 96.816V96.616C88.3846 96.176 88.4512 95.796 88.5846 95.476C88.7179 95.1493 88.8946 94.8793 89.1146 94.666C89.3412 94.446 89.6012 94.2827 89.8946 94.176C90.1946 94.0693 90.5079 94.016 90.8346 94.016C91.6146 94.016 92.2179 94.2293 92.6446 94.656C93.0712 95.0827 93.2846 95.686 93.2846 96.466V97.026H89.2646C89.2646 97.3393 89.3146 97.6027 89.4146 97.816C89.5146 98.0293 89.6446 98.2027 89.8046 98.336C89.9646 98.4693 90.1412 98.566 90.3346 98.626C90.5346 98.686 90.7346 98.716 90.9346 98.716C91.3346 98.716 91.6412 98.6493 91.8546 98.516C92.0746 98.3827 92.2312 98.1993 92.3246 97.966H93.1846C93.1312 98.2193 93.0346 98.4427 92.8946 98.636C92.7612 98.8293 92.5946 98.9927 92.3946 99.126C92.2012 99.2527 91.9779 99.3493 91.7246 99.416C91.4779 99.4827 91.2146 99.516 90.9346 99.516ZM90.8846 94.816C90.6779 94.816 90.4779 94.846 90.2846 94.906C90.0912 94.9593 89.9179 95.0493 89.7646 95.176C89.6179 95.296 89.4979 95.4493 89.4046 95.636C89.3112 95.8227 89.2646 96.046 89.2646 96.306H92.4546C92.4479 96.0327 92.4012 95.8027 92.3146 95.616C92.2346 95.4227 92.1246 95.2693 91.9846 95.156C91.8446 95.036 91.6779 94.9493 91.4846 94.896C91.2979 94.8427 91.0979 94.816 90.8846 94.816ZM41.1262 111.516C40.2062 111.516 39.5062 111.283 39.0262 110.816C38.5529 110.349 38.3162 109.686 38.3162 108.826V108.626C38.3162 107.806 38.5529 107.166 39.0262 106.706C39.5062 106.246 40.2062 106.016 41.1262 106.016V104.416H42.0062V106.016C42.9262 106.016 43.6229 106.246 44.0962 106.706C44.5762 107.166 44.8162 107.806 44.8162 108.626V108.826C44.8162 109.686 44.5762 110.349 44.0962 110.816C43.6229 111.283 42.9262 111.516 42.0062 111.516V113.416H41.1262V111.516ZM43.9162 108.626C43.9162 108.019 43.7595 107.566 43.4462 107.266C43.1395 106.966 42.6562 106.816 41.9962 106.816V110.716C42.6562 110.716 43.1395 110.563 43.4462 110.256C43.7595 109.949 43.9162 109.473 43.9162 108.826V108.626ZM39.2162 108.826C39.2162 109.473 39.3695 109.949 39.6762 110.256C39.9895 110.563 40.4762 110.716 41.1362 110.716V106.816C40.4762 106.816 39.9895 106.966 39.6762 107.266C39.3695 107.566 39.2162 108.019 39.2162 108.626V108.826ZM48.2686 111.516C47.9286 111.516 47.6052 111.463 47.2986 111.356C46.9919 111.243 46.7219 111.076 46.4886 110.856C46.2552 110.629 46.0686 110.346 45.9286 110.006C45.7886 109.666 45.7186 109.269 45.7186 108.816V108.616C45.7186 108.189 45.7886 107.813 45.9286 107.486C46.0686 107.159 46.2552 106.889 46.4886 106.676C46.7219 106.456 46.9919 106.293 47.2986 106.186C47.6052 106.073 47.9286 106.016 48.2686 106.016C48.6086 106.016 48.9319 106.073 49.2386 106.186C49.5452 106.293 49.8152 106.456 50.0486 106.676C50.2819 106.889 50.4686 107.159 50.6086 107.486C50.7486 107.813 50.8186 108.189 50.8186 108.616V108.816C50.8186 109.269 50.7486 109.666 50.6086 110.006C50.4686 110.346 50.2819 110.629 50.0486 110.856C49.8152 111.076 49.5452 111.243 49.2386 111.356C48.9319 111.463 48.6086 111.516 48.2686 111.516ZM48.2686 110.716C48.4686 110.716 48.6686 110.683 48.8686 110.616C49.0686 110.543 49.2452 110.433 49.3986 110.286C49.5519 110.133 49.6752 109.936 49.7686 109.696C49.8686 109.456 49.9186 109.163 49.9186 108.816V108.616C49.9186 108.296 49.8686 108.023 49.7686 107.796C49.6752 107.569 49.5519 107.383 49.3986 107.236C49.2452 107.089 49.0686 106.983 48.8686 106.916C48.6686 106.849 48.4686 106.816 48.2686 106.816C48.0686 106.816 47.8686 106.849 47.6686 106.916C47.4686 106.983 47.2919 107.089 47.1386 107.236C46.9852 107.383 46.8586 107.569 46.7586 107.796C46.6652 108.023 46.6186 108.296 46.6186 108.616V108.816C46.6186 109.163 46.6652 109.456 46.7586 109.696C46.8586 109.936 46.9852 110.133 47.1386 110.286C47.2919 110.433 47.4686 110.543 47.6686 110.616C47.8686 110.683 48.0686 110.716 48.2686 110.716ZM53.177 106.896H51.367V106.116H55.867V106.896H54.057V111.416H53.177V106.896ZM58.9717 111.516C58.6317 111.516 58.3083 111.463 58.0017 111.356C57.695 111.243 57.425 111.076 57.1917 110.856C56.9583 110.629 56.7717 110.346 56.6317 110.006C56.4917 109.666 56.4217 109.269 56.4217 108.816V108.616C56.4217 108.189 56.4917 107.813 56.6317 107.486C56.7717 107.159 56.9583 106.889 57.1917 106.676C57.425 106.456 57.695 106.293 58.0017 106.186C58.3083 106.073 58.6317 106.016 58.9717 106.016C59.3117 106.016 59.635 106.073 59.9417 106.186C60.2483 106.293 60.5183 106.456 60.7517 106.676C60.985 106.889 61.1717 107.159 61.3117 107.486C61.4517 107.813 61.5217 108.189 61.5217 108.616V108.816C61.5217 109.269 61.4517 109.666 61.3117 110.006C61.1717 110.346 60.985 110.629 60.7517 110.856C60.5183 111.076 60.2483 111.243 59.9417 111.356C59.635 111.463 59.3117 111.516 58.9717 111.516ZM58.9717 110.716C59.1717 110.716 59.3717 110.683 59.5717 110.616C59.7717 110.543 59.9483 110.433 60.1017 110.286C60.255 110.133 60.3783 109.936 60.4717 109.696C60.5717 109.456 60.6217 109.163 60.6217 108.816V108.616C60.6217 108.296 60.5717 108.023 60.4717 107.796C60.3783 107.569 60.255 107.383 60.1017 107.236C59.9483 107.089 59.7717 106.983 59.5717 106.916C59.3717 106.849 59.1717 106.816 58.9717 106.816C58.7717 106.816 58.5717 106.849 58.3717 106.916C58.1717 106.983 57.995 107.089 57.8417 107.236C57.6883 107.383 57.5617 107.569 57.4617 107.796C57.3683 108.023 57.3217 108.296 57.3217 108.616V108.816C57.3217 109.163 57.3683 109.456 57.4617 109.696C57.5617 109.936 57.6883 110.133 57.8417 110.286C57.995 110.433 58.1717 110.543 58.3717 110.616C58.5717 110.683 58.7717 110.716 58.9717 110.716ZM62.7678 106.116H66.3678V106.896H63.6478V111.416H62.7678V106.116ZM67.3674 106.116H68.1874V107.116C68.3674 106.763 68.6174 106.493 68.9374 106.306C69.264 106.113 69.6407 106.016 70.0674 106.016C70.734 106.016 71.2674 106.236 71.6674 106.676C72.0674 107.109 72.2674 107.756 72.2674 108.616V108.816C72.2674 109.269 72.214 109.666 72.1074 110.006C72.0007 110.339 71.8507 110.619 71.6574 110.846C71.464 111.066 71.2307 111.233 70.9574 111.346C70.6907 111.459 70.394 111.516 70.0674 111.516C69.614 111.516 69.234 111.416 68.9274 111.216C68.6274 111.016 68.4007 110.766 68.2474 110.466V113.416H67.3674V106.116ZM69.8674 110.736C70.0807 110.736 70.2807 110.696 70.4674 110.616C70.654 110.529 70.814 110.406 70.9474 110.246C71.0874 110.086 71.194 109.886 71.2674 109.646C71.3474 109.406 71.3874 109.129 71.3874 108.816V108.616C71.3874 108.329 71.3474 108.073 71.2674 107.846C71.194 107.619 71.0874 107.429 70.9474 107.276C70.814 107.116 70.654 106.996 70.4674 106.916C70.2807 106.836 70.0807 106.796 69.8674 106.796C69.6274 106.796 69.4074 106.836 69.2074 106.916C69.0074 106.989 68.8374 107.096 68.6974 107.236C68.5574 107.369 68.4474 107.529 68.3674 107.716C68.2874 107.903 68.2474 108.103 68.2474 108.316V109.116C68.2474 109.356 68.2874 109.576 68.3674 109.776C68.4474 109.976 68.5574 110.146 68.6974 110.286C68.8374 110.426 69.0074 110.536 69.2074 110.616C69.4074 110.696 69.6274 110.736 69.8674 110.736ZM75.0297 111.516C74.7364 111.516 74.4764 111.476 74.2497 111.396C74.0297 111.309 73.8431 111.193 73.6897 111.046C73.5364 110.899 73.4197 110.726 73.3397 110.526C73.2597 110.326 73.2197 110.106 73.2197 109.866C73.2197 109.339 73.3731 108.959 73.6797 108.726C73.9931 108.493 74.4397 108.376 75.0197 108.376H76.7397V108.016C76.7397 107.563 76.6364 107.249 76.4297 107.076C76.2297 106.903 75.9264 106.816 75.5197 106.816C75.1397 106.816 74.8631 106.889 74.6897 107.036C74.5164 107.176 74.4197 107.336 74.3997 107.516H73.5197C73.5331 107.303 73.5897 107.106 73.6897 106.926C73.7964 106.739 73.9364 106.579 74.1097 106.446C74.2897 106.313 74.5031 106.209 74.7497 106.136C74.9964 106.056 75.2697 106.016 75.5697 106.016C76.1964 106.016 76.6931 106.166 77.0597 106.466C77.4331 106.759 77.6197 107.243 77.6197 107.916V110.066C77.6197 110.346 77.6197 110.593 77.6197 110.806C77.6264 111.013 77.6431 111.216 77.6697 111.416H76.8997C76.8797 111.263 76.8664 111.119 76.8597 110.986C76.8531 110.846 76.8497 110.689 76.8497 110.516C76.7097 110.796 76.4831 111.033 76.1697 111.226C75.8564 111.419 75.4764 111.516 75.0297 111.516ZM75.2197 110.716C75.4264 110.716 75.6197 110.689 75.7997 110.636C75.9864 110.576 76.1497 110.493 76.2897 110.386C76.4297 110.273 76.5397 110.136 76.6197 109.976C76.6997 109.816 76.7397 109.629 76.7397 109.416V109.056H75.1697C74.8431 109.056 74.5864 109.123 74.3997 109.256C74.2131 109.383 74.1197 109.586 74.1197 109.866C74.1197 110.113 74.2064 110.316 74.3797 110.476C74.5597 110.636 74.8397 110.716 75.2197 110.716ZM81.634 111.516C80.714 111.516 80.014 111.283 79.534 110.816C79.0607 110.349 78.824 109.686 78.824 108.826V108.626C78.824 107.806 79.0607 107.166 79.534 106.706C80.014 106.246 80.714 106.016 81.634 106.016V104.416H82.514V106.016C83.434 106.016 84.1307 106.246 84.604 106.706C85.084 107.166 85.324 107.806 85.324 108.626V108.826C85.324 109.686 85.084 110.349 84.604 110.816C84.1307 111.283 83.434 111.516 82.514 111.516V113.416H81.634V111.516ZM84.424 108.626C84.424 108.019 84.2674 107.566 83.954 107.266C83.6474 106.966 83.164 106.816 82.504 106.816V110.716C83.164 110.716 83.6474 110.563 83.954 110.256C84.2674 109.949 84.424 109.473 84.424 108.826V108.626ZM79.724 108.826C79.724 109.473 79.8774 109.949 80.184 110.256C80.4974 110.563 80.984 110.716 81.644 110.716V106.816C80.984 106.816 80.4974 106.966 80.184 107.266C79.8774 107.566 79.724 108.019 79.724 108.626V108.826ZM86.5764 106.116H87.4564V110.116L90.1964 106.116H91.0764V111.416H90.1964V107.416L87.4564 111.416H86.5764V106.116ZM92.6799 106.116H93.5599V108.326H94.3099C94.3365 107.946 94.4199 107.613 94.5599 107.326C94.6999 107.033 94.8765 106.789 95.0899 106.596C95.3099 106.403 95.5599 106.259 95.8399 106.166C96.1199 106.066 96.4165 106.016 96.7299 106.016C97.0699 106.016 97.3865 106.073 97.6799 106.186C97.9799 106.293 98.2399 106.456 98.4599 106.676C98.6799 106.889 98.8532 107.159 98.9799 107.486C99.1132 107.813 99.1799 108.189 99.1799 108.616V108.816C99.1799 109.269 99.1132 109.666 98.9799 110.006C98.8532 110.346 98.6799 110.629 98.4599 110.856C98.2399 111.076 97.9799 111.243 97.6799 111.356C97.3865 111.463 97.0699 111.516 96.7299 111.516C96.4165 111.516 96.1165 111.469 95.8299 111.376C95.5499 111.276 95.2999 111.126 95.0799 110.926C94.8665 110.726 94.6899 110.476 94.5499 110.176C94.4165 109.869 94.3365 109.513 94.3099 109.106H93.5599V111.416H92.6799V106.116ZM96.7299 110.716C96.9299 110.716 97.1232 110.683 97.3099 110.616C97.4965 110.543 97.6599 110.433 97.7999 110.286C97.9465 110.133 98.0632 109.936 98.1499 109.696C98.2365 109.456 98.2799 109.163 98.2799 108.816V108.616C98.2799 108.296 98.2365 108.023 98.1499 107.796C98.0632 107.569 97.9465 107.383 97.7999 107.236C97.6599 107.089 97.4965 106.983 97.3099 106.916C97.1232 106.849 96.9299 106.816 96.7299 106.816C96.5299 106.816 96.3365 106.849 96.1499 106.916C95.9632 106.983 95.7965 107.089 95.6499 107.236C95.5099 107.383 95.3965 107.569 95.3099 107.796C95.2232 108.023 95.1799 108.296 95.1799 108.616V108.816C95.1799 109.163 95.2232 109.456 95.3099 109.696C95.3965 109.936 95.5099 110.133 95.6499 110.286C95.7965 110.433 95.9632 110.543 96.1499 110.616C96.3365 110.683 96.5299 110.716 96.7299 110.716Z" fill="#6A6A6A"/>
</svg>
