<svg width="16" height="16" viewBox="0 0 16 16" fill="none" xmlns="http://www.w3.org/2000/svg">
<path d="M5.10004 13.9402C5.08004 13.9402 5.05337 13.9536 5.03337 13.9536C3.74004 13.3136 2.68671 12.2536 2.04004 10.9602C2.04004 10.9402 2.05337 10.9136 2.05337 10.8936C2.86671 11.1336 3.70671 11.3136 4.54004 11.4536C4.68671 12.2936 4.86004 13.1269 5.10004 13.9402Z" fill="#0073FF"/>
<path d="M13.9599 10.9669C13.2999 12.2936 12.1999 13.3669 10.8599 14.0136C11.1132 13.1669 11.3265 12.3136 11.4665 11.4536C12.3065 11.3136 13.1332 11.1336 13.9465 10.8936C13.9399 10.9202 13.9599 10.9469 13.9599 10.9669Z" fill="#0073FF"/>
<path d="M14.0132 5.13966C13.1732 4.88633 12.3265 4.67966 11.4665 4.53299C11.3265 3.67299 11.1199 2.81966 10.8599 1.98633C12.2399 2.64633 13.3532 3.75966 14.0132 5.13966Z" fill="#0073FF"/>
<path d="M5.10015 2.06004C4.86015 2.87337 4.68682 3.70004 4.54682 4.54004C3.68682 4.67337 2.83348 4.88671 1.98682 5.14004C2.63348 3.80004 3.70682 2.70004 5.03348 2.04004C5.05348 2.04004 5.08015 2.06004 5.10015 2.06004Z" fill="#0073FF"/>
<path d="M10.3267 4.39301C8.78001 4.21967 7.22001 4.21967 5.67334 4.39301C5.84001 3.47967 6.05334 2.56634 6.35334 1.68634C6.36667 1.63301 6.36001 1.59301 6.36667 1.53967C6.89334 1.41301 7.43334 1.33301 8.00001 1.33301C8.56001 1.33301 9.10667 1.41301 9.62667 1.53967C9.63334 1.59301 9.63334 1.63301 9.64667 1.68634C9.94667 2.57301 10.16 3.47967 10.3267 4.39301Z" fill="#0073FF"/>
<path d="M4.3935 10.3262C3.4735 10.1595 2.56683 9.94619 1.68683 9.64618C1.6335 9.63285 1.5935 9.63952 1.54016 9.63285C1.4135 9.10618 1.3335 8.56618 1.3335 7.99952C1.3335 7.43952 1.4135 6.89285 1.54016 6.37285C1.5935 6.36619 1.6335 6.36618 1.68683 6.35285C2.5735 6.05952 3.4735 5.83952 4.3935 5.67285C4.22683 7.21952 4.22683 8.77952 4.3935 10.3262Z" fill="#0073FF"/>
<path d="M14.6664 7.99952C14.6664 8.56618 14.5864 9.10618 14.4598 9.63285C14.4064 9.63952 14.3664 9.63285 14.3131 9.64618C13.4264 9.93952 12.5198 10.1595 11.6064 10.3262C11.7798 8.77952 11.7798 7.21952 11.6064 5.67285C12.5198 5.83952 13.4331 6.05285 14.3131 6.35285C14.3664 6.36618 14.4064 6.37285 14.4598 6.37285C14.5864 6.89952 14.6664 7.43952 14.6664 7.99952Z" fill="#0073FF"/>
<path d="M10.3267 11.6064C10.16 12.5264 9.94667 13.4331 9.64667 14.3131C9.63334 14.3664 9.63334 14.4064 9.62667 14.4598C9.10667 14.5864 8.56001 14.6664 8.00001 14.6664C7.43334 14.6664 6.89334 14.5864 6.36667 14.4598C6.36001 14.4064 6.36667 14.3664 6.35334 14.3131C6.06001 13.4264 5.84001 12.5264 5.67334 11.6064C6.44667 11.6931 7.22001 11.7531 8.00001 11.7531C8.78001 11.7531 9.56001 11.6931 10.3267 11.6064Z" fill="#0073FF"/>
<path d="M10.509 10.5086C8.84165 10.7189 7.15867 10.7189 5.49128 10.5086C5.2809 8.84116 5.2809 7.15818 5.49128 5.49079C7.15867 5.28041 8.84165 5.28041 10.509 5.49079C10.7194 7.15818 10.7194 8.84116 10.509 10.5086Z" fill="#0073FF"/>
</svg>
