<svg width="12.546692" height="12.546875" viewBox="0 0 12.5467 12.5469" fill="none" xmlns="http://www.w3.org/2000/svg" xmlns:xlink="http://www.w3.org/1999/xlink">
    <desc>
        Created with Pixso.
    </desc>
    <defs/>
    <path id="Vector" d="M0.278076 1.62109C-0.0927124 1.25 -0.0927124 0.648438 0.278076 0.27832C0.648926 -0.0927734 1.25012 -0.0927734 1.62097 0.27832L6.27332 4.93066L10.9257 0.27832C11.2965 -0.0927734 11.8978 -0.0927734 12.2686 0.27832C12.6394 0.648438 12.6394 1.25 12.2686 1.62109L7.61621 6.27344L12.2686 10.9258C12.6394 11.2959 12.6394 11.8975 12.2686 12.2686C11.8978 12.6396 11.2965 12.6396 10.9257 12.2686L6.27332 7.61621L1.62097 12.2686C1.25012 12.6396 0.648926 12.6396 0.278076 12.2686C-0.0927124 11.8975 -0.0927124 11.2959 0.278076 10.9258L4.93048 6.27344L0.278076 1.62109Z" fill="#616380" fill-opacity="1.000000" fill-rule="evenodd"/>
</svg>
