<svg width="20" height="20" viewBox="0 0 20 20" fill="none" xmlns="http://www.w3.org/2000/svg">
    <circle cx="10" cy="10" r="8" fill="#9395A5"/>
    <path fill-rule="evenodd" clip-rule="evenodd" d="M10.0038 10.9021L12.2489 13.1476C12.368 13.2667 12.5296 13.3337 12.6981 13.3337C12.8666 13.3337 13.0281 13.2667 13.1473 13.1476C13.2664 13.0285 13.3333 12.8669 13.3333 12.6984C13.3333 12.5299 13.2664 12.3684 13.1473 12.2492L10.9013 10.0041L13.1468 7.75903C13.2058 7.70004 13.2526 7.63002 13.2845 7.55296C13.3164 7.4759 13.3328 7.39331 13.3328 7.3099C13.3327 7.2265 13.3163 7.14392 13.2844 7.06687C13.2524 6.98983 13.2056 6.91983 13.1466 6.86086C13.0876 6.8019 13.0176 6.75514 12.9406 6.72324C12.8635 6.69134 12.7809 6.67493 12.6975 6.67495C12.6141 6.67497 12.5315 6.69142 12.4545 6.72336C12.3774 6.75529 12.3074 6.80209 12.2485 6.86108L10.0038 9.10617L7.7587 6.86108C7.70015 6.8004 7.63009 6.75198 7.55263 6.71867C7.47517 6.68535 7.39185 6.66779 7.30753 6.66702C7.22321 6.66625 7.13958 6.68228 7.06152 6.71417C6.98346 6.74606 6.91253 6.79318 6.85288 6.85278C6.79322 6.91238 6.74604 6.98326 6.71407 7.06129C6.6821 7.13932 6.66599 7.22293 6.66669 7.30725C6.66738 7.39157 6.68486 7.47491 6.7181 7.55241C6.75135 7.6299 6.79969 7.7 6.86032 7.75861L9.10626 10.0041L6.86074 12.2492C6.74161 12.3684 6.67468 12.5299 6.67468 12.6984C6.67468 12.8669 6.74161 13.0285 6.86074 13.1476C6.97988 13.2667 7.14145 13.3337 7.30993 13.3337C7.47841 13.3337 7.63999 13.2667 7.75912 13.1476L10.0038 10.9017V10.9021Z" fill="white"/>
</svg>
