<svg
        width="28.000000"
        height="28.000000"
        viewBox="0 0 28 28"
        fill="none"
        xmlns="http://www.w3.org/2000/svg"
        xmlns:xlink="http://www.w3.org/1999/xlink"
>
    <desc>Created with Pixso.</desc>
    <defs />
    <path
            id="Vector"
            d="M25.0833 12.7168L25.0833 4.78369C25.0833 3.03369 24.3367 2.3335 22.4816 2.3335L17.7683 2.3335C15.9133 2.3335 15.1666 3.03369 15.1666 4.78369L15.1666 12.7168C15.1666 14.4668 15.9133 15.167 17.7683 15.167L22.4816 15.167C24.3367 15.167 25.0833 14.4668 25.0833 12.7168Z"
            fill="#0073FF"
            fill-opacity="1.000000"
            fill-rule="nonzero"
    />
    <path
            id="Vector"
            d="M12.8333 15.2837L12.8333 23.2168C12.8333 24.9668 12.0867 25.667 10.2316 25.667L5.51831 25.667C3.66333 25.667 2.91663 24.9668 2.91663 23.2168L2.91663 15.2837C2.91663 13.5337 3.66333 12.8335 5.51831 12.8335L10.2316 12.8335C12.0867 12.8335 12.8333 13.5337 12.8333 15.2837Z"
            fill="#0073FF"
            fill-opacity="1.000000"
            fill-rule="nonzero"
    />
    <g opacity="0.000000" />
    <path
            id="Vector"
            d="M25.0833 23.2168L25.0833 19.9502C25.0833 18.2002 24.3367 17.5 22.4816 17.5L17.7683 17.5C15.9133 17.5 15.1666 18.2002 15.1666 19.9502L15.1666 23.2168C15.1666 24.9668 15.9133 25.6665 17.7683 25.6665L22.4816 25.6665C24.3367 25.6665 25.0833 24.9668 25.0833 23.2168Z"
            fill="#0073FF"
            fill-opacity="1.000000"
            fill-rule="nonzero"
    />
    <path
            id="Vector"
            d="M12.8333 8.05029L12.8333 4.78369C12.8333 3.03369 12.0867 2.3335 10.2316 2.3335L5.51831 2.3335C3.66333 2.3335 2.91663 3.03369 2.91663 4.78369L2.91663 8.05029C2.91663 9.80029 3.66333 10.5 5.51831 10.5L10.2316 10.5C12.0867 10.5 12.8333 9.80029 12.8333 8.05029Z"
            fill="#0073FF"
            fill-opacity="1.000000"
            fill-rule="nonzero"
    />
</svg>
