<svg xmlns="http://www.w3.org/2000/svg" width="28" height="28" viewBox="0 0 28 28" fill="none">
    <path d="M24.0832 4.78398V12.7173C24.0832 13.4792 23.9166 13.7537 23.7928 13.8702C23.6535 14.0012 23.3219 14.1673 22.4815 14.1673H17.7682C16.9278 14.1673 16.5961 14.0012 16.4569 13.8702C16.333 13.7537 16.1665 13.4792 16.1665 12.7173V4.78398C16.1665 4.02213 16.333 3.74763 16.4569 3.63108C16.5961 3.50011 16.9278 3.33398 17.7682 3.33398H22.4815C23.3219 3.33398 23.6535 3.50011 23.7928 3.63108C23.9166 3.74763 24.0832 4.02213 24.0832 4.78398Z" stroke="#9395A5" stroke-width="2"/>
    <path d="M11.8332 15.284V23.2173C11.8332 23.9792 11.6666 24.2537 11.5428 24.3702C11.4035 24.5012 11.0719 24.6673 10.2315 24.6673H5.51817C4.67776 24.6673 4.34614 24.5012 4.20692 24.3702C4.08304 24.2537 3.9165 23.9792 3.9165 23.2173V15.284C3.9165 14.5221 4.08304 14.2476 4.20692 14.1311C4.34614 14.0001 4.67776 13.834 5.51817 13.834H10.2315C11.0719 13.834 11.4035 14.0001 11.5428 14.1311C11.6666 14.2476 11.8332 14.5221 11.8332 15.284Z" stroke="#9395A5" stroke-width="2"/>
    <path d="M24.0832 19.95V23.2167C24.0832 23.9785 23.9166 24.253 23.7928 24.3696C23.6535 24.5005 23.3219 24.6667 22.4815 24.6667H17.7682C16.9278 24.6667 16.5961 24.5005 16.4569 24.3696C16.333 24.253 16.1665 23.9785 16.1665 23.2167V19.95C16.1665 19.1881 16.333 18.9136 16.4569 18.7971C16.5961 18.6661 16.9278 18.5 17.7682 18.5H22.4815C23.3219 18.5 23.6535 18.6661 23.7928 18.7971C23.9166 18.9136 24.0832 19.1881 24.0832 19.95Z" stroke="#9395A5" stroke-width="2"/>
    <path d="M11.8332 4.78398V8.05065C11.8332 8.81251 11.6666 9.08701 11.5428 9.20355C11.4035 9.33453 11.0719 9.50065 10.2315 9.50065H5.51817C4.67776 9.50065 4.34614 9.33453 4.20692 9.20355C4.08304 9.08701 3.9165 8.81251 3.9165 8.05065V4.78398C3.9165 4.02213 4.08304 3.74763 4.20692 3.63108C4.34614 3.50011 4.67776 3.33398 5.51817 3.33398H10.2315C11.0719 3.33398 11.4035 3.50011 11.5428 3.63108C11.6666 3.74763 11.8332 4.02213 11.8332 4.78398Z" stroke="#9395A5" stroke-width="2"/>
</svg>
