<svg
        width="29"
        height="28"
        viewBox="0 0 29 28"
        fill="none"
        xmlns="http://www.w3.org/2000/svg"
>
    <path
            d="M14.64 14.91C14.5583 14.8983 14.4533 14.8983 14.36 14.91C12.3067 14.84 10.6733 13.16 10.6733 11.095C10.6733 8.98331 12.3767 7.26831 14.5 7.26831C16.6117 7.26831 18.3267 8.98331 18.3267 11.095C18.315 13.16 16.6933 14.84 14.64 14.91Z"
            stroke="#9395A5"
            stroke-width="2"
            stroke-linecap="round"
            stroke-linejoin="round"
    />
    <path
            d="M22.3633 22.61C20.2867 24.5117 17.5333 25.6667 14.5 25.6667C11.4667 25.6667 8.71334 24.5117 6.63667 22.61C6.75334 21.5133 7.45334 20.44 8.70167 19.6C11.8983 17.4767 17.125 17.4767 20.2983 19.6C21.5467 20.44 22.2467 21.5133 22.3633 22.61Z"
            stroke="#9395A5"
            stroke-width="2"
            stroke-linecap="round"
            stroke-linejoin="round"
    />
    <path
            d="M14.5 25.6666C20.9433 25.6666 26.1667 20.4433 26.1667 14C26.1667 7.55666 20.9433 2.33331 14.5 2.33331C8.05668 2.33331 2.83334 7.55666 2.83334 14C2.83334 20.4433 8.05668 25.6666 14.5 25.6666Z"
            stroke="#9395A5"
            stroke-width="2"
            stroke-linecap="round"
            stroke-linejoin="round"
    />
</svg>
