<svg width="20.000000" height="20.000000" viewBox="0 0 20 20" fill="none" xmlns="http://www.w3.org/2000/svg" xmlns:xlink="http://www.w3.org/1999/xlink">
    <desc>
        Created with Pixso.
    </desc>
    <defs/>
    <path id="Vector" d="M20 10C20 4.47754 15.5229 0 10 0C4.47714 0 0 4.47754 0 10C0 15.5225 4.47714 20 10 20C15.5229 20 20 15.5225 20 10ZM4.09424 4.09375C5.67172 2.5166 7.7691 1.64844 10 1.64844C12.2309 1.64844 14.3283 2.5166 15.9058 4.09375C17.4832 5.67188 18.352 7.76953 18.352 10C18.352 12.2305 17.4832 14.3281 15.9058 15.9062C14.3283 17.4834 12.2309 18.3516 10 18.3516C7.7691 18.3516 5.67172 17.4834 4.09424 15.9062C2.51675 14.3281 1.64798 12.2305 1.64798 10C1.64798 7.76953 2.51675 5.67188 4.09424 4.09375ZM9.66721 5.38672C9.78748 5.34473 9.91525 5.32715 10.0426 5.33594C10.164 5.33496 10.285 5.3584 10.3972 5.4043C10.5094 5.45117 10.6112 5.51953 10.6964 5.60645C10.7816 5.69238 10.8487 5.79492 10.8935 5.9082C10.9383 6.02148 10.9599 6.1416 10.9572 6.26367C10.9658 6.38965 10.9486 6.51562 10.9068 6.63574C10.865 6.75488 10.7993 6.86426 10.7139 6.95801C10.6284 7.05078 10.5248 7.12598 10.4095 7.17773C10.2943 7.22949 10.1696 7.25781 10.0431 7.26074C9.91046 7.2666 9.77786 7.24512 9.65393 7.19727C9.52997 7.15039 9.41742 7.07715 9.32346 6.98242C9.22949 6.88867 9.15622 6.77637 9.10837 6.65234C9.06052 6.52832 9.03912 6.39551 9.04556 6.26367C9.04608 6.13574 9.07278 6.00977 9.12396 5.89258C9.17517 5.77539 9.24979 5.6709 9.34323 5.58398C9.43665 5.49707 9.54691 5.42969 9.66721 5.38672ZM9.36377 8.6582C9.45944 8.5625 9.58865 8.50781 9.72397 8.50586L10.292 8.50586C10.4273 8.50781 10.5565 8.5625 10.6522 8.6582C10.7479 8.75391 10.8025 8.88379 10.8045 9.01855L10.8045 14.2246C10.8025 14.3604 10.7479 14.4893 10.6522 14.585C10.5565 14.6807 10.4273 14.7354 10.292 14.7373L9.72397 14.7373C9.58865 14.7354 9.45944 14.6807 9.36377 14.585C9.26807 14.4893 9.21344 14.3604 9.21146 14.2246L9.21146 9.01855C9.21344 8.88379 9.26807 8.75391 9.36377 8.6582Z" fill="#363845" fill-opacity="1.000000" fill-rule="evenodd"/>
</svg>
