<svg width="24" height="24" viewBox="0 0 24 24" fill="none" xmlns="http://www.w3.org/2000/svg">
<path d="M18.6667 18.8605H17.8222C16.9333 18.8605 16.0889 19.1707 15.4667 19.7311L13.5667 21.4221C12.7 22.1926 11.2889 22.1926 10.4222 21.4221L8.52222 19.7311C7.89999 19.1707 7.04444 18.8605 6.16667 18.8605H5.33333C3.48889 18.8605 2 17.5297 2 15.8887V4.97183C2 3.3308 3.48889 2 5.33333 2H18.6667C20.5111 2 22 3.3308 22 4.97183V15.8887C22 17.5197 20.5111 18.8605 18.6667 18.8605Z" stroke="#0073FF" stroke-width="2" stroke-miterlimit="10" stroke-linecap="round" stroke-linejoin="round"/>
<path d="M12.28 14.96C12.13 15.01 11.88 15.01 11.72 14.96C10.42 14.51 7.5 12.66 7.5 9.51001C7.5 8.12001 8.62 7 10 7C10.82 7 11.54 7.39 12 8C12.46 7.39 13.18 7 14 7C15.38 7 16.5 8.12001 16.5 9.51001C16.49 12.66 13.58 14.51 12.28 14.96Z" stroke="#0073FF" stroke-width="2" stroke-linecap="round" stroke-linejoin="round"/>
</svg>
