<svg width="16" height="16" viewBox="0 0 16 16" fill="none" xmlns="http://www.w3.org/2000/svg">
<path d="M8 0C5.87875 0 3.8425 0.843375 2.34375 2.34313C0.843453 3.84347 0.000415587 5.87823 0 8C0 10.1209 0.84375 12.1571 2.34375 13.6569C3.8425 15.1566 5.87875 16 8 16C10.1213 16 12.1575 15.1566 13.6562 13.6569C15.1562 12.1571 16 10.1209 16 8C16 5.87913 15.1562 3.84288 13.6562 2.34313C12.1575 0.843375 10.1213 0 8 0Z" fill="#0073FF"/>
<path d="M3.62302 7.91211C5.95552 6.89611 7.51052 6.22623 8.28802 5.90261C10.5105 4.97848 10.9718 4.81798 11.273 4.81255C11.3393 4.81148 11.4868 4.82786 11.583 4.90567C11.663 4.9713 11.6855 5.06005 11.6968 5.12236C11.7068 5.18461 11.7205 5.32649 11.7093 5.43724C11.5893 6.70223 11.068 9.77199 10.803 11.1889C10.6918 11.7884 10.4705 11.9894 10.2568 12.009C9.79177 12.0517 9.43927 11.702 8.98927 11.4071C8.28552 10.9455 7.88802 10.6582 7.20427 10.2079C6.41427 9.68736 6.92677 9.40124 7.37677 8.93373C7.49427 8.81136 9.54177 6.94948 9.58052 6.78061C9.58552 6.75948 9.59052 6.68073 9.54302 6.63923C9.49677 6.59761 9.42802 6.61186 9.37802 6.62311C9.30677 6.63911 8.18302 7.38261 6.00302 8.85349C5.68427 9.07274 5.39552 9.17961 5.13552 9.17398C4.85052 9.16786 4.30052 9.01249 3.89177 8.87973C3.39177 8.71686 2.99302 8.63073 3.02802 8.35411C3.04552 8.21011 3.24427 8.06274 3.62302 7.91211Z" fill="white"/>
</svg>
