<svg width="20" height="20" viewBox="0 0 20 20" fill="none" xmlns="http://www.w3.org/2000/svg">
    <circle cx="10" cy="10" r="8" fill="#646778"/>
    <path fill-rule="evenodd" clip-rule="evenodd" d="M10.0038 10.9016L12.2489 13.1471C12.368 13.2662 12.5296 13.3332 12.6981 13.3332C12.8666 13.3332 13.0281 13.2662 13.1473 13.1471C13.2664 13.028 13.3333 12.8664 13.3333 12.6979C13.3333 12.5294 13.2664 12.3679 13.1473 12.2487L10.9013 10.0036L13.1468 7.75854C13.2058 7.69955 13.2526 7.62953 13.2845 7.55247C13.3164 7.47541 13.3328 7.39282 13.3327 7.30942C13.3327 7.22601 13.3163 7.14343 13.2843 7.06638C13.2524 6.98934 13.2056 6.91934 13.1466 6.86038C13.0876 6.80142 13.0176 6.75465 12.9406 6.72275C12.8635 6.69085 12.7809 6.67445 12.6975 6.67447C12.6141 6.67449 12.5315 6.69093 12.4545 6.72287C12.3774 6.7548 12.3074 6.8016 12.2485 6.86059L10.0038 9.10568L7.75869 6.86059C7.70014 6.79991 7.63008 6.7515 7.55262 6.71818C7.47516 6.68486 7.39184 6.6673 7.30752 6.66653C7.2232 6.66576 7.13957 6.68179 7.06151 6.71368C6.98345 6.74557 6.91252 6.79269 6.85287 6.85229C6.79321 6.91189 6.74603 6.98277 6.71406 7.0608C6.68209 7.13883 6.66599 7.22244 6.66668 7.30677C6.66737 7.39109 6.68485 7.47443 6.71809 7.55192C6.75134 7.62941 6.79969 7.69951 6.86031 7.75812L9.10626 10.0036L6.86073 12.2487C6.7416 12.3679 6.67467 12.5294 6.67467 12.6979C6.67467 12.8664 6.7416 13.028 6.86073 13.1471C6.97987 13.2662 7.14144 13.3332 7.30992 13.3332C7.4784 13.3332 7.63998 13.2662 7.75911 13.1471L10.0038 10.9012V10.9016Z" fill="#34353F"/>
</svg>
