<svg width="16.253159" height="16.253174" viewBox="0 0 16.2532 16.2532" fill="none" xmlns="http://www.w3.org/2000/svg" xmlns:xlink="http://www.w3.org/1999/xlink">
    <desc>
        Created with Pixso.
    </desc>
    <defs/>
    <path id="Vector" d="M11.4968 10.4822L11.1588 10.4822L10.8919 10.2249C11.8258 9.13855 12.388 7.72821 12.388 6.19403C12.388 2.77301 9.61502 0 6.19402 0C2.77301 0 0 2.77301 0 6.19403C0 9.61499 2.77301 12.3881 6.19402 12.3881C7.72823 12.3881 9.13855 11.8258 10.2249 10.892L10.4822 11.1588L10.4822 11.4968C10.4822 11.7623 10.5878 12.017 10.7758 12.2046L14.5397 15.961C14.9303 16.3508 15.563 16.3505 15.9532 15.9603L15.9603 15.9532C16.3505 15.563 16.3508 14.9304 15.961 14.5397L12.2046 10.7758C12.017 10.5878 11.7623 10.4822 11.4968 10.4822ZM6.19402 10.4822C3.82123 10.4822 1.90585 8.56677 1.90585 6.19403C1.90585 3.82123 3.82123 1.90582 6.19402 1.90582C8.5668 1.90582 10.4822 3.82123 10.4822 6.19403C10.4822 8.56677 8.5668 10.4822 6.19402 10.4822Z" fill="#9395A5" fill-opacity="1.000000" fill-rule="nonzero"/>
</svg>
