<svg
        width="29"
        height="28"
        viewBox="0 0 29 28"
        fill="none"
        xmlns="http://www.w3.org/2000/svg"
>
    <path
            d="M16.3483 3.73331C15.9867 3.62831 15.6133 3.54664 15.2283 3.49997C14.1083 3.35997 13.035 3.44164 12.0317 3.73331C12.37 2.86997 13.21 2.26331 14.19 2.26331C15.17 2.26331 16.01 2.86997 16.3483 3.73331Z"
            fill="#9395A5"
            stroke="#9395A5"
            stroke-width="2"
            stroke-miterlimit="10"
            stroke-linecap="round"
            stroke-linejoin="round"
    />
    <path
            d="M17.69 22.2367C17.69 24.1617 16.115 25.7367 14.19 25.7367C13.2333 25.7367 12.3467 25.34 11.7167 24.71C11.0867 24.08 10.69 23.1934 10.69 22.2367"
            stroke="#9395A5"
            stroke-width="2"
            stroke-miterlimit="10"
    />
    <path
            d="M14.19 3.3949C10.3283 3.3949 7.18995 6.53323 7.18995 10.3949V13.7666C7.18995 14.4782 6.88662 15.5632 6.52495 16.1699L5.18328 18.3982C4.35495 19.7749 4.92662 21.3032 6.44328 21.8166C11.4716 23.4966 16.8966 23.4966 21.925 21.8166C23.3366 21.3499 23.955 19.6816 23.185 18.3982L21.8433 16.1699C21.4933 15.5632 21.19 14.4782 21.19 13.7666V10.3949C21.19 6.5449 18.04 3.3949 14.19 3.3949Z"
            stroke="#9395A5"
            stroke-width="2"
            stroke-miterlimit="10"
            stroke-linecap="round"
    />
</svg>
